<svg xmlns="http://www.w3.org/2000/svg" xmlns:xlink="http://www.w3.org/1999/xlink">
    <symbol id="icon-arrow-down">
        <path fill="none" stroke="currentColor" stroke-width="1.5" d="M19.3,15.6l-7.3,6l-7.3-6 M12,21.7V2.3" />
    </symbol>
    <symbol id="icon-arrow-left">
        <path fill="none" stroke="currentColor" stroke-width="1.5" d="M8.4,19.2l-6-7.2l6-7.2 M2.4,12h19.2" />
    </symbol>
    <symbol id="icon-arrow-right">
        <path fill="none" stroke="currentColor" stroke-width="1.5" d="M15.6,4.8l6,7.2l-6,7.2 M21.6,12H2.4" />
    </symbol>
    <symbol id="icon-arrow-up">
        <path fill="none" stroke="currentColor" stroke-width="1.5" d="M4.7,8.4L12,2.3l7.3,6.1 M12,2.3v19.4" />
    </symbol>
    <symbol id="icon-sort">
        <path fill="none" stroke="currentColor" stroke-width="2.5" d="M19 9l-7 6-7-6" />
    </symbol>
    <symbol id="icon-check">
        <path fill="none" stroke="currentColor" stroke-width="2.5" d="M4 12l6 6.5L21 6" />
    </symbol>
    <symbol id="icon-cross">
        <path stroke="currentColor" stroke-width="2.5" d="M4 20L20 4M4 4l16 16" />
    </symbol>
    <symbol id="icon-pen">
        <path fill="none" stroke="currentColor" stroke-width="1.5"
            d="M19.425 4.075a3 3 0 0 0-4.243 0l-9.9 9.9L4 19.5l5.525-1.282 9.9-9.9a3 3 0 0 0 0-4.243zm-4.95.707l4.243 4.243m-2.122-2.121l-7.778 7.778" />
        <path fill="none" stroke="currentColor" stroke-width="1.5" d="M10 18l-1.182-3.318L5.5 13.5" />
    </symbol>
    <symbol id="icon-edit">
        <path fill="currentColor" fill-rule="evenodd" clip-rule="evenodd" d="M21.1,2.7c-1.2-1.2-3.1-1.2-4.2,0l-1.7,1.7l-6.5,6.5c-0.1,0.1-0.2,0.3-0.3,0.5l-1,4c-0.1,0.3,0,0.7,0.3,0.9
		c0.2,0.3,0.6,0.4,0.9,0.3l4-1c0.2,0,0.3-0.1,0.5-0.3l6.4-6.4l1.7-1.7C22.4,6,22.3,3.8,21.1,2.7L21.1,2.7z M18.3,4.1
		c0.4-0.4,1-0.4,1.4,0l0.2,0.2c0.4,0.4,0.4,1,0,1.4l-1,1l-1.6-1.6L18.3,4.1z M15.9,6.5l1.6,1.6l-5.6,5.6l-2.1,0.5l0.5-2.1L15.9,6.5z
		 M4,8c0-0.6,0.4-1,1-1h5c0.6,0,1-0.4,1-1s-0.4-1-1-1H5C3.3,5,2,6.3,2,8v11c0,1.7,1.3,3,3,3h11c1.7,0,3-1.3,3-3v-5c0-0.6-0.4-1-1-1
		s-1,0.4-1,1v5c0,0.6-0.4,1-1,1H5c-0.6,0-1-0.4-1-1V8z" />
    </symbol>
    <symbol id="icon-redirect">
        <path fill="currentColor" fill-rule="evenodd" clip-rule="evenodd"
            d="M14 5C13.4477 5 13 4.55228 13 4C13 3.44772 13.4477 3 14 3H20C20.5523 3 21 3.44772 21 4V10C21 10.5523 20.5523 11 20 11C19.4477 11 19 10.5523 19 10V6.41421L11.7071 13.7071C11.3166 14.0976 10.6834 14.0976 10.2929 13.7071C9.90237 13.3166 9.90237 12.6834 10.2929 12.2929L17.5858 5H14ZM5 7C4.44772 7 4 7.44772 4 8V19C4 19.5523 4.44772 20 5 20H16C16.5523 20 17 19.5523 17 19V14.4375C17 13.8852 17.4477 13.4375 18 13.4375C18.5523 13.4375 19 13.8852 19 14.4375V19C19 20.6569 17.6569 22 16 22H5C3.34315 22 2 20.6569 2 19V8C2 6.34315 3.34315 5 5 5H9.5625C10.1148 5 10.5625 5.44772 10.5625 6C10.5625 6.55228 10.1148 7 9.5625 7H5Z" />
    </symbol>
    <symbol id="icon-filePdf">
        <path fill="none" stroke="currentColor" stroke-width="1.5"
            d="M21 8h-5a1 1 0 0 1-1-1V2M3 21V3c0-.552.403-1 .9-1H16l5 5v14c0 .552-.403 1-.9 1H3.9c-.497 0-.9-.448-.9-1z" />
        <path fill="none" stroke="currentColor"
            d="M17.967 14.416c.83-3.353-14.113 1.112-11.704 3.353 2.41 2.24 7.229-12.573 3.787-11.735-3.443.838 7.087 11.735 7.917 8.382z" />
    </symbol>

    <!-- Globe -->
    <symbol id="icon-globe">
        <path fill="currentColor"
            d="M21.25 12A9.25 9.25 0 0 1 12 21.25v1.5c5.937 0 10.75-4.813 10.75-10.75h-1.5zM12 21.25A9.25 9.25 0 0 1 2.75 12h-1.5c0 5.937 4.813 10.75 10.75 10.75v-1.5zM2.75 12A9.25 9.25 0 0 1 12 2.75v-1.5C6.063 1.25 1.25 6.063 1.25 12h1.5zM12 2.75A9.25 9.25 0 0 1 21.25 12h1.5c0-5.937-4.813-10.75-10.75-10.75v1.5zm-2.58-.83C8.487 3.057 6.685 6.29 6.685 12h1.5c0-5.395 1.701-8.283 2.395-9.131l-1.162-.95zM6.685 12c0 5.721 1.84 8.917 2.719 10.062l1.19-.912c-.683-.891-2.41-3.767-2.41-9.15h-1.5zm6.719-9.15c.693.904 2.513 3.782 2.513 9.15h1.5c0-5.736-1.954-8.93-2.823-10.062l-1.19.912zM15.918 12c0 5.368-1.82 8.246-2.513 9.15l1.19.912c.869-1.133 2.823-4.326 2.823-10.062h-1.5zM2 12.75h20v-1.5H2v1.5zm1-5h18v-1.5H3v1.5zm0 10h18v-1.5H3v1.5z" />
    </symbol>
    <symbol id="icon-globe-filled">
        <path fill="currentColor" d="M16.2,7.4c-0.7-4.2-2.3-7.2-4.2-7.2s-3.5,3-4.2,7.2H16.2z M7.4,12c0,1.1,0.1,2.1,0.2,3h8.8c0.1-1,0.2-2,0.2-3
	s-0.1-2.1-0.2-3H7.6C7.5,9.9,7.4,10.9,7.4,12z M22.9,7.4c-1.4-3.2-4.1-5.7-7.5-6.7c1.2,1.6,2,4,2.4,6.7H22.9z M8.6,0.7
	c-3.4,1-6.2,3.5-7.5,6.7h5.1C6.7,4.7,7.5,2.3,8.6,0.7L8.6,0.7z M23.4,9h-5.5c0.1,1,0.2,2,0.2,3s-0.1,2-0.2,3h5.5c0.3-1,0.4-2,0.4-3
	S23.6,9.9,23.4,9L23.4,9z M5.9,12c0-1,0.1-2,0.2-3H0.6c-0.3,1-0.4,2-0.4,3s0.2,2.1,0.4,3h5.5C6,14,5.9,13,5.9,12z M7.8,16.6
	c0.7,4.2,2.3,7.2,4.2,7.2s3.5-3,4.2-7.2H7.8z M15.4,23.3c3.4-1,6.2-3.5,7.5-6.7h-5.1C17.3,19.3,16.5,21.7,15.4,23.3z M1.1,16.6
	c1.4,3.2,4.1,5.7,7.5,6.7c-1.2-1.6-2-4-2.4-6.7C6.3,16.6,1.1,16.6,1.1,16.6z" />
    </symbol>

    <symbol id="icon-earth">
        <path fill="currentColor" d="M22.7,8C22.5,7.5,22.3,7,22,6.5c-0.5-0.9-1.2-1.8-1.9-2.6c0,0,0,0-0.1-0.1h0c0,0,0,0-0.1-0.1l0,0c-0.1-0.1-0.1-0.1-0.2-0.2
		c-2-1.9-4.8-3-7.7-3c-1.7,0-3.4,0.4-4.9,1.1C7,1.7,6.9,1.8,6.8,1.8C5.8,2.4,4.8,3.1,3.9,3.9C2.7,5.2,1.7,6.7,1.2,8.4
		c0,0.1-0.1,0.2-0.1,0.3l0,0c0,0.1,0,0.1-0.1,0.2C1,9,1,9.1,0.9,9.3c0,0.1,0,0.1,0,0.2c-0.2,0.8-0.3,1.7-0.3,2.6
		c0,3.1,1.3,6,3.3,8.1c1.2,1.2,2.6,2.1,4.1,2.6c0,0,0.1,0,0.1,0.1C8.5,22.9,8.8,23,9.2,23c0.1,0,0.1,0,0.2,0
		c0.9,0.2,1.8,0.3,2.7,0.3c3.1,0,6-1.3,8.1-3.3c0.4-0.4,0.7-0.8,1-1.2c1.4-1.9,2.3-4.3,2.3-6.9C23.4,10.6,23.2,9.3,22.7,8z
		 M4.8,19.2c-1.8-1.8-3-4.4-3-7.2c0-0.5,0-1,0.1-1.5c0.3,0.2,1,0.6,1,0.6c0,0,0.1,0,0.1,0c0.1,0,0.1,0,0.2,0c0.1,0,0.1,0,0.2,0
		c0,0,0,0,0,0c0,0,0.1,0.1,0.1,0.1c0,0.1,0.1,0.2,0.2,0.2c0.1,0,0.3,0.1,0.5,0.1c0.1,0,0.2,0,0.2,0c0,0,0,0.1,0.1,0.2
		c0,0.1,0.1,0.3,0.2,0.4c0.1,0.1,0.4,0.4,0.6,0.5c0,0,0.1,0,0.1,0c0,0,0,0,0.1,0c0,0,0.3-0.2,0.4-0.2c0,0,0.1,0,0.1,0.1
		c0,0.2,0,0.7,0,0.8c0,0.1-0.2,0.3-0.5,0.5c0,0,0,0.1,0,0.1c0,0,0,0.7,0,1c0,0.3,0.5,0.9,0.6,1c0.1,0.1,0.2,0.5,0.3,0.6
		c0.1,0.1,0.6,0.5,1,0.8V19c0,0.2,0.1,0.3,0.1,0.4c0,0.1,0.1,0.1,0.1,0.2v1.2c0,0.2,0,0.3,0.1,0.4C6.6,20.7,5.6,20,4.8,19.2z
		 M20.8,7.8c-0.2-0.1-0.5-0.2-0.5-0.2l-0.2,0C19.9,7.3,20,6.8,19.6,7c-0.4,0.1-1.7,0.3-2,0.4c-0.3,0.1-0.6,0.5-0.9,0.9
		c-0.2,0.3-0.9,1.4-1,1.6c-0.1,0.2-0.2,1.2-0.2,1.5c0,0.3,1.2,1.5,1.6,1.5c0.4,0.1,1.5-0.2,1.8-0.3c0.3-0.1,0.5,0.3,0.7,0.3
		c0.2,0,0.5,0.1,0.3,0.5c-0.2,0.3-0.2,0.5,0,0.7c0.2,0.2,0.7,1.1,0.4,1.8c-0.3,0.7-0.1,1,0.1,1.3c0,0.1,0.1,0.1,0.1,0.2
		c-0.4,0.7-0.9,1.3-1.4,1.8c-1.8,1.8-4.4,3-7.2,3c-0.9,0-1.8-0.1-2.7-0.4c0,0,0,0,0,0c0-0.1,0-0.2-0.1-0.2c0.1,0,0.1-0.1,0.2-0.1
		c0.1-0.1,0.1-0.2,0.1-0.3l0.1,0c0.1,0,0.3,0,0.4-0.1c0.2-0.1,0.2-0.4,0.2-0.7c0,0,0,0,0,0c0,0,0,0,0.1,0c0.2,0,0.4-0.3,0.4-0.5
		c0-0.1,0.1-0.3,0.2-0.4c0.2-0.4,0.3-0.7,0.3-0.8c0-0.1,0.3-0.3,0.6-0.4c0.3-0.1,0.4-0.2,0.6-0.6c0.1-0.4,0.2-1,0.1-1.3
		c0-0.1,0.2-0.4,0.3-0.5c0.2-0.3,0.3-0.5,0.3-0.6c0-0.3-0.3-0.6-0.5-0.7c-0.2-0.1-0.6-0.2-0.8-0.2c-0.1,0-0.1,0-0.2,0
		c0,0-0.1-0.1-0.1-0.1c-0.1-0.1-0.2-0.2-0.4-0.2c0,0,0,0-0.1,0c-0.1,0-0.2,0-0.3,0.1c-0.1,0-0.2,0.1-0.2,0.1c0,0,0,0-0.1,0
		c0,0-0.1,0-0.1,0c0,0,0-0.1,0.1-0.1c0.1-0.1,0.2-0.2,0.1-0.5c-0.1-0.2-0.2-0.4-0.2-0.5c-0.2-0.3-0.5-0.3-0.6-0.3
		c-0.1,0-0.2,0-0.3,0l0,0c-0.1,0-0.2-0.1-0.3-0.3C9,12.2,8.9,12.1,8.8,12c-0.2-0.3-0.5-0.3-0.8-0.3c0,0-0.1,0-0.1,0c0,0-0.1,0-0.1,0
		c0,0-0.1,0-0.1,0c-0.1,0-0.2-0.1-0.4-0.2c-0.1-0.1-0.3-0.1-0.4-0.2l0,0c-0.2,0-0.3,0.2-0.6,0.5c-0.1,0.1-0.1,0.2-0.2,0.2
		c0,0,0,0,0,0c0-0.1-0.1-0.1-0.2-0.2c0,0,0,0-0.1,0c-0.1,0-0.2,0.1-0.2,0.1C5.6,12,5.5,12,5.5,12c0,0-0.1,0-0.1,0
		c-0.2-0.1-0.1-0.4-0.1-0.7c0-0.1,0-0.2,0-0.3c0-0.2-0.1-0.2-0.2-0.2c-0.1,0-0.1,0-0.2,0c-0.1,0-0.1,0.1-0.2,0.1c0,0-0.1,0-0.1,0
		c-0.1,0-0.1,0-0.1-0.1c0,0,0.1-0.2,0.1-0.3c0,0,0.1-0.1,0.1-0.1C4.9,10.2,5,10,4.9,9.9c0-0.1-0.1-0.1-0.2-0.1c0,0-0.1,0-0.1,0
		c0,0-0.1,0-0.1,0c0,0-0.1,0-0.1,0c0,0-0.1,0-0.1,0C4.1,9.8,4.1,10,4.1,10c0,0.2-0.2,0.4-0.4,0.4c0,0,0,0-0.1,0
		c-0.3,0-0.4-0.2-0.4-0.6c0-0.2,0-0.2,0.1-0.4c0-0.1,0.1-0.2,0.2-0.3c0.1-0.3,0.3-0.3,0.4-0.4c0,0,0.1,0,0.1-0.1c0,0,0.1,0,0.1,0
		c0,0,0,0,0.1,0c0,0,0.1,0,0.2,0c0,0,0,0,0.1,0c0.2,0,0.3-0.2,0.3-0.3c0,0,0,0,0,0c0,0,0,0,0,0c0.1,0,0.2,0.1,0.5,0.1
		c0.1,0,0.1,0,0.2,0c0,0.2,0,0.5,0.3,0.8c0.1,0.1,0.2,0.2,0.3,0.2c0.3,0,0.3-0.5,0.3-1c0-0.3,0.1-0.4,0.5-0.7l0,0
		C7,7.5,7.1,7.4,7.2,7.2C7.3,7,7.4,6.8,7.7,6.7c0.2-0.1,0.5-0.3,0.8-0.4C8.9,6.1,9.2,6,9.4,5.9c0.2-0.1,0.1-0.4,0.1-0.6
		C9.5,5,9.5,5,9.6,5c0.2,0,0.3-0.1,0.5-0.1c0.3,0,0.5-0.1,0.8-0.2c0.3-0.1,0.4-0.3,0.4-0.4c0-0.2-0.1-0.3-0.3-0.4
		c-0.1,0-0.1-0.2-0.1-0.3c0-0.2,0-0.3-0.1-0.5C10.7,3.1,10.6,3,10.5,3c-0.1,0-0.2,0.1-0.4,0.1c-0.1,0-0.2,0.1-0.3,0.1c0,0,0,0,0,0
		c0,0-0.1-0.1-0.1-0.2C9.6,2.9,9.5,2.6,9.2,2.6c0,0-0.1,0-0.1,0C8.7,2.7,8.6,3.1,8.5,3.4c0,0.1-0.1,0.3-0.1,0.3C8.2,3.7,8.1,3.9,8,4
		c0,0.1-0.1,0.2-0.2,0.3C7.7,4.4,7.7,4.4,7.7,4.4c0,0,0-0.2,0.1-0.4c0.1-0.1,0.1-0.3,0-0.4C7.7,3.5,7.5,3.5,7.3,3.5
		c-0.1,0-0.2,0-0.3,0c-0.2,0-0.2-0.1-0.2-0.1c0,0,0,0,0.1-0.1c1.5-0.9,3.3-1.4,5.2-1.4c2.3,0,4.4,0.8,6.1,2c0,0.1-0.1,0.3-0.2,0.4
		c-0.1,0.2-0.1,0.3-0.1,0.3s0.5-0.1,0.7-0.1c0,0,0.1-0.1,0.1-0.1c0.1,0,0.1,0.1,0.2,0.1c-0.1,0.1-0.3,0.3-0.3,0.3
		c-0.1,0.1-0.4,0.1-0.5,0.2c-0.1,0.1,0.3,0.3,0.3,0.3c0,0.1,0,0.5-0.2,0.5c-0.2,0-1,0-1,0s-0.3,0.9-0.2,1c0.1,0.1,0.4,0.3,0.7,0.3
		c0.2,0,0.7-0.3,0.7-0.3l0.2-0.5l0.5-0.5c0,0,0.3,0.1,0.5,0c0.1-0.1,0.3-0.2,0.3-0.2s0.2,0.4,0.4,0.5l0,0l0,0
		c0.2,0.2,0.3,0.5,0.5,0.7l0,0v0l0,0c0,0,0,0,0,0c0.2,0.4,0.4,0.8,0.6,1.2C21.2,8,21,7.9,20.8,7.8z" />
    </symbol>

    <!-- Appearance -->
    <symbol id="icon-appearance">
        <path fill="currentColor" d="M20.6,4.1c-2.3-2.3-5.4-3.6-8.7-3.5C5.7,0.6,0.6,5.7,0.6,12s5.1,11.4,11.3,11.4c1.3,0,2.5-0.9,2.9-2.1
		c0.2-0.9,0-1.9-0.6-2.6c-0.2-0.2-0.2-0.6,0.1-0.8c0.1-0.1,0.2-0.1,0.4-0.1h1.9c3.7,0,6.7-2.8,7-6.4C23.5,8.6,22.5,6,20.6,4.1z
		 M16.5,15.4h-1.9c-1.6,0-2.8,1.3-2.8,2.8c0,0.7,0.3,1.4,0.7,1.9c0.1,0.1,0.2,0.4,0.1,0.6c-0.1,0.2-0.3,0.4-0.7,0.4
		c-5-0.1-9-4.2-9-9.2c0-0.4,0-0.8,0.1-1.1C3.7,6.3,7.5,3,12,2.9h0.1c2.6,0,5.1,1,6.9,2.8c1.4,1.4,2.2,3.4,2.2,5.4
		C20.9,13.6,18.9,15.4,16.5,15.4z" />
        <path fill="currentColor" d="M10.4,5.7c0,0.9,0.8,1.7,1.7,1.7s1.7-0.8,1.7-1.7S13,4,12.1,4S10.4,4.8,10.4,5.7z" />
        <path fill="currentColor" d="M15.8,6.5C15,7,14.7,8.1,15.1,8.9c0.5,0.8,1.5,1.1,2.3,0.6C18.3,9,18.6,8,18.1,7.2C17.6,6.3,16.6,6.1,15.8,6.5
		C15.8,6.5,15.8,6.5,15.8,6.5z M8.4,6.5C7.6,6.1,6.5,6.4,6,7.2C5.6,8,5.9,9,6.7,9.5C7.5,10,8.5,9.7,9,8.9C9.5,8.1,9.2,7,8.4,6.5
		C8.4,6.5,8.4,6.5,8.4,6.5z M5.4,11.2c-0.8,0.5-1,1.6-0.5,2.4c0.5,0.8,1.6,1,2.4,0.5c0.8-0.5,1-1.6,0.5-2.4c0,0,0,0,0,0
		C7.3,10.8,6.2,10.6,5.4,11.2C5.4,11.2,5.4,11.2,5.4,11.2L5.4,11.2z" />
    </symbol>
    <symbol id="icon-cog">
        <path fill="currentColor"
            d="M12,15.5A3.5,3.5 0 0,1 8.5,12A3.5,3.5 0 0,1 12,8.5A3.5,3.5 0 0,1 15.5,12A3.5,3.5 0 0,1 12,15.5M19.43,12.97C19.47,12.65 19.5,12.33 19.5,12C19.5,11.67 19.47,11.34 19.43,11L21.54,9.37C21.73,9.22 21.78,8.95 21.66,8.73L19.66,5.27C19.54,5.05 19.27,4.96 19.05,5.05L16.56,6.05C16.04,5.66 15.5,5.32 14.87,5.07L14.5,2.42C14.46,2.18 14.25,2 14,2H10C9.75,2 9.54,2.18 9.5,2.42L9.13,5.07C8.5,5.32 7.96,5.66 7.44,6.05L4.95,5.05C4.73,4.96 4.46,5.05 4.34,5.27L2.34,8.73C2.21,8.95 2.27,9.22 2.46,9.37L4.57,11C4.53,11.34 4.5,11.67 4.5,12C4.5,12.33 4.53,12.65 4.57,12.97L2.46,14.63C2.27,14.78 2.21,15.05 2.34,15.27L4.34,18.73C4.46,18.95 4.73,19.03 4.95,18.95L7.44,17.94C7.96,18.34 8.5,18.68 9.13,18.93L9.5,21.58C9.54,21.82 9.75,22 10,22H14C14.25,22 14.46,21.82 14.5,21.58L14.87,18.93C15.5,18.67 16.04,18.34 16.56,17.94L19.05,18.95C19.27,19.03 19.54,18.95 19.66,18.73L21.66,15.27C21.78,15.05 21.73,14.78 21.54,14.63L19.43,12.97Z" />
    </symbol>
    <symbol id="icon-moon">
        <path fill="none" stroke="currentColor" stroke-linecap="round" stroke-width="1.5"
            d="M3 12a9 9 0 0 0 17.878 1.483.01.01 0 0 0-.013-.011A8 8 0 0 1 10.528 3.135a.01.01 0 0 0-.01-.013A9 9 0 0 0 3 12z" />
    </symbol>
    <symbol id="icon-moon-filled">
        <path fill="currentColor" stroke="currentColor" stroke-linecap="round" stroke-width="1.5"
            d="M3 12a9 9 0 0 0 17.878 1.483.01.01 0 0 0-.013-.011A8 8 0 0 1 10.528 3.135a.01.01 0 0 0-.01-.013A9 9 0 0 0 3 12z" />
    </symbol>
    <symbol id="icon-sun">
        <path fill="none" stroke="currentColor" stroke-width="1.5"
            d="M23 12h-3.5m-15 0H1m18.778-7.778l-2.475 2.475M6.697 17.303l-2.475 2.475M12 1v3.5m0 15V23M4.222 4.222l2.475 2.475m10.606 10.606l2.475 2.475M17 12a5 5 0 1 1-10 0 5 5 0 0 1 10 0z" />
    </symbol>
    <symbol id="icon-sun-filled">
        <path stroke="currentColor" stroke-width="1.5"
            d="M23 12h-3.5m-15 0H1m18.778-7.778l-2.475 2.475M6.697 17.303l-2.475 2.475M12 1v3.5m0 15V23M4.222 4.222l2.475 2.475m10.606 10.606l2.475 2.475" />
        <circle cx="12" cy="12" r="5" fill="currentColor" stroke="currentColor" stroke-width="1.5" />
    </symbol>

    <!-- Splash symbols -->
    <symbol id="icon-splash-black">
        <path fill="#000" stroke="#fff" stroke-width="0.25" stroke-miterlimit="10"
            d="M20,10.1c0,0.3,0.3,0.5,0.6,0.6c0.4,0,0.5-0.2,0.6-0.6c0.1-0.4,0-0.6-0.6-0.6C20.3,9.5,20,9.7,20,10.1z" />
        <path fill="#000" stroke="#fff" stroke-width="0.25" stroke-miterlimit="10" d="M18.1,17.3c-0.3,0-0.5,0.3-0.4,0.6c0.1,0.3,0.1,0.5,0.5,0.3c0.2-0.1,0.6,0,0.5-0.2c0,0-0.3-0.2-0.3-0.4
		C18.4,17.5,18.3,17.2,18.1,17.3z" />
        <path fill="#000" stroke="#fff" stroke-width="0.25" stroke-miterlimit="10" d="M17.9,19.4c-0.1,0-0.4-0.4-0.4-0.4c-0.4-0.3-0.8,0-0.7,0.5c0.1,0.2-0.1,0.4-0.1,0.5c0,0-0.6,0.5-0.3,0.6
		c0.2,0.1,0.4-0.1,0.4,0.2c0,0.2,0.7,0.3,0.8,0c0.1-0.3,0.2-0.4,0.6-0.3c0.1,0,0.1-0.3,0.1-0.4c0-0.1,0.3-0.2,0.2-0.3
		C18.4,19.5,18.4,19.3,17.9,19.4z" />
        <path fill="#000" stroke="#fff" stroke-width="0.25" stroke-miterlimit="10"
            d="M6.7,18.7c0.7-0.2,0.9,0.4,0.7,0.7c-0.2,0.5-0.4,0.8-0.7,0.7C5.8,19.9,6,20,6,19.5C6,19.4,6.1,18.9,6.7,18.7z" />
        <path fill="#000" stroke="#fff" stroke-width="0.25" stroke-miterlimit="10"
            d="M3.3,7.5C3.5,7.4,3.9,7.3,3.8,7C3.7,6.8,3.4,6.6,3.3,6.5C3,6.4,2.8,6.7,2.8,7C2.8,7.3,3.1,7.6,3.3,7.5z" />
        <path fill="#000" stroke="#fff" stroke-width="0.25" stroke-miterlimit="10"
            d="M8.1,5.2c0.3-0.1,0.6-0.3,0.7-0.7c0-0.3-0.3-0.6-0.7-0.7C7.6,3.8,7.5,4.2,7.4,4.5C7.3,4.9,7.5,5.4,8.1,5.2z" />
        <path fill="#000" stroke="#fff" stroke-width="0.25" stroke-miterlimit="10"
            d="M5.1,16.9c0.2,0.3,0.2,0.6-0.6,0.6c-0.4,0-0.6-0.2-0.6-0.6c0-0.4,0.2-0.6,0.6-0.6C4.8,16.4,5,16.6,5.1,16.9z" />
        <path fill="#000" stroke="#fff" stroke-width="0.25" stroke-miterlimit="10" d="M20.4,14c-2.1-0.7-2.5-0.5-3.5-1.4c-0.2-0.2-0.2-1,1.1-0.8c0.7,0.1,1.3-0.3,1.5-0.8c0.2-0.5-0.4-1-1.2-1
		c-0.3,0-0.6,0-0.9-0.2c-0.9-0.4-0.7-0.8-0.3-1.1c0,0,0.4-0.3,0.5-0.5c0.5-0.4,1.1-0.7,1.2-0.8c0,0,0,0,0,0c2.9-1.4,1.2-4.1-1.1-1.6
		c-1,1.1-1.5,1.5-2.1,1.9c-0.6,0.3-1.3,0-0.8-0.7c0.2-0.3,0.6-0.5,0.7-0.8c0.1-0.5-0.3-1-0.6-1S14.2,5.5,14,6c-0.2,1-0.8,0.9-1,0.6
		c-0.5-0.5,1.4-2.2,1.5-3.1c0.3-1.6-1.3-2.8-2.8-2.7c-1,0.1-2.4,1.4-2.3,3.4c0.1,2.5,0.9,3,0.3,3.2C8.9,7.8,8.5,7.7,6.9,6.6
		C6,6,5,6.5,4.8,7.2C4.7,7.8,5,8.4,5.1,8.5c0,0,0,0,0,0C5.2,8.6,5.5,8.7,6,9c0.5,0.3,0.6,1,0.1,1.6c-0.5,0.6-1,0.7-1.8,0.6
		c0,0,0,0,0,0c-3.3-0.2-2.7,3.4,0.3,2.5c0.2-0.1,0.4-0.1,0.5-0.1c0.5,0,1-0.1,1.3,0c0.4,0.1,0.7,0.4,0.8,0.8c0.1,0.5-0.1,1-0.6,1.3
		c-0.1,0.1-0.2,0.2-0.3,0.3c-0.7,1.1,1.1,2.8,2.1,0.7c0.5-1,1.9-0.7,1.5,0.2c-0.6,1.5-0.3,1.9,0.1,2.6c0.8,1.4-0.2,3.8,1.1,3.8
		c1.2,0,1.4-1.8,1.2-3.9c-0.1-0.8,0.4-1.6,0.9-1.9c0.5-0.2,1.1-0.2,1.3,0.2c0,0,0,0,0,0c0.3,0.7,1.1,0.8,1.6,0.6
		c0.3-0.1,0.5-0.3,0.6-0.6c0.2-0.4,0.3-1.1-0.4-1.8c-0.1-0.1-0.3-0.2-0.4-0.3c-1.1-0.6,0.1-1,1.1-0.8c1.1,0.2,1.4,0.9,2,1.4
		C21.1,17.7,23.5,15.1,20.4,14z" />
    </symbol>
    <symbol id="icon-splash-white">
        <path fill="#fff" stroke="#fff" stroke-width="0.25" stroke-miterlimit="10"
            d="M20,10.1c0,0.3,0.3,0.5,0.6,0.6c0.4,0,0.5-0.2,0.6-0.6c0.1-0.4,0-0.6-0.6-0.6C20.3,9.5,20,9.7,20,10.1z" />
        <path fill="#fff" stroke="#fff" stroke-width="0.25" stroke-miterlimit="10" d="M18.1,17.3c-0.3,0-0.5,0.3-0.4,0.6c0.1,0.3,0.1,0.5,0.5,0.3c0.2-0.1,0.6,0,0.5-0.2c0,0-0.3-0.2-0.3-0.4
		C18.4,17.5,18.3,17.2,18.1,17.3z" />
        <path fill="#fff" stroke="#fff" stroke-width="0.25" stroke-miterlimit="10" d="M17.9,19.4c-0.1,0-0.4-0.4-0.4-0.4c-0.4-0.3-0.8,0-0.7,0.5c0.1,0.2-0.1,0.4-0.1,0.5c0,0-0.6,0.5-0.3,0.6
		c0.2,0.1,0.4-0.1,0.4,0.2c0,0.2,0.7,0.3,0.8,0c0.1-0.3,0.2-0.4,0.6-0.3c0.1,0,0.1-0.3,0.1-0.4c0-0.1,0.3-0.2,0.2-0.3
		C18.4,19.5,18.4,19.3,17.9,19.4z" />
        <path fill="#fff" stroke="#fff" stroke-width="0.25" stroke-miterlimit="10"
            d="M6.7,18.7c0.7-0.2,0.9,0.4,0.7,0.7c-0.2,0.5-0.4,0.8-0.7,0.7C5.8,19.9,6,20,6,19.5C6,19.4,6.1,18.9,6.7,18.7z" />
        <path fill="#fff" stroke="#fff" stroke-width="0.25" stroke-miterlimit="10"
            d="M3.3,7.5C3.5,7.4,3.9,7.3,3.8,7C3.7,6.8,3.4,6.6,3.3,6.5C3,6.4,2.8,6.7,2.8,7C2.8,7.3,3.1,7.6,3.3,7.5z" />
        <path fill="#fff" stroke="#fff" stroke-width="0.25" stroke-miterlimit="10"
            d="M8.1,5.2c0.3-0.1,0.6-0.3,0.7-0.7c0-0.3-0.3-0.6-0.7-0.7C7.6,3.8,7.5,4.2,7.4,4.5C7.3,4.9,7.5,5.4,8.1,5.2z" />
        <path fill="#fff" stroke="#fff" stroke-width="0.25" stroke-miterlimit="10"
            d="M5.1,16.9c0.2,0.3,0.2,0.6-0.6,0.6c-0.4,0-0.6-0.2-0.6-0.6c0-0.4,0.2-0.6,0.6-0.6C4.8,16.4,5,16.6,5.1,16.9z" />
        <path fill="#fff" stroke="#fff" stroke-width="0.25" stroke-miterlimit="10" d="M20.4,14c-2.1-0.7-2.5-0.5-3.5-1.4c-0.2-0.2-0.2-1,1.1-0.8c0.7,0.1,1.3-0.3,1.5-0.8c0.2-0.5-0.4-1-1.2-1
		c-0.3,0-0.6,0-0.9-0.2c-0.9-0.4-0.7-0.8-0.3-1.1c0,0,0.4-0.3,0.5-0.5c0.5-0.4,1.1-0.7,1.2-0.8c0,0,0,0,0,0c2.9-1.4,1.2-4.1-1.1-1.6
		c-1,1.1-1.5,1.5-2.1,1.9c-0.6,0.3-1.3,0-0.8-0.7c0.2-0.3,0.6-0.5,0.7-0.8c0.1-0.5-0.3-1-0.6-1S14.2,5.5,14,6c-0.2,1-0.8,0.9-1,0.6
		c-0.5-0.5,1.4-2.2,1.5-3.1c0.3-1.6-1.3-2.8-2.8-2.7c-1,0.1-2.4,1.4-2.3,3.4c0.1,2.5,0.9,3,0.3,3.2C8.9,7.8,8.5,7.7,6.9,6.6
		C6,6,5,6.5,4.8,7.2C4.7,7.8,5,8.4,5.1,8.5c0,0,0,0,0,0C5.2,8.6,5.5,8.7,6,9c0.5,0.3,0.6,1,0.1,1.6c-0.5,0.6-1,0.7-1.8,0.6
		c0,0,0,0,0,0c-3.3-0.2-2.7,3.4,0.3,2.5c0.2-0.1,0.4-0.1,0.5-0.1c0.5,0,1-0.1,1.3,0c0.4,0.1,0.7,0.4,0.8,0.8c0.1,0.5-0.1,1-0.6,1.3
		c-0.1,0.1-0.2,0.2-0.3,0.3c-0.7,1.1,1.1,2.8,2.1,0.7c0.5-1,1.9-0.7,1.5,0.2c-0.6,1.5-0.3,1.9,0.1,2.6c0.8,1.4-0.2,3.8,1.1,3.8
		c1.2,0,1.4-1.8,1.2-3.9c-0.1-0.8,0.4-1.6,0.9-1.9c0.5-0.2,1.1-0.2,1.3,0.2c0,0,0,0,0,0c0.3,0.7,1.1,0.8,1.6,0.6
		c0.3-0.1,0.5-0.3,0.6-0.6c0.2-0.4,0.3-1.1-0.4-1.8c-0.1-0.1-0.3-0.2-0.4-0.3c-1.1-0.6,0.1-1,1.1-0.8c1.1,0.2,1.4,0.9,2,1.4
		C21.1,17.7,23.5,15.1,20.4,14z" />
    </symbol>
    <symbol id="icon-splash-purple">
        <path fill="purple" stroke="#fff" stroke-width="0.25" stroke-miterlimit="10"
            d="M20,10.1c0,0.3,0.3,0.5,0.6,0.6c0.4,0,0.5-0.2,0.6-0.6c0.1-0.4,0-0.6-0.6-0.6C20.3,9.5,20,9.7,20,10.1z" />
        <path fill="purple" stroke="#fff" stroke-width="0.25" stroke-miterlimit="10" d="M18.1,17.3c-0.3,0-0.5,0.3-0.4,0.6c0.1,0.3,0.1,0.5,0.5,0.3c0.2-0.1,0.6,0,0.5-0.2c0,0-0.3-0.2-0.3-0.4
		C18.4,17.5,18.3,17.2,18.1,17.3z" />
        <path fill="purple" stroke="#fff" stroke-width="0.25" stroke-miterlimit="10" d="M17.9,19.4c-0.1,0-0.4-0.4-0.4-0.4c-0.4-0.3-0.8,0-0.7,0.5c0.1,0.2-0.1,0.4-0.1,0.5c0,0-0.6,0.5-0.3,0.6
		c0.2,0.1,0.4-0.1,0.4,0.2c0,0.2,0.7,0.3,0.8,0c0.1-0.3,0.2-0.4,0.6-0.3c0.1,0,0.1-0.3,0.1-0.4c0-0.1,0.3-0.2,0.2-0.3
		C18.4,19.5,18.4,19.3,17.9,19.4z" />
        <path fill="purple" stroke="#fff" stroke-width="0.25" stroke-miterlimit="10"
            d="M6.7,18.7c0.7-0.2,0.9,0.4,0.7,0.7c-0.2,0.5-0.4,0.8-0.7,0.7C5.8,19.9,6,20,6,19.5C6,19.4,6.1,18.9,6.7,18.7z" />
        <path fill="purple" stroke="#fff" stroke-width="0.25" stroke-miterlimit="10"
            d="M3.3,7.5C3.5,7.4,3.9,7.3,3.8,7C3.7,6.8,3.4,6.6,3.3,6.5C3,6.4,2.8,6.7,2.8,7C2.8,7.3,3.1,7.6,3.3,7.5z" />
        <path fill="purple" stroke="#fff" stroke-width="0.25" stroke-miterlimit="10"
            d="M8.1,5.2c0.3-0.1,0.6-0.3,0.7-0.7c0-0.3-0.3-0.6-0.7-0.7C7.6,3.8,7.5,4.2,7.4,4.5C7.3,4.9,7.5,5.4,8.1,5.2z" />
        <path fill="purple" stroke="#fff" stroke-width="0.25" stroke-miterlimit="10"
            d="M5.1,16.9c0.2,0.3,0.2,0.6-0.6,0.6c-0.4,0-0.6-0.2-0.6-0.6c0-0.4,0.2-0.6,0.6-0.6C4.8,16.4,5,16.6,5.1,16.9z" />
        <path fill="purple" stroke="#fff" stroke-width="0.25" stroke-miterlimit="10" d="M20.4,14c-2.1-0.7-2.5-0.5-3.5-1.4c-0.2-0.2-0.2-1,1.1-0.8c0.7,0.1,1.3-0.3,1.5-0.8c0.2-0.5-0.4-1-1.2-1
		c-0.3,0-0.6,0-0.9-0.2c-0.9-0.4-0.7-0.8-0.3-1.1c0,0,0.4-0.3,0.5-0.5c0.5-0.4,1.1-0.7,1.2-0.8c0,0,0,0,0,0c2.9-1.4,1.2-4.1-1.1-1.6
		c-1,1.1-1.5,1.5-2.1,1.9c-0.6,0.3-1.3,0-0.8-0.7c0.2-0.3,0.6-0.5,0.7-0.8c0.1-0.5-0.3-1-0.6-1S14.2,5.5,14,6c-0.2,1-0.8,0.9-1,0.6
		c-0.5-0.5,1.4-2.2,1.5-3.1c0.3-1.6-1.3-2.8-2.8-2.7c-1,0.1-2.4,1.4-2.3,3.4c0.1,2.5,0.9,3,0.3,3.2C8.9,7.8,8.5,7.7,6.9,6.6
		C6,6,5,6.5,4.8,7.2C4.7,7.8,5,8.4,5.1,8.5c0,0,0,0,0,0C5.2,8.6,5.5,8.7,6,9c0.5,0.3,0.6,1,0.1,1.6c-0.5,0.6-1,0.7-1.8,0.6
		c0,0,0,0,0,0c-3.3-0.2-2.7,3.4,0.3,2.5c0.2-0.1,0.4-0.1,0.5-0.1c0.5,0,1-0.1,1.3,0c0.4,0.1,0.7,0.4,0.8,0.8c0.1,0.5-0.1,1-0.6,1.3
		c-0.1,0.1-0.2,0.2-0.3,0.3c-0.7,1.1,1.1,2.8,2.1,0.7c0.5-1,1.9-0.7,1.5,0.2c-0.6,1.5-0.3,1.9,0.1,2.6c0.8,1.4-0.2,3.8,1.1,3.8
		c1.2,0,1.4-1.8,1.2-3.9c-0.1-0.8,0.4-1.6,0.9-1.9c0.5-0.2,1.1-0.2,1.3,0.2c0,0,0,0,0,0c0.3,0.7,1.1,0.8,1.6,0.6
		c0.3-0.1,0.5-0.3,0.6-0.6c0.2-0.4,0.3-1.1-0.4-1.8c-0.1-0.1-0.3-0.2-0.4-0.3c-1.1-0.6,0.1-1,1.1-0.8c1.1,0.2,1.4,0.9,2,1.4
		C21.1,17.7,23.5,15.1,20.4,14z" />
    </symbol>
    <symbol id="icon-splash-orange">
        <path fill="orange" stroke="#fff" stroke-width="0.25" stroke-miterlimit="10"
            d="M20,10.1c0,0.3,0.3,0.5,0.6,0.6c0.4,0,0.5-0.2,0.6-0.6c0.1-0.4,0-0.6-0.6-0.6C20.3,9.5,20,9.7,20,10.1z" />
        <path fill="orange" stroke="#fff" stroke-width="0.25" stroke-miterlimit="10" d="M18.1,17.3c-0.3,0-0.5,0.3-0.4,0.6c0.1,0.3,0.1,0.5,0.5,0.3c0.2-0.1,0.6,0,0.5-0.2c0,0-0.3-0.2-0.3-0.4
		C18.4,17.5,18.3,17.2,18.1,17.3z" />
        <path fill="orange" stroke="#fff" stroke-width="0.25" stroke-miterlimit="10" d="M17.9,19.4c-0.1,0-0.4-0.4-0.4-0.4c-0.4-0.3-0.8,0-0.7,0.5c0.1,0.2-0.1,0.4-0.1,0.5c0,0-0.6,0.5-0.3,0.6
		c0.2,0.1,0.4-0.1,0.4,0.2c0,0.2,0.7,0.3,0.8,0c0.1-0.3,0.2-0.4,0.6-0.3c0.1,0,0.1-0.3,0.1-0.4c0-0.1,0.3-0.2,0.2-0.3
		C18.4,19.5,18.4,19.3,17.9,19.4z" />
        <path fill="orange" stroke="#fff" stroke-width="0.25" stroke-miterlimit="10"
            d="M6.7,18.7c0.7-0.2,0.9,0.4,0.7,0.7c-0.2,0.5-0.4,0.8-0.7,0.7C5.8,19.9,6,20,6,19.5C6,19.4,6.1,18.9,6.7,18.7z" />
        <path fill="orange" stroke="#fff" stroke-width="0.25" stroke-miterlimit="10"
            d="M3.3,7.5C3.5,7.4,3.9,7.3,3.8,7C3.7,6.8,3.4,6.6,3.3,6.5C3,6.4,2.8,6.7,2.8,7C2.8,7.3,3.1,7.6,3.3,7.5z" />
        <path fill="orange" stroke="#fff" stroke-width="0.25" stroke-miterlimit="10"
            d="M8.1,5.2c0.3-0.1,0.6-0.3,0.7-0.7c0-0.3-0.3-0.6-0.7-0.7C7.6,3.8,7.5,4.2,7.4,4.5C7.3,4.9,7.5,5.4,8.1,5.2z" />
        <path fill="orange" stroke="#fff" stroke-width="0.25" stroke-miterlimit="10"
            d="M5.1,16.9c0.2,0.3,0.2,0.6-0.6,0.6c-0.4,0-0.6-0.2-0.6-0.6c0-0.4,0.2-0.6,0.6-0.6C4.8,16.4,5,16.6,5.1,16.9z" />
        <path fill="orange" stroke="#fff" stroke-width="0.25" stroke-miterlimit="10" d="M20.4,14c-2.1-0.7-2.5-0.5-3.5-1.4c-0.2-0.2-0.2-1,1.1-0.8c0.7,0.1,1.3-0.3,1.5-0.8c0.2-0.5-0.4-1-1.2-1
		c-0.3,0-0.6,0-0.9-0.2c-0.9-0.4-0.7-0.8-0.3-1.1c0,0,0.4-0.3,0.5-0.5c0.5-0.4,1.1-0.7,1.2-0.8c0,0,0,0,0,0c2.9-1.4,1.2-4.1-1.1-1.6
		c-1,1.1-1.5,1.5-2.1,1.9c-0.6,0.3-1.3,0-0.8-0.7c0.2-0.3,0.6-0.5,0.7-0.8c0.1-0.5-0.3-1-0.6-1S14.2,5.5,14,6c-0.2,1-0.8,0.9-1,0.6
		c-0.5-0.5,1.4-2.2,1.5-3.1c0.3-1.6-1.3-2.8-2.8-2.7c-1,0.1-2.4,1.4-2.3,3.4c0.1,2.5,0.9,3,0.3,3.2C8.9,7.8,8.5,7.7,6.9,6.6
		C6,6,5,6.5,4.8,7.2C4.7,7.8,5,8.4,5.1,8.5c0,0,0,0,0,0C5.2,8.6,5.5,8.7,6,9c0.5,0.3,0.6,1,0.1,1.6c-0.5,0.6-1,0.7-1.8,0.6
		c0,0,0,0,0,0c-3.3-0.2-2.7,3.4,0.3,2.5c0.2-0.1,0.4-0.1,0.5-0.1c0.5,0,1-0.1,1.3,0c0.4,0.1,0.7,0.4,0.8,0.8c0.1,0.5-0.1,1-0.6,1.3
		c-0.1,0.1-0.2,0.2-0.3,0.3c-0.7,1.1,1.1,2.8,2.1,0.7c0.5-1,1.9-0.7,1.5,0.2c-0.6,1.5-0.3,1.9,0.1,2.6c0.8,1.4-0.2,3.8,1.1,3.8
		c1.2,0,1.4-1.8,1.2-3.9c-0.1-0.8,0.4-1.6,0.9-1.9c0.5-0.2,1.1-0.2,1.3,0.2c0,0,0,0,0,0c0.3,0.7,1.1,0.8,1.6,0.6
		c0.3-0.1,0.5-0.3,0.6-0.6c0.2-0.4,0.3-1.1-0.4-1.8c-0.1-0.1-0.3-0.2-0.4-0.3c-1.1-0.6,0.1-1,1.1-0.8c1.1,0.2,1.4,0.9,2,1.4
		C21.1,17.7,23.5,15.1,20.4,14z" />
    </symbol>

    <!-- Location -->
    <symbol id="icon-location">
        <path fill="none" stroke="currentColor" stroke-linecap="round" stroke-width="1.5"
            d="M20.163 10.314C20.163 16.965 12 21.5 12 21.5s-8.163-4.535-8.163-11.186C3.837 5.722 7.492 2 12 2c4.508 0 8.163 3.722 8.163 8.314z" />
        <circle fill="none" cx="12" cy="10" r="3" stroke="currentColor" stroke-linecap="round" stroke-width="1.5" />
    </symbol>
    <symbol id="icon-location-filled">
        <path fill="currentColor" fill-rule="evenodd"
            d="M11.635 22.155L12 21.5l.364.656-.364.202-.365-.203zm0 0L12 21.5c.364.656.365.655.365.655l.002-.001.006-.003.021-.012.075-.043a21.297 21.297 0 0 0 1.233-.791 23.49 23.49 0 0 0 2.9-2.364c2.09-2.012 4.31-4.994 4.31-8.627 0-4.993-3.977-9.064-8.912-9.064-4.935 0-8.913 4.071-8.913 9.064 0 3.633 2.221 6.615 4.311 8.627a23.49 23.49 0 0 0 3.859 2.99 14.935 14.935 0 0 0 .349.208l.02.012.007.003.002.001zM10.03 10.163a1.97 1.97 0 1 1 3.942 0 1.97 1.97 0 0 1-3.942 0zM12 6.692a3.47 3.47 0 1 0 0 6.942 3.47 3.47 0 0 0 0-6.942z"
            clip-rule="evenodd" />
    </symbol>

    <!-- Settings -->
    <symbol id="icon-sliders">
        <path stroke="currentColor" stroke-width="1.5"
            d="M3 12h2.724M21 12H10.078M3 18h10.849M21 18h-2.826M3 6h7.632M21 6h-6.014" />
        <rect fill="none" width="4" height="4" x="15" y="4" stroke="currentColor" stroke-linecap="round"
            stroke-width="1.5" rx="2" transform="rotate(90 15 4)" />
        <rect fill="none" width="4" height="4" x="18" y="16" stroke="currentColor" stroke-linecap="round"
            stroke-width="1.5" rx="2" transform="rotate(90 18 16)" />
        <rect fill="none" width="4" height="4" x="10" y="10" stroke="currentColor" stroke-linecap="round"
            stroke-width="1.5" rx="2" transform="rotate(90 10 10)" />
    </symbol>
    <symbol id="icon-settings">
        <path fill="none" stroke="currentColor" stroke-linecap="round" stroke-width="1.5"
            d="M19.542 8.876a2.085 2.085 0 0 1 .122-1.797c.293-.527.487-1.229.092-1.684a10.252 10.252 0 0 0-1.243-1.214c-.438-.358-1.07-.174-1.544.133a2.152 2.152 0 0 1-1.876.22 2.06 2.06 0 0 1-1.183-1.359c-.16-.591-.51-1.246-1.121-1.292-.53-.04-1.06-.046-1.58-.018-.609.032-.97.669-1.131 1.257a2.017 2.017 0 0 1-1.202 1.336 2.085 2.085 0 0 1-1.797-.122c-.527-.293-1.229-.487-1.684-.092-.447.388-.855.804-1.214 1.243-.358.438-.17 1.068.13 1.547.33.526.402 1.186.09 1.818a1.828 1.828 0 0 1-1.35 1.223c-.55.126-1.13.439-1.185 1.001a10.254 10.254 0 0 0-.02 1.738c.042.601.673.95 1.256 1.103.582.152 1.09.566 1.356 1.207a2.016 2.016 0 0 1-.105 1.813c-.305.52-.504 1.213-.109 1.668.388.447.804.855 1.243 1.215.438.357 1.07.173 1.544-.134a2.152 2.152 0 0 1 1.876-.22c.582.241 1.02.756 1.183 1.359.16.591.51 1.246 1.121 1.292.53.04 1.06.046 1.58.018.609-.032.97-.669 1.131-1.257a2.016 2.016 0 0 1 1.202-1.336 2.085 2.085 0 0 1 1.798.122c.526.293 1.228.487 1.683.092.447-.388.855-.804 1.215-1.243.357-.438.173-1.07-.134-1.544a2.152 2.152 0 0 1-.22-1.876 2.058 2.058 0 0 1 1.359-1.183c.591-.16 1.246-.51 1.292-1.121.04-.53.046-1.06.018-1.58-.032-.609-.671-.981-1.256-1.154a2.084 2.084 0 0 1-1.337-1.179z" />
        <circle fill="none" cx="12" cy="12" r="4" stroke="currentColor" stroke-width="1.5" />
    </symbol>
    <symbol id="icon-settings-filled">
        <path fill="currentColor" fill-rule="evenodd"
            d="M7.679 4.07a3.163 3.163 0 0 0-1.11-.375c-.42-.05-.932.012-1.356.382-.443.385-.85.8-1.212 1.24-.34.414-.394.9-.336 1.304.057.394.224.76.4 1.046.182.299.219.655.042 1.011l-.021.044-.016.046a1.012 1.012 0 0 1-.746.685 2.827 2.827 0 0 0-1.021.457c-.328.245-.632.626-.684 1.16a10.424 10.424 0 0 0-.021 1.733c.039.563.358.967.695 1.227.33.255.722.412 1.06.505.329.09.626.327.79.72.162.393.119.77-.05 1.068-.173.303-.34.692-.393 1.105-.054.422.006.934.377 1.36.385.442.8.848 1.24 1.211.413.34.898.396 1.304.337a2.754 2.754 0 0 0 1.052-.408 1.319 1.319 0 0 1 1.124-.133c.322.141.577.437.676.788.095.336.253.733.508 1.068.258.34.664.673 1.236.715.521.04 1.04.044 1.55.018.57-.029.983-.347 1.25-.683.26-.33.424-.725.521-1.065.093-.325.328-.617.717-.778a1.256 1.256 0 0 1 1.066.072c.306.166.696.326 1.11.375.42.05.932-.012 1.356-.382.443-.385.85-.8 1.212-1.24.34-.413.395-.898.337-1.304a2.753 2.753 0 0 0-.408-1.052 1.319 1.319 0 0 1-.133-1.124c.141-.322.437-.577.788-.676a3.253 3.253 0 0 0 1.068-.508c.34-.258.673-.664.715-1.236.04-.521.044-1.04.018-1.55-.029-.57-.346-.983-.678-1.251a3.185 3.185 0 0 0-1.055-.538 1.255 1.255 0 0 1-.793-.699 1.256 1.256 0 0 1 .072-1.066c.166-.306.326-.696.375-1.11.05-.42-.012-.932-.382-1.356-.385-.443-.8-.85-1.24-1.212-.413-.34-.898-.395-1.304-.337a2.754 2.754 0 0 0-1.052.408 1.32 1.32 0 0 1-1.124.133 1.234 1.234 0 0 1-.676-.788 3.253 3.253 0 0 0-.508-1.068c-.258-.34-.664-.673-1.236-.715-.521-.04-1.04-.044-1.55-.018-.57.029-.983.347-1.25.683a3.13 3.13 0 0 0-.521 1.065 1.193 1.193 0 0 1-.717.778A1.257 1.257 0 0 1 7.68 4.07zm1.318 9.174a3.25 3.25 0 1 1 6.006-2.488 3.25 3.25 0 0 1-6.006 2.488zm1.185-5.632a4.75 4.75 0 1 0 3.636 8.776 4.75 4.75 0 0 0-3.636-8.776z"
            clip-rule="evenodd" />
    </symbol>

    <!-- Logo's -->
    <symbol id="icon-twitter">
        <path fill="currentColor"
            d="M8.216 20c7.458 0 11.537-6.156 11.537-11.495 0-.175 0-.349-.011-.522a8.233 8.233 0 0 0 2.023-2.091c-.74.327-1.526.54-2.33.635a4.057 4.057 0 0 0 1.783-2.234 8.145 8.145 0 0 1-2.575.98 4.07 4.07 0 0 0-4.872-.794 4.038 4.038 0 0 0-2.038 4.48 11.527 11.527 0 0 1-8.357-4.222A4.034 4.034 0 0 0 4.63 10.13a4.036 4.036 0 0 1-1.84-.506v.052a4.045 4.045 0 0 0 3.253 3.96 4.063 4.063 0 0 1-1.831.07A4.058 4.058 0 0 0 8 16.51a8.156 8.156 0 0 1-6 1.675 11.51 11.51 0 0 0 6.216 1.812" />
    </symbol>
    <symbol id="icon-github">
        <path fill="currentColor"
            d="M12,2A10,10 0 0,0 2,12C2,16.42 4.87,20.17 8.84,21.5C9.34,21.58 9.5,21.27 9.5,21C9.5,20.77 9.5,20.14 9.5,19.31C6.73,19.91 6.14,17.97 6.14,17.97C5.68,16.81 5.03,16.5 5.03,16.5C4.12,15.88 5.1,15.9 5.1,15.9C6.1,15.97 6.63,16.93 6.63,16.93C7.5,18.45 8.97,18 9.54,17.76C9.63,17.11 9.89,16.67 10.17,16.42C7.95,16.17 5.62,15.31 5.62,11.5C5.62,10.39 6,9.5 6.65,8.79C6.55,8.54 6.2,7.5 6.75,6.15C6.75,6.15 7.59,5.88 9.5,7.17C10.29,6.95 11.15,6.84 12,6.84C12.85,6.84 13.71,6.95 14.5,7.17C16.41,5.88 17.25,6.15 17.25,6.15C17.8,7.5 17.45,8.54 17.35,8.79C18,9.5 18.38,10.39 18.38,11.5C18.38,15.32 16.04,16.16 13.81,16.41C14.17,16.72 14.5,17.33 14.5,18.26C14.5,19.6 14.5,20.68 14.5,21C14.5,21.27 14.66,21.59 15.17,21.5C19.14,20.16 22,16.42 22,12A10,10 0 0,0 12,2Z" />
    </symbol>
    <symbol id="icon-steam">
        <path fill="currentColor"
            d="M12,2A10,10 0 0,1 22,12A10,10 0 0,1 12,22C7.4,22 3.55,18.92 2.36,14.73L6.19,16.31C6.45,17.6 7.6,18.58 8.97,18.58C10.53,18.58 11.8,17.31 11.8,15.75V15.62L15.2,13.19H15.28C17.36,13.19 19.05,11.5 19.05,9.42C19.05,7.34 17.36,5.65 15.28,5.65C13.2,5.65 11.5,7.34 11.5,9.42V9.47L9.13,12.93L8.97,12.92C8.38,12.92 7.83,13.1 7.38,13.41L2,11.2C2.43,6.05 6.73,2 12,2M8.28,17.17C9.08,17.5 10,17.13 10.33,16.33C10.66,15.53 10.28,14.62 9.5,14.29L8.22,13.76C8.71,13.58 9.26,13.57 9.78,13.79C10.31,14 10.72,14.41 10.93,14.94C11.15,15.46 11.15,16.04 10.93,16.56C10.5,17.64 9.23,18.16 8.15,17.71C7.65,17.5 7.27,17.12 7.06,16.67L8.28,17.17M17.8,9.42C17.8,10.81 16.67,11.94 15.28,11.94C13.9,11.94 12.77,10.81 12.77,9.42A2.5,2.5 0 0,1 15.28,6.91C16.67,6.91 17.8,8.04 17.8,9.42M13.4,9.42C13.4,10.46 14.24,11.31 15.29,11.31C16.33,11.31 17.17,10.46 17.17,9.42C17.17,8.38 16.33,7.53 15.29,7.53C14.24,7.53 13.4,8.38 13.4,9.42Z" />
    </symbol>
    <symbol id="icon-epic">
        <path
            d="M4.2443,1c-1.26,0-1.7221.4654-1.7221,1.7221V17.9034c0,.1437.0076.2757.0186.3981a1.3294,1.3294,0,0,0,.2894.8449,3.4762,3.4762,0,0,0,.2833.2255c.1395.068.2358.1182.3932.1822l7.6412,3.2008a1.6978,1.6978,0,0,0,.849.244H12a1.6927,1.6927,0,0,0,.8525-.244L20.49,19.5541c.1615-.064.2537-.1149.3966-.1822,0,0,.2585-.1973.2833-.2255a1.3213,1.3213,0,0,0,.2894-.8449c.011-.1217.0186-.2537.0186-.3939V2.7228c0-1.2567-.4654-1.7221-1.7221-1.7221ZM16.4868,3.85h.6221A1.3643,1.3643,0,0,1,18.6564,5.408V7.13h-1.26V5.4754c0-.3362-.154-.49-.4806-.49h-.2145a.426.426,0,0,0-.49.49v5.3272a.426.426,0,0,0,.49.49h.24c.3217,0,.4757-.154.4757-.49V8.8976h1.26v1.9662A1.3759,1.3759,0,0,1,17.12,12.4285h-.6331a1.3769,1.3769,0,0,1-1.5585-1.5647V5.417a1.3777,1.3777,0,0,1,1.5585-1.5681ZM5.3147,3.9224H8.1684V5.0932H6.5962V7.4773H8.1113v1.168H6.5962v2.5416H8.19v1.1714H5.3147Zm3.4979,0h2.0129A1.3782,1.3782,0,0,1,12.3826,5.49V7.7317a1.3765,1.3765,0,0,1-1.5571,1.5647h-.7267v3.0612H8.8126Zm4.15,0h1.2814v8.4359H12.9628ZM10.0947,5.0567V8.1641h.53c.3224,0,.4764-.1567.4764-.4943V5.55c0-.3361-.154-.4942-.4764-.4942ZM6.56,14.3623h.19l.0433.0076h.0687l.0358.011h.0357l.0323.01.0358.0075.0282.0076.0639.0144.0364.01.0248.0076.0282.011.0357.011.0248.01.0364.0145.0323.0144.0282.0172.0323.0144.0248.0172.0364.0186.0282.0171.0282.0145.0281.0213.03.0186.0248.0213.0859.0653-.022.0282-.0248.0247-.022.0255-.0247.0281-.0172.0248-.022.0254-.0247.0248-.022.0282-.0172.0247-.0255.03-.0213.0247-.0247.0282-.022.0254-.0172.0282-.0254.0248-.0214.03-.0247.0248-.022.0247-.0247-.0172-.0282-.0254-.03-.0172-.0529-.0357-.0323-.0186-.03-.0172L7.0286,15.05l-.0248-.0145-.0281-.0137L6.9179,15l-.0357-.0062-.0282-.0076-.0323-.0075-.0365-.0076L6.75,14.9673H6.7137L6.6718,14.96H6.603l-.0357.0034H6.5315l-.0357.011-.0282.0076-.0323.011-.0323.0062-.03.0144-.0357.0145-.05.0357-.03.0172-.0247.022-.0248.0172-.0254.022-.0172.0247-.03.0248-.0357.05L6.084,15.27l-.0144.0323-.0172.0254-.0186.0323-.011.0323-.0137.0282-.011.0358-.0035.0357-.01.033-.0075.0358v.0357l-.0035.0358v.0824l.0035.0358v.0282l.0034.0357.0062.0323.011.0282.0034.0365.011.0281.01.0248L6.0366,16l.0185.0358.0138.0254.0357.0571.022.0282.0172.0254.03.0213.0172.0248.0247.022.0578.0433.0247.0137.0282.0186.033.0144.0357.0138.0248.0144.0715.0213.0323.0035.0357.011.0358.0034h.154l.0433-.0034h.0323l.0364-.0145.0358-.0034.0357-.01.0282-.0076.0323-.0144L7.021,16.33l.0323-.0144.022-.0144.0282-.0172v-.319H6.5982v-.5115H7.74v1.146l-.0247.0172-.0248.0213-.0254.0186-.0282.0213-.0282.0144-.0247.022-.0578.0358-.0357.0172-.0571.0357-.0364.0144-.0282.0138-.0323.0144-.0715.0282-.0282.0145-.0653.0213-.0323.0075-.0323.011-.0358.011-.0282.0062-.1072.022-.033.0035-.0715.0075-.0392.0035-.0358.0027-.0391.0034H6.5384l-.0357-.0061H6.4669l-.0357-.0076H6.3989l-.0358-.011-.1045-.0213-.0282-.011-.0323-.0035-.0357-.0144-.0653-.0213-.064-.0282-.0357-.0144-.0248-.0145-.0357-.0137-.0255-.022-.0357-.0138-.0213-.0185-.0282-.0172-.0577-.0433L5.74,16.6873l-.022-.0213L5.69,16.644l-.0468-.0461-.0247-.022-.0213-.0247-.0255-.0254-.0171-.0282-.022-.0213-.0172-.03-.022-.0282-.0172-.0247-.0186-.0282-.0172-.033-.0144-.0282-.0144-.0323-.0138-.0282L5.37,16.1786l-.011-.0248-.0144-.0323-.0076-.0323-.0062-.0282-.0075-.0357-.011-.033-.0076-.0358-.0034-.0282-.0062-.0357-.0076-.0639L5.28,15.7572v-.19l.0075-.0364v-.0358l.011-.0357v-.0358l.01-.0323.011-.0357.0145-.0639.01-.0358.011-.0323.0433-.0969.0137-.0282.0145-.0323.0185-.033.0138-.0282.0186-.0248.0357-.0577.0213-.0282.022-.0248.0172-.0281.0468-.0468.0213-.0254.0254-.0248.0213-.0247.03-.022.05-.0433.0282-.0213.0295-.0186.0248-.0213.0282-.0186.03-.0137.0323-.0186.0358-.0172.0247-.0185.0358-.0138.0323-.0144.0323-.0172.03-.0076.0357-.011.0282-.0144.0323-.0062.0323-.011.0358-.0076.03-.011L6.36,14.385h.0357l.0323-.01h.0358L6.5,14.3671h.0323ZM17.55,14.37h.19l.0433.0075h.0681l.0357.01h.0392l.0358.011.0639.0145.0358.0075.0323.0062.0364.011.0323.011.0282.0076.0323.01.0358.011.0281.0144.0358.0138.033.0144.0323.0186.0248.0137.0323.0186.0323.0137.0295.0186.0323.0213.0248.0186.0577.0433.0282.0172-.022.0282-.0172.0295-.0213.0248-.022.0282-.0172.0323-.0185.03-.0213.0248-.022.0282-.0172.0295-.022.0282-.0172.0248-.022.0281-.0172.033-.022.0282-.0213.0248-.022.0282-.0172.03-.0282-.022-.033-.0172-.0247-.0185-.0282-.0172-.0323-.0144-.03-.0186-.0323-.0138-.0247-.0144-.0358-.0137-.0254-.0145-.0282-.011-.0639-.0213-.0715-.022-.1073-.0213-.0357-.0034-.0653-.0076h-.075l-.0392.0076-.0357.0075-.0323.0076-.0282.0137-.0254.0145-.0282.0247-.0213.0323-.0145.033v.0853l.0186.0392.0137.022.022.0213.0358.0185.0282.0172.0323.0145.0357.0137.0468.011.0247.011.03.0076.0357.0075.0282.01.0323.0076.0392.011.0358.011.0392.01.0391.0076.0324.011.0391.01.0358.0075.0323.0076.1079.0323.0282.011.0358.011.0323.0138.0357.0185.0715.0282.0323.0186.0578.0357.0529.0392.033.0213.0248.0248.0247.03.0254.0248L18.6,15.77l.0255.0358.0172.0254.0144.0358.0137.0213.011.0357.011.03.0076.0323.0138.0715.0034.0357.0034.0324v.0859l-.0034.0392-.0076.0715-.0075.0357-.01.0323-.0076.0358-.011.0357-.01.0323-.0145.0255-.0144.0323-.0172.0282-.022.0254-.0357.0571-.0433.05-.0248.0171-.0282.0255-.022.0213-.0282.0213-.0281.0144-.0282.022-.033.0172-.064.0323-.0357.0145-.0323.0137-.0358.011-.0323.011-.0295.0076-.0715.0137-.0248.0076-.0357.0076h-.0358l-.0323.0075h-.0357l-.0358.0076h-.255l-.1073-.011-.0357-.0076-.0323-.0034-.0715-.0138-.0392-.0075-.0323-.0076-.0358-.011-.0364-.0076-.0323-.01-.0358-.011-.0357-.0144-.0282-.01-.0358-.011-.0357-.0145-.0255-.0137-.0357-.011-.0282-.0186-.0357-.0137-.0282-.0186-.0255-.0172-.0357-.0185-.0248-.0138-.0281-.022-.0282-.0172-.03-.022-.0247-.0213-.0282-.022-.0255-.0172-.0281-.0254.022-.0282.0247-.0247.0213-.0255.0255-.0281.0171-.0248.022-.0282.0248-.0254.0213-.0248.0254-.0282.0172-.0254.0255-.0247.0213-.0282.022-.0255.0247-.0281.0172-.0248.0254-.0254.0248-.0282.0247.022.033.0213.0248.0213.0357.0186.0248.0185.0323.0213.0295.0186.0324.0138.0247.0185.0323.01.0358.0145.0295.0144.0323.01.0282.0144.0358.011.0323.01.0357.011.0358.0034.033.011.0357.0034h.0392l.0323.01h.1932l.0323-.0061.0358-.0076.0247-.0034.03-.011.0247-.0138.0323-.022.0186-.0247.0137-.0282.011-.033V16.19l-.0144-.0323-.0172-.0282-.022-.0213-.0323-.022-.0247-.01-.0323-.0145-.0358-.0144-.0392-.0172-.0254-.0076-.0282-.0075-.0358-.011-.0247-.0062-.0357-.011-.0358-.0035L17.6,15.9689l-.0358-.0034-.0392-.01-.0323-.0076-.0357-.011-.0358-.0076-.0357-.01-.0323-.011L17.3172,15.9l-.0282-.011-.0653-.0213-.0357-.0145-.0358-.01-.0715-.03-.0323-.0171-.0357-.0186-.0248-.0172-.033-.0186-.0247-.0171-.0323-.0186-.0468-.0467-.0247-.0214-.0433-.05-.0186-.0248-.0138-.0247-.022-.033-.01-.0248-.033-.0859-.0062-.0358-.0075-.0323v-.0323l-.0076-.0357v-.1465l.0076-.0715.0075-.03.0062-.0323.011-.0282.0076-.0358.0144-.0247.0138-.0365.0144-.0281L16.76,14.79l.0185-.0247.0248-.0282.0185-.03.0282-.0247.0213-.0248.022-.03.0324-.0248.0219-.0186.0282-.0213.0571-.0357.0323-.0186.0653-.0323.0282-.01.0323-.011.0358-.0144.0357-.01.0254-.0076.0324-.0076.0281-.0075.0324-.0076.0357-.0076.0715-.0061.033-.0035Zm-8.4682.0247H9.73l.03.0653.0138.0282.011.0358.0144.0323.01.0282.0186.0323.0213.0653.0185.0323.0282.0639.0076.0282.057.1292.011.0324.0145.03.0172.0323.0075.0323.0186.0358.0062.0323.033.0639.0137.0255.0145.0357.011.0358.01.0247.0185.0358.011.03.0138.0358.011.0247.0144.0358.0323.0639.01.0323.0076.033.0144.0323.0172.0282.0145.0358.0144.0323.01.0282.03.0653.01.0323.0144.0323.011.0323.0138.0282.0185.033.0138.0323.0144.0282.0076.0357.0282.064.0144.03.01.0323.03.064.0172.0357.0075.0282.0186.0364.0062.0248.0144.0357.0186.0358.0137.0247.011.0358.0145.03.01.0357.0185.0247.0213.0715.0145.0255.0137.0357.0186.0282.0144.0358.0062.0323.011.0282.0145.0323.0171.0295h-.7156l-.0172-.0295-.011-.0323-.0144-.0323-.0138-.0358-.0075-.0282-.03-.0639-.01-.03-.0282-.0639-.011-.0282L9.9318,16.56,9.91,16.4941,9.896,16.466H8.9006l-.0138.0323-.011.0295-.0144.0358-.0138.0323-.0075.0282-.0145.0357-.0137.0282-.011.0323-.0145.03-.0137.0357-.011.0248-.0144.0357-.01.0358-.0144.0254-.011.0358H8.0027l.01-.033.03-.064.01-.0357.011-.0282.0186-.0323.0137-.0323.0145-.03.0075-.0323L8.132,16.62l.0185-.0281.0138-.0323.022-.0654.0323-.0639.011-.0323.0137-.0282.011-.033.0433-.0962.0145-.0358.01-.0282.011-.0323.0186-.03.0137-.0358.011-.0323.011-.0282.0138-.0357.0185-.0255.011-.0357.0138-.0282.011-.0323.0144-.0358.0172-.0282.011-.0357.0137-.0254.011-.0358.0145-.0357.0137-.0248.0145-.0357.011-.03.0137-.0357.011-.0248.0186-.0357.0137-.0358.0145-.0282.0075-.0323.0138-.033.0185-.0323.0138-.0282.0075-.0357.0145-.0323.0144-.03.0282-.0639.01-.0282.03-.0715.0137-.0255.0145-.0357.011-.0282.01-.0357L8.87,14.87l.0186-.0281.0137-.0358.011-.0254.011-.0358.0138-.0282.0185-.0323.011-.0357.01-.03.0145-.0357.0137-.0248.0186-.0357.011-.0358.01-.0247.0144-.0358Zm2.0129.0186h.7087l.022.0282.0358.0577.0172.0323.0185.0248.0172.0323.0186.0282.0172.033.0185.0281.0172.0248.0186.0323.0172.03.0254.0282.01.0281.022.0324.0172.03.022.0248.0144.0323.0172.0282.022.03.01.0282.0255.0323.0529.086.0144.0281.0214.0282.0185.0282.0172.033.0543.0853.0172.033.0186.0281.0213-.0281.0144-.0365.0213-.0247.0186-.0323.0172-.0248.0144-.0357.0248-.0255.0185-.0323.0145-.0247.0171-.03.022-.0323.0172-.0248.0186-.0357.0172-.0248.022-.0329.0137-.0248.0186-.0357.0172-.0214.0185-.0295.0213-.0358.0186-.0247.0138-.0323.022-.0255.0171-.0357.0186-.0213.0213-.0282.0186-.0358.0172-.0254.0185-.0323.0172-.0248.0186-.0357.0213-.0254.0144-.0324.0186-.0247h.72v2.5567H13.092V15.4643l-.0171.0254-.022.0358-.0172.0213-.022.0282L13,15.6107l-.022.0255-.0172.0247-.022.0358-.0357.05-.0213.0281-.0186.0358-.0213.0254-.0186.0248-.0137.0357-.022.0248-.0172.0254-.022.0358-.0172.0247-.022.0282-.0172.0323-.0144.0254-.0213.0282-.0186.0323-.0213.0248-.022.03-.0137.0281-.0186.0324-.0213.0254-.022.0282-.0138.0357-.0254.0213-.0137.0282-.022.0365-.0172.0247h-.0145l-.0213-.0323-.0185-.03-.0172-.0323-.0186-.0247-.0213-.0323-.0186-.0282-.0213-.03-.0185-.0282-.0172-.0323-.0186-.0247-.0247-.033-.0145-.0282-.0213-.0323-.0185-.0248-.0172-.0323-.022-.03-.0172-.0358-.022-.0247-.0172-.0324-.0186-.03-.0171-.0323-.022-.0248-.0172-.0323-.022-.0282-.0138-.03-.022-.0282-.0172-.0323-.022-.0248-.0171-.033-.022-.0282-.0138-.0323-.0254-.0247-.0138-.033L11.76,15.46v1.5076h-.662V14.4359Zm3.1788,0H16.29V14.99H14.9427v.4118h1.21v.5444h-1.21v.4366h1.3639v.58h-2.03V14.4352Zm-4.8769.7837-.011.0323-.01.03-.0144.0357-.0145.0323-.01.0323-.0295.064-.0138.0357-.011.03-.011.0357-.0137.0248-.011.0357-.0145.0358-.0137.0254-.011.0357-.0138.0282-.011.0358-.0185.0323-.0076.0282-.0137.0357-.0145.033-.011.0282-.0137.0358h.59L9.68,15.9029l-.011-.0323L9.64,15.8053l-.011-.0323-.0145-.0282-.01-.0358L9.59,15.6767l-.011-.0323-.0138-.0295-.011-.0323L9.54,15.5468l-.01-.0282-.03-.0639-.0062-.033-.0144-.0323-.0144-.0358-.01-.0247-.03-.0715-.01-.0323ZM8.3444,19.9844h7.3428L11.9392,21.22Z" />
    </symbol>
    <symbol id="icon-xbox">
        <path
            d="M12,4.2553a12.7017,12.7017,0,0,0-4.74-1.647l-.0674-.0074c-.0513-.0036-.1113-.0058-.1714-.0058a2.5092,2.5092,0,0,0-1.2355.323l.0125-.0066A10.8216,10.8216,0,0,1,11.9685,1h.0447a10.9267,10.9267,0,0,1,6.2257,1.9349l-.0366-.0242a2.4655,2.4655,0,0,0-1.2171-.3171q-.0935,0-.1846.0066L16.8087,2.6A12.9056,12.9056,0,0,0,11.94,4.2817l.06-.033ZM4.35,4.14a.3434.3434,0,0,0-.0806.04l.0015-.0007a10.9947,10.9947,0,0,0-.8151,14.75L3.44,18.9091C2.1549,16.5208,6.72,9.7876,9.0127,7.0749,6.4275,4.4963,5.1481,4.1,4.6076,4.1l-.0234-.0008a.6608.6608,0,0,0-.2388.044L4.35,4.1418ZM14.99,7.0749c2.2916,2.7141,6.86,9.4533,5.57,11.8356A10.9929,10.9929,0,0,0,19.7286,4.18l-.0015-.0015a.29.29,0,0,0-.0732-.038L19.6517,4.14a.7367.7367,0,0,0-.2461-.041h-.011c-.5427,0-1.82.3977-4.4044,2.9756ZM4.76,20.28a11.0009,11.0009,0,0,0,14.4956-.01l-.0125.011c1.72-1.7526-3.9562-7.9835-7.243-10.4654-3.2832,2.4827-8.964,8.7128-7.24,10.4654Z" />
    </symbol>
    <symbol id="icon-playstation">
        <path
            d="M14.19,7.1012a4.6116,4.6116,0,0,1,.0488.679c0,.0771-.0021.1542-.0056.2306L14.2337,8c0,1.6579-.005,3.3158.0042,4.9738a3.6655,3.6655,0,0,0,1.5879.4031h.005c.0155.0007.0339.0007.0523.0007a2.136,2.136,0,0,0,1.0178-.256l-.0113.0056a2.2039,2.2039,0,0,0,.8084-.7752l.0057-.01a3.4272,3.4272,0,0,0,.4357-1.1861l.0028-.0205a6.5479,6.5479,0,0,0,.0884-1.0907c0-.1351-.0042-.27-.012-.4032l.0007.0184A5.6414,5.6414,0,0,0,17.73,7.4174l.0141.036a3.6125,3.6125,0,0,0-.7264-1.0206l-.0007-.0007a4.7561,4.7561,0,0,0-.9181-.7073l-.0219-.012A11.26,11.26,0,0,0,13.7414,4.72l-.0821-.0212q-.7956-.2547-1.6-.488c-.9358-.2653-1.8758-.52-2.8327-.6982V19.351l3.5825,1.1367q.0042-6.6586,0-13.3165c-.0008-.0127-.0008-.0276-.0008-.0424a1.187,1.187,0,0,1,.2151-.684l-.0029.0036a.441.441,0,0,1,.3466-.17.3986.3986,0,0,1,.0778.0071l-.0028-.0007a.9178.9178,0,0,1,.4307.2023l-.0014-.0014a1.0484,1.0484,0,0,1,.3155.6068l.0007.0057ZM4.835,16.4886c1.2293-.4393,2.4579-.8835,3.6893-1.32.005-.0537.0071-.1167.0071-.18,0-.0241-.0007-.0488-.0014-.0729V13.085c-1.5575.55-3.1122,1.1055-4.67,1.6565-.38.1386-.7653.2617-1.1373.42a6.8362,6.8362,0,0,0-1.27.6669l.0247-.0155a1.1551,1.1551,0,0,0-.4024.4378l-.0028.0064A.7554.7554,0,0,0,1,16.5833a.7714.7714,0,0,0,.0516.278L1.05,16.8564a1.3338,1.3338,0,0,0,.4414.5552l.0035.0028a3.46,3.46,0,0,0,1.1409.5347l.0247.0057a11.4409,11.4409,0,0,0,3.6688.5906c.0828,0,.1655-.0007.2483-.0028h-.012a12.2559,12.2559,0,0,0,2.0342-.2179l-.0764.012c.01-.1032.0042-.2072.0056-.3105V16.4744c-.5262.1882-1.0517.38-1.5772.57a3.6755,3.6755,0,0,1-.5921.1839l-.0261.0049a4.6823,4.6823,0,0,1-.9556.0984H5.3542a2.5488,2.5488,0,0,1-.8474-.1443l.0177.0056a.4275.4275,0,0,1-.2433-.1994L4.28,16.9914a.2207.2207,0,0,1-.0078-.0594.2335.2335,0,0,1,.0849-.18h.0007a1.3039,1.3039,0,0,1,.4668-.2631l.0092-.0029ZM22.6478,15.3a3.27,3.27,0,0,0-1.0674-.5878l-.0233-.0064c-.2186-.0693-.4308-.1556-.6493-.222a11.4449,11.4449,0,0,0-3.3852-.5008H17.45c-.3551.0127-.71.0226-1.0631.0636a13.3122,13.3122,0,0,0-2.9905.6691l.0934-.0282v2.15c1.2936-.4527,2.5845-.91,3.8774-1.3637a4.18,4.18,0,0,1,1.3043-.2037h.0347l.0424-.0007a2.4946,2.4946,0,0,1,.8318.1421l-.0177-.0056a.4315.4315,0,0,1,.2426.1952l.0014.0021a.2727.2727,0,0,1,.0057.0559.2693.2693,0,0,1-.1316.2313l-.0014.0007a2.4526,2.4526,0,0,1-.7.32l-.0177.0042q-2.7231.9718-5.4455,1.9416c-.0382.0071-.0234.0537-.0269.0806v2.0045q3.5789-1.2865,7.1586-2.571a10.52,10.52,0,0,0,1.2293-.4845l-.0651.0276a3.2013,3.2013,0,0,0,.9613-.6784l.0007-.0007A.8243.8243,0,0,0,23,15.9673V15.96a.9469.9469,0,0,0-.3515-.6571l-.0022-.0014Z" />
    </symbol>
    <symbol id="icon-youtube">
        <path fill="currentColor"
            d="M10,15L15.19,12L10,9V15M21.56,7.17C21.69,7.64 21.78,8.27 21.84,9.07C21.91,9.87 21.94,10.56 21.94,11.16L22,12C22,14.19 21.84,15.8 21.56,16.83C21.31,17.73 20.73,18.31 19.83,18.56C19.36,18.69 18.5,18.78 17.18,18.84C15.88,18.91 14.69,18.94 13.59,18.94L12,19C7.81,19 5.2,18.84 4.17,18.56C3.27,18.31 2.69,17.73 2.44,16.83C2.31,16.36 2.22,15.73 2.16,14.93C2.09,14.13 2.06,13.44 2.06,12.84L2,12C2,9.81 2.16,8.2 2.44,7.17C2.69,6.27 3.27,5.69 4.17,5.44C4.64,5.31 5.5,5.22 6.82,5.16C8.12,5.09 9.31,5.06 10.41,5.06L12,5C16.19,5 18.8,5.16 19.83,5.44C20.73,5.69 21.31,6.27 21.56,7.17Z" />
    </symbol>
    <symbol id="icon-phone">
        <path fill="currentColor"
            d="M20.9995 19.1864V16.4767C21.0105 16.0337 20.858 15.6021 20.5709 15.264C19.7615 14.3106 16.9855 13.7008 15.8851 13.935C15.0274 14.1176 14.4272 14.9788 13.8405 15.5644C11.5747 14.2785 9.69864 12.4062 8.41026 10.1448C8.99696 9.55929 9.85994 8.96036 10.0429 8.10428C10.2772 7.00777 9.66819 4.24949 8.72138 3.43684C8.38835 3.151 7.96253 2.99577 7.52331 3.00009H4.80817C3.77364 3.00106 2.91294 3.92895 3.00713 4.96919C3.00006 13.935 10.0001 21 19.0265 20.9929C20.0723 21.0873 21.0037 20.2223 20.9995 19.1864Z" />
    </symbol>
    <symbol id="icon-discord">
        <path fill="currentColor"
            d="M18.59 5.88997C17.36 5.31997 16.05 4.89997 14.67 4.65997C14.5 4.95997 14.3 5.36997 14.17 5.69997C12.71 5.47997 11.26 5.47997 9.83001 5.69997C9.69001 5.36997 9.49001 4.95997 9.32001 4.65997C7.94001 4.89997 6.63001 5.31997 5.40001 5.88997C2.92001 9.62997 2.25001 13.28 2.58001 16.87C4.23001 18.1 5.82001 18.84 7.39001 19.33C7.78001 18.8 8.12001 18.23 8.42001 17.64C7.85001 17.43 7.31001 17.16 6.80001 16.85C6.94001 16.75 7.07001 16.64 7.20001 16.54C10.33 18 13.72 18 16.81 16.54C16.94 16.65 17.07 16.75 17.21 16.85C16.7 17.16 16.15 17.42 15.59 17.64C15.89 18.23 16.23 18.8 16.62 19.33C18.19 18.84 19.79 18.1 21.43 16.87C21.82 12.7 20.76 9.08997 18.61 5.88997H18.59ZM8.84001 14.67C7.90001 14.67 7.13001 13.8 7.13001 12.73C7.13001 11.66 7.88001 10.79 8.84001 10.79C9.80001 10.79 10.56 11.66 10.55 12.73C10.55 13.79 9.80001 14.67 8.84001 14.67ZM15.15 14.67C14.21 14.67 13.44 13.8 13.44 12.73C13.44 11.66 14.19 10.79 15.15 10.79C16.11 10.79 16.87 11.66 16.86 12.73C16.86 13.79 16.11 14.67 15.15 14.67Z" />
    </symbol>
    <symbol id="icon-mail">
        <path fill="currentColor"
            d="M20,8L12,13L4,8V6L12,11L20,6M20,4H4C2.89,4 2,4.89 2,6V18A2,2 0 0,0 4,20H20A2,2 0 0,0 22,18V6C22,4.89 21.1,4 20,4Z" />
    </symbol>
    <symbol id="icon-copyright">
        <path fill="currentColor"
            d="M10.08 10.86C10.13 10.53 10.24 10.24 10.38 10C10.68 9.44 11.19 9.15 11.88 9.14C12.33 9.14 12.74 9.34 13.03 9.63C13.31 9.94 13.5 10.37 13.5 10.8H15.3C15.28 10.33 15.19 9.9 15 9.5C14.85 9.12 14.62 8.78 14.32 8.5C12.87 7.16 10.18 7.35 8.95 8.87C7.66 10.54 7.63 13.46 8.94 15.13C10.15 16.62 12.8 16.83 14.24 15.5C14.55 15.25 14.8 14.94 15 14.58C15.16 14.22 15.27 13.84 15.28 13.43H13.5C13.5 13.64 13.43 13.83 13.34 14C13.25 14.19 13.13 14.34 13 14.47C12.67 14.73 12.28 14.87 11.86 14.87C11.5 14.86 11.2 14.79 10.97 14.64C10.72 14.5 10.5 14.27 10.38 14C9.88 13.1 9.96 11.85 10.08 10.86M12 2C6.5 2 2 6.5 2 12C2.53 25.27 21.5 25.26 22 12C22 6.5 17.5 2 12 2M12 20C7.59 20 4 16.41 4 12C4.44 1.39 19.56 1.39 20 12C20 16.41 16.41 20 12 20Z" />
    </symbol>

    <!-- Flags -->
    <symbol id="icon-flag-no">
        <path fill="#EF2B2D" d="M7.1,4.1H3.5C2.1,4.1,1,5.2,1,6.5v3.7h6.1V4.1z M20.5,4.1h-9.7v6.1H23V6.5C23,5.2,21.9,4.1,20.5,4.1z
		 M7.1,19.9H3.5c-1.3,0-2.4-1.1-2.4-2.4v-3.7h6.1V19.9z M20.5,19.9h-9.7v-6.1H23v3.7C23,18.8,21.9,19.9,20.5,19.9z" />
        <path fill="#002868" d="M9.9,4.1H8.1l0,7H1v1.8h7l0,7h1.8v-7H23v-1.8H9.9V4.1z" />
        <path fill="#EEE" d="M9.9,19.9h0.9v-6.1H23v-0.9H9.9V19.9z M10.8,4.1H9.9v7H23v-0.9H10.8V4.1z M8,4.1H7.1v6.1H1v0.9h7V4.1z M1,12.9
		v0.9h6.1v6.1H8v-7H1z" />
    </symbol>
    <symbol id="icon-flag-en">
        <path fill="#00247D" d="M1,6.6V9h3.4L1,6.6z M3.9,19.9H9v-3.6L3.9,19.9z M15,16.4v3.6h5.1L15,16.4z M1,15v2.4L4.5,15H1z M20.1,4.1H15
		v3.6L20.1,4.1z M23,17.4V15h-3.4L23,17.4z M23,9V6.6L19.5,9H23z M9,4.1H3.9L9,7.6V4.1z" />
        <path fill="#CF1B2B" d="M16.3,15l5.9,4.1c0.3-0.3,0.5-0.7,0.6-1.1L18.5,15H16.3z M9,15H7.7l-5.9,4.1c0.3,0.3,0.7,0.6,1.2,0.7l6-4.2V15
		z M15,9h1.3l5.9-4.1c-0.3-0.3-0.7-0.6-1.2-0.7l-6,4.2V9z M7.7,9L1.7,4.8C1.5,5.1,1.3,5.5,1.1,5.9L5.5,9H7.7z" />
        <path fill="#EEE"
            d="M23,13.8h-9.1v6.1H15v-3.6l5.1,3.6h0.4c0.7,0,1.3-0.3,1.7-0.7L16.3,15h2.1l4.4,3.1c0.1-0.2,0.1-0.4,0.1-0.6v0
		L19.5,15H23V13.8z M1,13.8V15h3.4L1,17.4v0c0,0.7,0.3,1.3,0.7,1.7L7.7,15H9v0.6l-6,4.2c0.2,0,0.4,0.1,0.6,0.1h0.4L9,16.4v3.6h1.2
		v-6.1H1z M23,6.5c0-0.6-0.3-1.2-0.7-1.7L16.3,9H15V8.4l6-4.2c-0.2,0-0.4-0.1-0.6-0.1h-0.4L15,7.6V4.1h-1.2v6.1H23V9h-3.4L23,6.5
		L23,6.5z M9,4.1v3.6L3.9,4.1H3.5c-0.7,0-1.3,0.3-1.7,0.7L7.7,9H5.5L1.1,5.9C1.1,6.1,1.1,6.3,1,6.5v0L4.5,9H1v1.2h9.1V4.1H9z" />
        <path fill="#CF1B2B" d="M13.8,10.2V4.1h-3.7v6.1H1v3.7h9.1v6.1h3.7v-6.1H23v-3.7H13.8z" />
    </symbol>
    <symbol id="icon-flag-de">
        <path id="path18-3"
            d="M1,17.5538c0,1.351,1.0952,2.4462,2.4462,2.4462H20.5692c1.351,0,2.4462-1.0952,2.4462-2.4462v-2.4462H1v2.4462Z"
            style="fill: #ffcd05;" />
        <path id="path20" d="M1,9.6038H23.0154v5.5038H1v-5.5038Z" style="fill: #ed1f24;" />
        <path id="path22"
            d="M20.5692,4.1H3.4462c-1.351,0-2.4462,1.0952-2.4462,2.4462v3.0577H23.0154v-3.0577c0-1.351-1.0952-2.4462-2.4462-2.4462Z"
            style="fill: #141414;" />
    </symbol>

    <!-- Dices -->
    <symbol id="icon-dice-1">
        <path fill="#9c040c" d="M20.8,23.3H3.2c-1.3,0-2.5-1.1-2.5-2.5V3.2c0-1.3,1.1-2.5,2.5-2.5h17.5c1.4,0,2.6,1.1,2.6,2.5v17.5
		C23.3,22.1,22.1,23.3,20.8,23.3z" />
        <circle fill="#fbf2da" cx="12" cy="12" r="2.3" />
    </symbol>
    <symbol id="icon-dice-2">
        <path fill="#9c040c" d="M20.8,23.3H3.2c-1.3,0-2.5-1.1-2.5-2.5V3.2c0-1.3,1.1-2.5,2.5-2.5h17.5c1.4,0,2.6,1.1,2.6,2.5v17.5
		C23.3,22.1,22.1,23.3,20.8,23.3z" />
        <circle fill="#fbf2da" cx="6.2" cy="6.2" r="2.3" />
        <circle fill="#fbf2da" cx="17.8" cy="17.8" r="2.3" />
    </symbol>
    <symbol id="icon-dice-3">
        <path fill="#9c040c" d="M20.8,23.3H3.2c-1.3,0-2.5-1.1-2.5-2.5V3.2c0-1.3,1.1-2.5,2.5-2.5h17.5c1.4,0,2.6,1.1,2.6,2.5v17.5
		C23.3,22.1,22.1,23.3,20.8,23.3z" />
        <circle fill="#fbf2da" cx="6.2" cy="6.2" r="2.3" />
        <circle fill="#fbf2da" cx="12" cy="12" r="2.3" />
        <circle fill="#fbf2da" cx="17.8" cy="17.8" r="2.3" />
    </symbol>
    <symbol id="icon-dice-4">
        <path fill="#9c040c" d="M20.8,23.3H3.2c-1.3,0-2.5-1.1-2.5-2.5V3.2c0-1.3,1.1-2.5,2.5-2.5h17.5c1.4,0,2.6,1.1,2.6,2.5v17.5
		C23.3,22.1,22.1,23.3,20.8,23.3z" />
        <circle fill="#fbf2da" cx="6.2" cy="6.2" r="2.3" />
        <circle fill="#fbf2da" cx="17.8" cy="6.2" r="2.3" />
        <circle fill="#fbf2da" cx="6.2" cy="17.8" r="2.3" />
        <circle fill="#fbf2da" cx="17.8" cy="17.8" r="2.3" />
    </symbol>
    <symbol id="icon-dice-5">
        <path fill="#9c040c" d="M20.8,23.3H3.2c-1.3,0-2.5-1.1-2.5-2.5V3.2c0-1.3,1.1-2.5,2.5-2.5h17.5c1.4,0,2.6,1.1,2.6,2.5v17.5
		C23.3,22.1,22.1,23.3,20.8,23.3z" />
        <circle fill="#fbf2da" cx="6.2" cy="6.2" r="2.3" />
        <circle fill="#fbf2da" cx="17.8" cy="6.2" r="2.3" />
        <circle fill="#fbf2da" cx="12" cy="12" r="2.3" />
        <circle fill="#fbf2da" cx="6.2" cy="17.8" r="2.3" />
        <circle fill="#fbf2da" cx="17.8" cy="17.8" r="2.3" />
    </symbol>
    <symbol id="icon-dice-6">
        <path fill="#9c040c" d="M20.8,23.3H3.2c-1.3,0-2.5-1.1-2.5-2.5V3.2c0-1.3,1.1-2.5,2.5-2.5h17.5c1.4,0,2.6,1.1,2.6,2.5v17.5
		C23.3,22.1,22.1,23.3,20.8,23.3z" />
        <circle fill="#fbf2da" cx="6.2" cy="6.2" r="2.3" />
        <circle fill="#fbf2da" cx="17.8" cy="17.8" r="2.3" />
        <circle fill="#fbf2da" cx="17.8" cy="12" r="2.3" />
        <circle fill="#fbf2da" cx="17.8" cy="6.2" r="2.3" />
        <circle fill="#fbf2da" cx="6.2" cy="12" r="2.3" />
        <circle fill="#fbf2da" cx="6.2" cy="17.8" r="2.3" />
    </symbol>
    <symbol id="icon-dicegame">
        <path
            d="m5.68.55L.22,4.4699l4.7599,1.44L10.5,1.5899,5.68.55Zm-.53,2.95c-.52.05-.89-.14-.82-.43.08-.28.56-.55,1.09-.59.06-.01.13-.01.19-.01.4301.01.7.19.63.43-.07.29-.56.55-1.09.6Zm6.14-1.41l-5.86,4.47,2.54,6.5.42-.37.21-.78c-.29-.19-.48-.61-.45-1.01.03-.39.25-.67.55-.68.06,0,.12,0,.18.02.05.02.1.05.15.08l.39-1.46c.01-.02.01-.04.02-.05v-.01c.01-.01.01-.02.02-.03v-.0099c.01-.01.02-.02.02-.03.01-.02.02-.03.03-.04l.03-.03c.0099-.01.02-.02.03-.03s.02-.01.03-.02c0,0,0-.01.0099-.01.01,0,.01-.01.02-.01q.01-.0099.02-.0099s.01-.01.02-.01c0,0,.01-.01.02-.01,0,0,.01-.01.02-.01h.02q.01-.01.02-.01t.02-.01h.05l1.67-.14c.07-.29.27-.48.51-.4901.06,0,.12.01.18.03.16.05.31.18.42.36l.65-.05-1.96-6.15Zm-3.9,5.88c-.34-.11-.6-.56-.6-1.02v-.07c.03-.39.25-.67.55-.68.06,0,.12,0,.18.02.36.12.63.61.6,1.09-.04.48-.36.78-.73.66Zm3.25-2.56c-.35-.11-.6-.55-.6-.99v-.1c.02-.39.25-.67.54-.68.06,0,.12,0,.18.02.37.12.64.61.6,1.09-.03.48-.36.78-.72.66Zm-5.91,1.36L0,5.33l2.33,5.67,4.68,2-2.28-6.23Zm-1.6,4.26c-.25.07-.65-.27-.89-.74-.24-.47-.23-.9.02-.96.02-.01.04-.01.05-.01.26-.02.62.31.84.75.24.47.23.9-.02.96Zm1.3-2.47c-.02,0-.04.01-.06.01-.25,0-.61-.32-.83-.75-.2401-.47-.23-.91.02-.97.02,0,.03-.01.05-.01.25-.0099.62.31.84.75.24.47.23.91-.02.97Zm12.25.28l-5.56.47,5.64,3.97,5.64-.84-5.72-3.6Zm.67,2.44c-.31,0-.69-.08-1.01-.23-.33-.16-.52-.36-.52-.51,0-.08.04-.15.14-.2.11-.06.27-.08.46-.08.31.0099.6801.09.98.24.5.24.67.55.38.7-.11.06-.26.08-.43.08Zm-7.23-1.57l-2.06,7.65,5.74,4.93,2.34-8.36-6.02-4.22Zm-.38,8.4c-.07,0-.14-.02-.21-.05-.37-.17-.64-.74-.64-1.34,0-.08,0-.15.01-.23.05-.55.33-.94.68-.94.07,0,.14.02.21.05.43.19.71.89.64,1.57-.06.57-.34.94-.69.94Zm4.4-1.76c-.07,0-.14-.02-.21-.05-.42-.19-.71-.9-.64-1.58.06-.55.34-.93.6899-.93.07,0,.14.01.21.04.42.1899.71.9.64,1.58-.06.57-.35.94-.69.94Zm2.86-2.2l-2.32,8.3,5.77-1.58,2.55-7.62-6,.9Zm-.3,7.01c-.38.44-.85.53-1.06.19-.06-.11-.09-.24-.09-.39,0-.33.14-.72.4-1.02.21-.25.46-.39.68-.4.16,0,.29.07.38.21.2.33.07.96-.31,1.41Zm1.59-4.65c-.38.44-.85.53-1.0601.19-.2-.33-.0699-.97.3101-1.41.21-.24.46-.39.68-.4.16,0,.29.0699.38.21.2.34.0699.97-.31,1.41Zm1.9,3.68c-.38.44-.85.53-1.06.19-.2-.33-.07-.97.31-1.41.21-.24.46-.39.68-.4.16,0,.29.07.38.21.2.34.07.97-.31,1.41Zm.45-4.02c-.2-.33-.07-.97.31-1.41.21-.2401.46-.39.67-.4.17,0,.3.07.39.21.2.34.07.97-.31,1.41s-.85.53-1.06.19Z"
            style="fill: #9c040c;" />
        <path
            d="m16.34,11.05c.32.15.7.23,1.01.23.17,0,.3199-.02.43-.08.29-.15.12-.46-.38-.7-.3-.15-.67-.23-.98-.24-.19,0-.35.02-.46.08-.1.05-.14.12-.14.2,0,.15.19.35.52.51Z"
            style="fill: #fff;" />
        <path
            d="m22.01,14.57c-.09-.14-.22-.21-.39-.21-.21.01-.46.16-.67.4-.38.44-.51,1.08-.31,1.41.21.34.68.25,1.06-.19s.51-1.07.31-1.41Z"
            style="fill: #fff;" />
        <path
            d="m20.12,18.57c-.22.01-.47.16-.68.4-.38.44-.51,1.08-.31,1.41.21.34.68.25,1.06-.19s.51-1.07.31-1.41c-.09-.14-.22-.21-.38-.21Z"
            style="fill: #fff;" />
        <path
            d="m16.63,19.54c-.22.01-.47.15-.68.4-.26.3-.4.69-.4,1.02,0,.15.03.28.09.39.21.34.68.25,1.06-.19.38-.45.51-1.08.31-1.41-.09-.14-.22-.21-.38-.21Z"
            style="fill: #fff;" />
        <path
            d="m18.22,14.89c-.22.0099-.47.16-.68.4-.38.44-.51,1.08-.3101,1.41.21.34.6801.25,1.0601-.19.3799-.44.5099-1.07.31-1.41-.09-.14-.22-.21-.38-.21Z"
            style="fill: #fff;" />
        <path
            d="m14.19,13.83c-.07-.03-.14-.04-.21-.04-.35,0-.6299.38-.6899.93-.07.68.22,1.39.64,1.58.07.03.14.05.21.05.34,0,.63-.37.69-.94.07-.68-.22-1.39-.64-1.58Z"
            style="fill: #fff;" />
        <path
            d="m9.79,15.6c-.07-.03-.14-.05-.21-.05-.35,0-.63.39-.68.94-.01.08-.01.15-.01.23,0,.6.27,1.17.64,1.34.07.03.14.05.21.05.35,0,.63-.37.69-.94.07-.68-.21-1.38-.64-1.57Z"
            style="fill: #fff;" />
        <path
            d="m5.61,2.4699c-.06,0-.13,0-.19.01-.53.04-1.0099.31-1.09.59-.07.29.3.48.82.43.53-.05,1.02-.31,1.09-.6.07-.24-.2-.42-.63-.43Z"
            style="fill: #fff;" />
        <path
            d="m10.76,3.66c-.06-.02-.12-.02-.18-.02-.29.0099-.52.29-.54.68v.1c0,.44.25.88.6.99.36.12.69-.18.72-.66.04-.48-.23-.97-.6-1.09Z"
            style="fill: #fff;" />
        <path
            d="m7.52,6.2199c-.06-.02-.12-.02-.18-.02-.3.0099-.52.29-.55.68v.07c0,.46.2599.91.6,1.02.37.12.69-.18.73-.66.03-.48-.24-.97-.6-1.09Z"
            style="fill: #fff;" />
        <path
            d="m2.31,9.32c-.01,0-.03,0-.05.01-.25.06-.26.49-.02.96.24.47.64.81.89.74.25-.06.26-.49.02-.96-.22-.44-.58-.77-.84-.75Z"
            style="fill: #fff;" />
        <path
            d="m3.6064,6.8445c-.02,0-.03.01-.05.01-.25.06-.26.5-.02.97.22.43.58.75.83.75.02,0,.04-.01.06-.01.25-.06.26-.5.02-.97-.22-.44-.59-.76-.84-.75Z"
            style="fill: #fff;" />
        <path
            d="m8.88,10.24c-.06-.02-.12-.02-.18-.02-.3.01-.52.29-.55.68-.03.4.16.82.45,1.01l.43-1.59c-.05-.03-.1-.06-.15-.08Z"
            style="fill: #fff;" />
        <path d="m12.18,7.93c-.06-.02-.12-.03-.18-.03-.24.01-.44.2-.51.4901l1.11-.1c-.11-.18-.26-.31-.42-.36Z"
            style="fill: #fff;" />
    </symbol>

    <!-- Drum kit -->
    <symbol id="icon-drumkit">
        <path d="m0,11.5h23v5.75H0v-5.75Z" style="fill: #f18f26;" />
        <ellipse cx="11.5" cy="16.6111" rx="11.5" ry="5.75" style="fill: #f18f26;" />
        <ellipse cx="11.5" cy="17.25" rx="11.5" ry="5.75" style="fill: #f18f26;" />
        <path
            d="m0,6.3888v10.2222h.0747c.6363,2.8744,5.5066,5.1111,11.4253,5.1111s10.7889-2.2367,11.4252-5.1111h.0748V6.3888H0Z"
            style="fill: #9d0522;" />
        <ellipse cx="11.5" cy="7.0277" rx="11.5" ry="5.75" style="fill: #f18f26;" />
        <ellipse cx="11.5" cy="7.6666" rx="11.5" ry="5.75" style="fill: #f18f26;" />
        <path d="m0,6.3888h.6389v1.2778h-.6389v-1.2778Zm22.3611,0h.6389v1.2778h-.6389v-1.2778Z"
            style="fill: #f18f26;" />
        <ellipse cx="11.5" cy="6.3888" rx="11.5" ry="5.75" style="fill: #fcab40;" />
        <ellipse cx="11.5" cy="6.3888" rx="10.8611" ry="5.1111" style="fill: #f5f8fa;" />
        <path
            d="m11.5,1.9166c5.7692,0,10.4746,2.1186,10.8266,4.7917.0141-.1061.0345-.2115.0345-.3194,0-2.8226-4.8626-5.1111-10.8611-5.1111S.6389,3.5662.6389,6.3888c0,.108.0204.2134.0345.3194C1.0254,4.0352,5.7308,1.9166,11.5,1.9166Z"
            style="fill: #fdd888;" />
        <path
            d="m15.5233,1.6604c.2811-.2108.3386-.6133.1278-.8944l-.3833-.5111c-.2108-.2811-.6133-.3386-.8944-.1278L6.2951,6.5441c-.4945-.1067-1.1404.053-1.7078.4785-.8472.6351-1.1902,1.6074-.7667,2.1722s1.4535.5073,2.3-.1278c.5335-.3999.8657-.9334.9341-1.4151L15.5233,1.6604h0Zm3.749,1.8649l-.3252-.5501c-.1802-.303-.5713-.4034-.8753-.2249l-8.8889,5.5909c-.4594-.0901-1.0388.0147-1.5793.3348-.9111.5386-1.3589,1.4675-.9999,2.0751.3591.6076,1.3889.6638,2.3.1252.6421-.3795,1.0465-.9519,1.1085-1.4701l9.0352-5.0057c.3028-.1795.4038-.5731.2249-.8753h0Z"
            style="fill: #aa695b;" />
        <path
            d="m1.2778,17.8888c-.3514,0-.6389-.2875-.6389-.6389v-5.75c0-.3514.2875-.6389.6389-.6389s.6389.2875.6389.6389v5.75c0,.3514-.2875.6389-.6389.6389Zm5.75,2.5556c-.3514,0-.6389-.2875-.6389-.6389v-5.75c0-.3514.2875-.6389.6389-.6389s.6389.2875.6389.6389v5.75c0,.3514-.2875.6389-.6389.6389Zm7.6667,0c-.3514,0-.6389-.2875-.6389-.6389v-5.75c0-.3514.2875-.6389.6389-.6389s.6389.2875.6389.6389v5.75c0,.3514-.2875.6389-.6389.6389Zm7.0278-2.5556c-.3514,0-.6389-.2875-.6389-.6389v-5.75c0-.3514.2875-.6389.6389-.6389s.6389.2875.6389.6389v5.75c0,.3514-.2875.6389-.6389.6389Z"
            style="fill: #da2f47;" />
    </symbol>

    <!-- Simon game -->
    <symbol id="icon-simongame">
        <path
            d="m4.8623.075h3.7343c1.3376,0,2.4235,1.0859,2.4235,2.4235v6.0437c0,1.3376-1.0859,2.4235-2.4235,2.4235H2.4985C1.1609,10.9657.075,9.8798.075,8.5422v-3.6799C.075,2.2201,2.2201.075,4.8623.075Z"
            style="fill: #00941d; stroke: #000; stroke-miterlimit: 10; stroke-width: .15px;" />
        <path
            d="m14.3621.1512h3.7343c2.6422,0,4.7873,2.1451,4.7873,4.7873v3.6799c0,1.3376-1.0859,2.4235-2.4235,2.4235h-6.098c-1.3376,0-2.4235-1.0859-2.4235-2.4235V2.5747c0-1.3376,1.0859-2.4235,2.4235-2.4235Z"
            style="fill: #df0600; stroke: #000; stroke-miterlimit: 10; stroke-width: .15px;" />
        <path
            d="m14.5534,12.1843h6.098c1.3376,0,2.4235,1.0859,2.4235,2.4235v3.6799c0,2.6422-2.1451,4.7873-4.7873,4.7873h-3.7343c-1.3376,0-2.4235-1.0859-2.4235-2.4235v-6.0437c0-1.3376,1.0859-2.4235,2.4235-2.4235Z"
            style="fill: #000eff; stroke: #000; stroke-miterlimit: 10; stroke-width: .15px;" />
        <path
            d="m2.4985,12.1843h6.098c1.3376,0,2.4235,1.0859,2.4235,2.4235v6.0437c0,1.3376-1.0859,2.4235-2.4235,2.4235h-3.7343C2.2201,23.075.075,20.9299.075,18.2877v-3.6799c0-1.3376,1.0859-2.4235,2.4235-2.4235Z"
            style="fill: #ffe900; stroke: #000; stroke-miterlimit: 10; stroke-width: .15px;" />
    </symbol>

    <symbol id="icon-pongGame">
        <path fill="#fff"
            d="M19.3333,1h-6.6V9.0667a.7333.7333,0,0,1-1.4666,0V1h-6.6A3.631,3.631,0,0,0,1,4.6667V19.3333A3.631,3.631,0,0,0,4.6667,23h6.6V17.8667a.7333.7333,0,1,1,1.4666,0V23h6.6A3.631,3.631,0,0,0,23,19.3333V4.6667A3.631,3.631,0,0,0,19.3333,1ZM6.8667,18.9667a1.8334,1.8334,0,0,1-3.6667,0V13.8333a1.8334,1.8334,0,0,1,3.6667,0Zm4.4-3.3a2.2,2.2,0,1,1,2.2-2.2A2.1608,2.1608,0,0,1,11.2667,15.6667Zm9.5333-5.5a1.8334,1.8334,0,0,1-3.6667,0V5.0333a1.8334,1.8334,0,0,1,3.6667,0Z" />
    </symbol>


    <!-- Coding languages -->
    <symbol id="icon-html">
        <path d="M3.6,21.2L2,.3H22l-1.7,20.9-8.3,2.5s-8.4-2.5-8.4-2.5Z" style="fill: #e44d26;" />
        <path d="M20.4,2H12V22.4l6.7-2s1.7-18.4,1.7-18.4Z" style="fill: #f16529;" />
        <path
            d="M6.6,12.4l-.9-8h12.9l-.4,2.6H8.2l.4,2.9h9.1l-.9,8-4.8,1.6-5.1-1.7-.3-4.1h2.5l.4,2,2.5,.9,2.5-.9,.4-3.3s-8.3,0-8.3,0Z"
            style="fill: #fff;" />
    </symbol>
    <symbol id="icon-css">
        <path d="M3.6,21.2L2,.3H22l-1.7,20.9-8.3,2.5s-8.4-2.5-8.4-2.5Z" style="fill: #1172b8;" />
        <path d="M20.4,2H12V22.4l6.7-2s1.7-18.4,1.7-18.4Z" style="fill: #3ad;" />
        <path
            d="M14.9,12.4H6.6l-.4-2.9,6.7-2H6.2l-.4-2.6h12.9l-.4,2.9-5.4,2h5.1l-.9,8-5.1,1.7-5.1-1.6-.3-4.2h2.5l.4,2,2.5,.9,2.5-.9s.4-3.3,.4-3.3Z"
            style="fill: #fff;" />
    </symbol>
    <symbol id="icon-js">
        <rect x="1" y="1" width="22" height="22" rx="3.2033" fill="#f7df00" />
        <path fill="#000"
            d="M14.98,17.9848a.8559.8559,0,0,1,1.1.2189,2.08,2.08,0,0,0,1.65.6568c.88,0,1.43-.4379,1.43-.9851,0-.6567-.55-.9851-1.54-1.4229l-.66-.3284c-1.54-.6567-2.53-1.4229-2.53-3.0646a2.775,2.775,0,0,1,2.97-2.7364,3.5794,3.5794,0,0,1,2.53.8757.788.788,0,0,1-.22,1.2039l-.11.11a.8366.8366,0,0,1-1.1-.11,1.3487,1.3487,0,0,0-.99-.3283.9679.9679,0,0,0-.99.8756c0,.5473.44.8756,1.32,1.204l.55.2189c1.76.8756,2.75,1.5323,2.75,3.2836,0,1.8607-1.43,2.8457-3.41,2.8457a4.07,4.07,0,0,1-3.19-1.2039.8229.8229,0,0,1,.22-1.3135Zm-7.48.2189a.8559.8559,0,0,1,1.1.2189c.22.3284.44.4379.99.4379.66,0,1.1-.219,1.1-1.3135V11.3082a.8654.8654,0,0,1,.88-.8756h.33a.8656.8656,0,0,1,.88.8756v6.02c0,2.1891-1.21,3.0647-3.08,3.0647a3.3792,3.3792,0,0,1-2.53-.9851c-.44-.4378-.33-.9851.33-1.204Z" />
    </symbol>
    <symbol id="icon-cs">
        <path
            d="M22,7.1v9.8c0,.27-.07,.53-.2,.7599-.13,.22-.32,.41-.55,.54l-8.49,4.91c-.47,.27-1.05,.27-1.52,0L2.75,18.2c-.23-.13-.42-.32-.55-.54-.13-.23-.2-.49-.2-.7599V7.1c0-.54,.29-1.04,.76-1.31L11.24,.89c.47-.27,1.05-.27,1.52,0l8.48,4.9c.24,.13,.42,.33,.56,.55,.13,.23,.2,.49,.2,.7599Z"
            style="fill: #9a5196;" />
        <path
            d="M22,7.1v9.8c0,.27-.07,.53-.2,.7599-.13,.22-.32,.41-.55,.54l-8.49,4.91c-.47,.27-1.05,.27-1.52,0L2.75,18.2c-.23-.13-.42-.32-.55-.54L21.8,6.34c.13,.23,.2,.49,.2,.7599Z"
            style="fill: #7f3a86;" />
        <path
            d="M21.8,17.66c-.13,.22-.32,.41-.55,.54l-8.49,4.91c-.47,.27-1.05,.27-1.52,0L2.75,18.2c-.23-.13-.42-.32-.55-.54l9.8-5.66,9.8,5.66Z"
            style="fill: #662579;" />
        <path
            d="M19.9383,11.3869v-.6131h-.5565v-.6131h-.6246v.6131h-1.2031v-.6131h-.6246v.6131h-.6697v.6131h.6697v1.2261h-.6697v.6131h.6697v.6131h.6246v-.6131h1.2031v.6131h.6246v-.6131h.5565v-.6131h-.5565v-1.2261h.5565Zm-1.1811,1.2261h-1.2031v-1.2261h1.2031v1.2261Z"
            style="fill: #fff; fill-rule: evenodd;" />
        <path
            d="M15.6509,14.1055c-.7274,1.2622-2.0903,2.1104-3.6515,2.1104-2.3289,0-4.2151-1.889-4.2151-4.2179,0-2.3261,1.8861-4.2151,4.2151-4.2151,1.5612,0,2.9212,.8482,3.6486,2.1075l2.6941-1.5555c-1.2651-2.1909-3.6314-3.663-6.3427-3.663-4.0483,0-7.326,3.2806-7.326,7.3261,0,4.0483,3.2777,7.3289,7.326,7.3289,2.7113,0,5.0805-1.475,6.3456-3.6659,0,0-2.6941-1.5555-2.6941-1.5555Z"
            style="fill: #fff; fill-rule: evenodd;" />
    </symbol>
    <symbol id="icon-cpp">
        <path
            d="M22,7.1v9.8c0,.27-.07,.53-.2,.7599-.13,.22-.32,.41-.55,.54l-8.49,4.91c-.47,.27-1.05,.27-1.52,0L2.75,18.2c-.23-.13-.42-.32-.55-.54-.13-.23-.2-.49-.2-.7599V7.1c0-.54,.29-1.04,.76-1.31L11.24,.89c.47-.27,1.05-.27,1.52,0l8.48,4.9c.24,.13,.42,.33,.56,.55,.13,.23,.2,.49,.2,.7599Z"
            style="fill: #659ad2;" />
        <path
            d="M22,7.1v9.8c0,.27-.07,.53-.2,.7599-.13,.22-.32,.41-.55,.54l-8.49,4.91c-.47,.27-1.05,.27-1.52,0L2.75,18.2c-.23-.13-.42-.32-.55-.54L21.8,6.34c.13,.23,.2,.49,.2,.7599Z"
            style="fill: #00599c;" />
        <path
            d="M21.8,17.66c-.13,.22-.32,.41-.55,.54l-8.49,4.91c-.47,.27-1.05,.27-1.52,0L2.75,18.2c-.23-.13-.42-.32-.55-.54l9.8-5.66,9.8,5.66Z"
            style="fill: #004482;" />
        <path
            d="M15.6509,14.1055c-.7198,1.2489-2.0616,2.0925-3.6022,2.1101-2.2373,.0256-4.1492-1.7701-4.2592-4.0049-.1192-2.4225,1.8103-4.4279,4.2098-4.4279,1.5612,0,2.9212,.8482,3.6486,2.1075l2.6941-1.5555c-1.2651-2.1909-3.6314-3.663-6.3427-3.663-4.2048,0-7.5782,3.5391-7.3112,7.7983,.2225,3.5493,3.0387,6.4766,6.5783,6.8209,3.013,.2931,5.7006-1.2439,7.0785-3.6302l-2.6941-1.5555v.0002Z"
            style="fill: #fff; fill-rule: evenodd;" />
        <polygon
            points="17.242 10.7208 16.4745 10.7208 16.4745 11.6163 15.579 11.6163 15.579 12.3837 16.4745 12.3837 16.4745 13.2792 17.242 13.2792 17.242 12.3837 18.1374 12.3837 18.1374 11.6163 17.242 11.6163 17.242 10.7208"
            style="fill: #fff;" />
        <polygon
            points="20.4327 11.6163 20.4327 10.7208 19.6652 10.7208 19.6652 11.6163 18.7698 11.6163 18.7698 12.3837 19.6652 12.3837 19.6652 13.2792 20.4327 13.2792 20.4327 12.3837 21.3281 12.3837 21.3281 11.6163 20.4327 11.6163"
            style="fill: #fff;" />
    </symbol>
    <symbol id="icon-c">
        <path
            d="M22,7.1v9.8c0,.27-.07,.53-.2,.7599-.13,.22-.32,.41-.55,.54l-8.49,4.91c-.47,.27-1.05,.27-1.52,0L2.75,18.2c-.23-.13-.42-.32-.55-.54-.13-.23-.2-.49-.2-.7599V7.1c0-.54,.29-1.04,.76-1.31L11.24,.89c.47-.27,1.05-.27,1.52,0l8.48,4.9c.24,.13,.42,.33,.56,.55,.13,.23,.2,.49,.2,.7599Z"
            style="fill: #5c6bbf;" />
        <path
            d="M22,7.1v9.8c0,.27-.07,.53-.2,.7599-.13,.22-.32,.41-.55,.54l-8.49,4.91c-.47,.27-1.05,.27-1.52,0L2.75,18.2c-.23-.13-.42-.32-.55-.54L21.8,6.34c.13,.23,.2,.49,.2,.7599Z"
            style="fill: #3848aa;" />
        <path
            d="M21.8,17.66c-.13,.22-.32,.41-.55,.54l-8.49,4.91c-.47,.27-1.05,.27-1.52,0L2.75,18.2c-.23-.13-.42-.32-.55-.54l9.8-5.66,9.8,5.66Z"
            style="fill: #283593;" />
        <path
            d="M15.6509,14.1055c-.7198,1.2489-2.0616,2.0925-3.6022,2.1101-2.2373,.0256-4.1492-1.7701-4.2592-4.0049-.1192-2.4225,1.8103-4.4279,4.2098-4.4279,1.5612,0,2.9212,.8482,3.6486,2.1075l2.6941-1.5555c-1.2651-2.1909-3.6314-3.663-6.3427-3.663-4.2048,0-7.5782,3.5391-7.3112,7.7983,.2225,3.5493,3.0387,6.4766,6.5783,6.8209,3.013,.2931,5.7006-1.2439,7.0785-3.6302l-2.6941-1.5555v.0002Z"
            style="fill: #fff; fill-rule: evenodd;" />
    </symbol>
    <symbol id="icon-py">
        <path
            d="M9.9294,1.8995c-1.6161,0-2.9291,1.3131-2.9291,2.8281v1.9191h4.9492v.505H4.7781c-1.5151,0-2.8281,1.2121-2.8281,2.8281v4.1412c0,1.5151,1.3131,2.8281,2.8281,2.8281h1.6161v-2.3231c0-1.5151,1.3131-2.8281,2.8281-2.8281h5.2522c1.3131,0,2.4241-1.01,2.4241-2.3231V4.7277c.202-1.5151-1.1111-2.8281-2.7271-2.8281,0,0-4.2422,0-4.2422,0Zm-.707,3.4342c.505,0,1.01-.404,1.01-1.01,0-.505-.404-1.01-1.01-1.01-.505,0-1.01,.404-1.01,1.01s.505,1.01,1.01,1.01Z"
            style="fill: #1565a7; fill-rule: evenodd;" />
        <path
            d="M19.2218,7.1518h-1.6161v2.3231c0,1.5151-1.313,2.8281-2.8281,2.8281h-5.3532c-1.3131,0-2.4241,1.01-2.4241,2.3231v4.7472c0,1.5151,1.313,2.7271,2.9292,2.7271h4.2422c1.6161,0,2.8282-1.2121,2.8282-2.8281v-1.9191h-4.9493v-.505h7.1713c1.6161,0,2.8282-1.2121,2.8282-2.8281v-4.0402c0-1.5151-1.3131-2.8281-2.8282-2.8281Zm-4.3432,11.5145c.505,0,1.01,.505,1.01,1.01,0,.6061-.505,1.01-1.01,1.01-.606,0-1.01-.505-1.01-1.01,0-.606,.505-1.01,1.01-1.01Z"
            style="fill: #f9c600;" />
    </symbol>
    <symbol id="icon-sass">
        <rect x="1" y="1" width="22" height="22" rx="3.3" style="fill:#c69" />
        <path
            d="M12.09,4.65C7.89,6.09,5.18,9,5.44,10.78s2.89,3.14,4.07,4.06h0c-1.53.79-3.46,2-3.42,3.5.09,2.1,2.37,1.45,3.33.83a3.65,3.65,0,0,0,1.31-4.11,3.82,3.82,0,0,1,2.89.35c1.35,1,.65,2.06.17,2.23s-.17.27.13.18a1.42,1.42,0,0,0,1-1.27c0-1.88-2-2.76-4.51-2.1C8.94,12.92,7,12.22,7.06,10.56c0-.62.26-2.19,4.15-4.16s6.65-1.18,6.3.61c-.52,2.72-5.25,4.55-6.91,3-.09-.18-.39-.31-.22.17.88,2.19,8,1.18,8.27-3.45C18.74,4.26,15.19,3.6,12.09,4.65Zm-3.76,14c-1.1.35-1-.35-1-.61.13-.75.74-1.67,2.58-2.58A2.54,2.54,0,0,1,8.33,18.65Z"
            style="fill:#fff" />
    </symbol>
    <symbol id="icon-ruby">
        <path d="M21.68,21.86,23,5.55l-5.1,10L5.5,23l16.18-1.12Z" x="1" y="1" style="fill:#a00403" />
        <path
            d="M1.27,12.35l0,.11-.05,1.41L2,14.4ZM14.65,1h-1.3c.22.17.63.45,1.07.76.21.14.42.29.63.42Zm.7,2.49,0-.25a3.2,3.2,0,0,0-.1-.42l-.09-.21a2.12,2.12,0,0,0-.39-.55C13.62.93,11.15,1.57,8.64,3.2c-.53.35-1.06.73-1.59,1.16A18.87,18.87,0,0,0,5.61,5.64,16.76,16.76,0,0,0,3.63,8a13.58,13.58,0,0,0-.91,1.43,8.76,8.76,0,0,0-.43.87A5.06,5.06,0,0,0,2,11a6.46,6.46,0,0,0-.32,1.45,3.22,3.22,0,0,0,.07,1s0,0,0,.05a2.07,2.07,0,0,0,.53,1c1.18,1.18,3.66.47,6.18-1.21.5-.33,1-.71,1.51-1.11s1-.83,1.42-1.28a17.42,17.42,0,0,0,2.33-2.79c.21-.32.41-.64.58-1s.31-.58.43-.86c.06-.12.11-.24.16-.36A4.14,4.14,0,0,0,15,5.59a3.16,3.16,0,0,0,.12-.37A2.17,2.17,0,0,0,15.22,5l.06-.27c0-.17.05-.34.07-.5s0-.24,0-.36v0A3,3,0,0,0,15.35,3.52Zm.78-.6-.36,1.25,0,.09L14.42,8.8c7,.59,5.81-.61,8.25-.76Zm-.78.6,0-.25a3.2,3.2,0,0,0-.1-.42l-.09-.21a2.12,2.12,0,0,0-.39-.55C13.62.93,11.15,1.57,8.64,3.2c-.53.35-1.06.73-1.59,1.16A18.87,18.87,0,0,0,5.61,5.64,16.76,16.76,0,0,0,3.63,8a13.58,13.58,0,0,0-.91,1.43,8.76,8.76,0,0,0-.43.87A5.06,5.06,0,0,0,2,11a6.46,6.46,0,0,0-.32,1.45,3.22,3.22,0,0,0,.07,1s0,0,0,.05a2.07,2.07,0,0,0,.53,1c1.18,1.18,3.66.47,6.18-1.21.5-.33,1-.71,1.51-1.11s1-.83,1.42-1.28a17.42,17.42,0,0,0,2.33-2.79c.21-.32.41-.64.58-1s.31-.58.43-.86c.06-.12.11-.24.16-.36A4.14,4.14,0,0,0,15,5.59a3.16,3.16,0,0,0,.12-.37A2.17,2.17,0,0,0,15.22,5l.06-.27c0-.17.05-.34.07-.5s0-.24,0-.36v0A3,3,0,0,0,15.35,3.52ZM14.42,8.8,8,14.56l8.6,2.73Zm-12,7-.06.12.09,0Zm1.27-.19-1.22.28h0a0,0,0,0,0,0,0C5.19,24.58,5.88,26.4,8,14.56ZM15.89,1H13.35c.22.17.63.45,1.07.76.21.14.42.29.63.42l.77.53.31.19,3.35-1.84ZM2.37,15.57,2,14.4l-.7-2.05,0-.07v.18l-.05,1.41-.07,1.69-.12,3,1.43-2.66v0l0,0Zm13-12,0-.25a3.2,3.2,0,0,0-.1-.42l-.09-.21a2.12,2.12,0,0,0-.39-.55C13.62.93,11.15,1.57,8.64,3.2c-.53.35-1.06.73-1.59,1.16A18.87,18.87,0,0,0,5.61,5.64,16.76,16.76,0,0,0,3.63,8a13.58,13.58,0,0,0-.91,1.43,8.76,8.76,0,0,0-.43.87A5.06,5.06,0,0,0,2,11a6.46,6.46,0,0,0-.32,1.45,3.22,3.22,0,0,0,.07,1s0,0,0,.05a2.07,2.07,0,0,0,.53,1c1.18,1.18,3.66.47,6.18-1.21.5-.33,1-.71,1.51-1.11s1-.83,1.42-1.28a17.42,17.42,0,0,0,2.33-2.79c.21-.32.41-.64.58-1s.31-.58.43-.86c.06-.12.11-.24.16-.36A4.14,4.14,0,0,0,15,5.59a3.16,3.16,0,0,0,.12-.37A2.17,2.17,0,0,0,15.22,5l.06-.27c0-.17.05-.34.07-.5s0-.24,0-.36v0A3,3,0,0,0,15.35,3.52Z"
            x="1" y="1" style="fill:#b11205" />
        <path
            d="M15.82,2.73l-.77-.53c-.21-.13-.42-.28-.63-.42a1.68,1.68,0,0,1,.71.86.64.64,0,0,1,.09.21,3.2,3.2,0,0,1,.1.42l0,.25a3,3,0,0,1,0,.31v0c0,.12,0,.23,0,.36s0,.33-.07.5L15.22,5a2.17,2.17,0,0,1-.07.24,3.16,3.16,0,0,1-.12.37,4.14,4.14,0,0,1-.15.41c-.05.12-.1.24-.16.36-.12.28-.27.57-.43.86s-.37.63-.58,1A16.75,16.75,0,0,1,11.4,11,17.14,17.14,0,0,1,10,12.24c-.5.4-1,.78-1.51,1.11-2.52,1.68-5,2.39-6.18,1.21a2.07,2.07,0,0,1-.53-1s0,0,0-.05a3.22,3.22,0,0,1-.07-1A4.82,4.82,0,0,1,2,11a5.06,5.06,0,0,1,.31-.78,8.76,8.76,0,0,1,.43-.87A13.58,13.58,0,0,1,3.63,8a16.76,16.76,0,0,1,2-2.31A18.87,18.87,0,0,1,7.05,4.36c.53-.43,1.06-.81,1.59-1.16C10.92,1.69,13.16,1,14.42,1.78c-.44-.31-.85-.59-1.07-.76h0L9,2,2.59,7.8,1.27,12.35,2,14.4l.4,1.17.09.26,0,0,1.22-.28,4.37-1L14.42,8.8l1.32-4.54,0-.09.36-1.25Z"
            x="1" y="1" style="fill:#e9e9e9" />
        <path d="M8,14.56l8.41,2.73c-3,2.84-8.7,5.47-11,5.69Z" x="1" y="1" style="fill:#9f0d02" />
        <path d="M14.42,8.8l2.09,8.42a24.3,24.3,0,0,0,5.95-9.11Zm7.26,13.06-1.31-9.64-3.86,5Z" x="1" y="1"
            style="fill:#891102" />
        <path d="M22.52,8.17c.82-2.59,1-6.39-3-7.09L16.13,2.92Z" x="1" y="1" style="fill:#aa1401" />
        <path d="M1,18.55c.13,4.31,3.16,4.37,4.49,4.43l-3.1-7.15Z" x="1" y="1" style="fill:#9e1209" />
        <path d="M8,14.56l3.41,6.52a19.12,19.12,0,0,0,5-3.86Z" x="1" y="1" style="fill:#900e04" />
        <path d="M2.39,15.83l-.5,5.76c.88,1.27,2.15,1.33,3.48,1.27C4.42,20.51,2.52,15.77,2.39,15.83Z" x="1" y="1"
            style="fill:#8b1104" />
    </symbol>
    <symbol id="icon-rust">
        <path x="1" y="1" fill="#000"
            d="M22.8485,11.728l-.9233-.5719q-.0115-.1347-.026-.2692l.7934-.74a.3193.3193,0,0,0-.1058-.53l-1.0143-.38q-.0377-.1315-.08-.2618l.6329-.8791a.3174.3174,0,0,0-.2069-.4994L20.85,7.4234q-.0625-.1213-.129-.24l.4491-.9868a.3154.3154,0,0,0-.025-.3082.32.32,0,0,0-.2756-.1411l-1.0858.0381q-.0836-.1059-.1717-.208l.25-1.0573a.3183.3183,0,0,0-.3823-.3825l-1.057.25q-.1035-.0869-.2088-.1717l.038-1.0861a.3155.3155,0,0,0-.4491-.3008l-.9865.45c-.08-.0436-.16-.0872-.24-.129l-.1744-1.07a.3193.3193,0,0,0-.4993-.207l-.88.6331q-.13-.0417-.2617-.0789l-.38-1.0146a.3191.3191,0,0,0-.53-.1058l-.74.7946q-.1342-.0151-.2691-.026L12.27,1.1507a.3175.3175,0,0,0-.54,0l-.5716.9237c-.09.0074-.18.0167-.2691.026l-.7406-.7946a.3173.3173,0,0,0-.53.1058l-.38,1.0146c-.0881.0251-.1744.052-.2617.0789L8.0986,1.872a.3194.3194,0,0,0-.4993.207l-.1744,1.07q-.1212.0625-.24.129l-.9865-.45a.3174.3174,0,0,0-.4491.3008l.038,1.0861c-.07.0557-.14.1133-.2088.1717l-1.057-.25a.3184.3184,0,0,0-.3823.3825l.2487,1.0573c-.0576.0687-.1151.1384-.1708.208L3.1309,5.7468a.3175.3175,0,0,0-.3007.4493l.45.9868q-.0664.1193-.129.24l-1.069.1736a.3194.3194,0,0,0-.207.4994l.6329.8791c-.0278.0873-.0538.1736-.08.2618l-1.0143.38a.3193.3193,0,0,0-.1058.53l.7935.74q-.0152.1344-.026.2692l-.9234.5719a.3156.3156,0,0,0,0,.54l.9234.5719c.0074.09.0167.18.026.2692l-.7935.7408a.3176.3176,0,0,0,.1058.53l1.0143.38c.0251.0882.052.1755.08.2618l-.6329.8791a.3167.3167,0,0,0,.2079.5l1.0691.1736c.0417.0807.0844.1606.129.24l-.45.9868a.3174.3174,0,0,0,.3007.4493l1.0848-.0381c.0566.0706.1132.14.1717.2089L4.14,19.4794a.3173.3173,0,0,0,.3823.3815l1.057-.2488c.0687.0585.1383.1151.2088.1708L5.75,20.8691a.3154.3154,0,0,0,.4492.3l.9864-.4493c.08.0446.16.0873.24.129L7.6,21.9181A.3191.3191,0,0,0,8.1,22.126l.8789-.6331c.0872.0279.1735.0548.2617.08l.38,1.0147a.3164.3164,0,0,0,.53.1058L10.89,21.9c.0891.01.1791.0186.2691.0269l.5717.9237a.3183.3183,0,0,0,.54,0l.5716-.9237c.09-.0083.18-.0167.2692-.0269l.74.7937a.3193.3193,0,0,0,.53-.1058l.38-1.0147c.0881-.025.1753-.0519.2617-.08l.8788.6331a.3165.3165,0,0,0,.4993-.2079l.1744-1.0695c.0808-.0417.1606-.0854.24-.129l.9865.4493a.3182.3182,0,0,0,.4491-.3l-.038-1.0862c.07-.0557.14-.1123.2079-.1708l1.057.2488a.3184.3184,0,0,0,.3823-.3815l-.2487-1.0583c.0575-.0687.1151-.1383.1708-.2089l1.0857.0381a.3156.3156,0,0,0,.3007-.4493l-.4491-.9868c.0436-.08.0872-.16.129-.24l1.069-.1736a.3195.3195,0,0,0,.207-.5l-.6329-.8791.08-.2618,1.0143-.38a.3176.3176,0,0,0,.1058-.53l-.7935-.7408c.0093-.0891.0186-.1792.026-.2692l.9234-.5719a.3156.3156,0,0,0,0-.54Zm-6.18,7.6613a.8514.8514,0,1,0-.001,0h.001Zm-.3137-2.1221a.5949.5949,0,0,0-.7067.4565l-.0005.0021-.3276,1.53a8.0579,8.0579,0,0,1-6.7049-.0316l-.3276-1.53a.5938.5938,0,0,0-.7039-.4583l-.0032.0007-1.35.29a8.0011,8.0011,0,0,1-.6979-.8234h6.57c.0742,0,.1244-.013.1244-.0808V14.2966c0-.0678-.0492-.0808-.1244-.0808H10.1811V12.7417H12.26A1.3058,1.3058,0,0,1,13.5377,13.85c.0826.324.2636,1.38.3879,1.7174.1235.3787.6264,1.1353,1.1628,1.1353h3.2741a.6867.6867,0,0,0,.1188-.0121,8.0593,8.0593,0,0,1-.7443.8736ZM7.2671,19.3578A.6547.6547,0,1,1,7.77,18.58a.6544.6544,0,0,1-.5025.7775ZM4.7744,9.2466a.6542.6542,0,1,1-1.1785.5686l-.0167-.0376a.6542.6542,0,0,1,1.1952-.531Zm-.7656,1.8167,1.4069-.6257a.5961.5961,0,0,0,.3029-.7865l0-.0007-.29-.6554h1.14v5.1373H4.27a8.0477,8.0477,0,0,1-.26-3.07Zm6.1732-.4985V9.0507h2.7135c.14,0,.9893.1624.9893.7974,0,.5273-.6515.7167-1.1869.7167Zm9.8611,1.3627c0,.2006-.0074.4-.0222.5969h-.825c-.0826,0-.116.0539-.116.1356v.3787c0,.8921-.503,1.0862-.9438,1.1354-.4195.0473-.8844-.1755-.942-.4326a2.8384,2.8384,0,0,0-1.3113-2.2039,2.9675,2.9675,0,0,0,1.6491-2.2845A2.5875,2.5875,0,0,0,16.27,7.13a3.5753,3.5753,0,0,0-1.7261-.5681H6.0124a8.0344,8.0344,0,0,1,4.4981-2.54l1.006,1.0555a.5937.5937,0,0,0,.84.0214l.002-.0019L13.483,4.02a8.0436,8.0436,0,0,1,5.504,3.9212l-.77,1.7405a.598.598,0,0,0,.3025.7873l1.483.6591c.026.2636.039.5291.039.7992ZM11.5174,3.1253a.6536.6536,0,0,1,.9021.9459h0a.6544.6544,0,0,1-.9021-.9459Zm7.6441,6.1528A.5626.5626,0,1,1,19.16,9.28l.0006-.0012Z" />
    </symbol>
    <symbol id="icon-mysql">
        <path
            d="m19.8,23H4.2c-1.8,0-3.2-1.4-3.2-3.2V4.2c0-1.8,1.4-3.2,3.2-3.2h15.6c1.8,0,3.2,1.4,3.2,3.2v15.6c0,1.8-1.4,3.2-3.2,3.2Z"
            style="fill: #e4e5e6; stroke: #000; stroke-miterlimit: 10; stroke-width: .15px;" />
        <path
            d="m6.2,13.2l-.9,2.9-.9-2.9h-.8c-.2,1.2-.3,2.5-.3,3.9h.6c0-1.1.1-2.1.1-3.1l1,3.1h.5l1-3.1c.1,1,.2,2,.2,3.1h.6c0-1.2-.1-2.4-.3-3.9h-.8Z"
            style="fill: #5d87a1;" />
        <path
            d="m9.6,14.3c-.1.8-.3,1.7-.6,2.4,0-.2-.1-.4-.1-.7l-.5-1.7h-.6l.7,2.2c.1.4.2.6.2.7,0,.1-.1.3-.2.4-.2.1-.3.2-.5.2h-.3v.3c.2.1.3.1.4.1.4,0,.8-.3,1.1-.8.4-.6.7-1.7,1-3.1h-.6Z"
            style="fill: #5d87a1;" />
        <polygon points="17.6 16.6 17.6 13.2 17 13.2 17 17.1 18.8 17.1 18.8 16.6 17.6 16.6" style="fill: #f8981d;" />
        <path
            d="m16,16.6c.3-.4.5-.9.5-1.6,0-1.3-.5-1.9-1.5-1.9-.5,0-.9.2-1.2.5-.3.4-.5.9-.5,1.6s.1,1.2.4,1.5c.2.3.6.4,1.1.4.2,0,.4,0,.5-.1l.9.5.3-.3-.7-.4q.1-.1.2-.2Zm-1.1.1c-.4,0-.6-.1-.7-.4-.2-.3-.2-.7-.2-1.2,0-1,.3-1.5.9-1.5.3,0,.5.1.7.4.2.3.2.7.2,1.2,0,1-.3,1.5-.9,1.5Z"
            style="fill: #f8981d;" />
        <path
            d="m11.7,14.5c-.3-.2-.5-.4-.5-.6s.1-.3.2-.4c.1-.1.3-.1.5-.1s.4.1.7.2l.1-.3c-.3-.2-.6-.3-1-.3s-.7.1-.9.3-.3.5-.3.8c0,.4.1.6.4.8,0,0,.5.4.8.5.3.2.5.4.5.6s-.1.3-.2.4c-.1.1-.3.2-.5.2s-.5,0-.8-.2l-.2.3c.4.3.7.4,1.1.4s.8-.1,1-.3c.3-.2.4-.5.4-.8s-.1-.6-.5-1c0,0-.5-.4-.8-.5Z"
            style="fill: #f8981d;" />
        <path d="m16.2,12.3c-.0334-.0333-.0667-.0667-.1-.1h0s.1.1.1.1Z" style="fill: #5d87a1;" />
        <path
            d="m18.2,10.7c-.1-.1-.1-.2-.2-.4-.1-.3-.3-.5-.4-.8-.1-.2-.1-.4-.2-.5-.5-.8-1-1.3-1.8-1.8-.2-.1-.4-.1-.6-.2h-.4c-.1,0-.2-.1-.2-.2-.3-.2-1-.5-1.2-.1-.1.3.2.6.3.8.1.1.2.2.2.4,0,.1,0,.2.1.2.2.4.2.6.3.8.1.1.1.2.2.3,0,.1.1.1.1.2-.1.1-.1.2-.1.4-.2.5-.1,1.2.1,1.6.1.1.3.4.5.3.2-.1.2-.4.2-.6v-.1c.1.1.1.3.2.4.1.2.4.5.6.6l.2.2c0-.1998-.1-.2999-.1-.4-.2-.3-.4-.6-.5-.9-.1-.1-.1-.3-.2-.5q0-.1-.1-.2c-.1.1-.2.2-.2.3-.1.2-.1.5-.1.7-.1,0-.2-.2-.3-.3-.1-.3-.2-.9,0-1.3,0-.1.2-.4.1-.5,0-.1-.1-.1-.2-.2-.1-.1-.1-.2-.2-.3-.1-.3-.2-.6-.3-.8-.1-.1-.2-.2-.2-.4-.1-.1-.2-.2-.3-.4,0-.1-.1-.1,0-.2,0,0,0-.1.1-.1.1-.1.2,0,.3,0,.2.1.3.1.5.2.1,0,.1.1.2.2h.1c.1,0,.3,0,.5.1.2.1.5.2.7.3.6.4,1.1.9,1.5,1.6.1.1.1.2.1.3.1.2.2.5.3.7.1.2.2.4.3.6.1.1.4.2.5.2.1,0,.2.1.3.1-.1-.1-.3-.2-.5-.2-.1,0-.2,0-.2-.1Z"
            style="fill: #5d87a1;" />
        <path
            d="m20,13.2l-.1-.1c-.1-.2-.3-.3-.5-.5-.2-.1-.5-.2-.5-.4.1,0,.2,0,.3-.1.2,0,.3,0,.5-.1.1,0,.2,0,.2-.1-.1-.1-.1-.2-.2-.3-.0834-.0834-.1913-.1667-.3022-.2501-.0585.352.2021.4551.2021.5501-.4,0-.7,0-.9.1-.1,0-.2,0-.2.1,0,0,0,.1.1.2.1.1.2.2.2.3.1.1.2.1.3.2.2.1.4.2.6.3.1.1.2.2.3.2s.1.1.1.1c0,0,0-.1-.1-.2Z"
            style="fill: #5d87a1;" />
        <path d="m18.9,11c.1749.1166.3427.2333.4978.3499.0031-.0186-.0028-.0298.0022-.0499-.2-.1-.3-.2-.5-.3Z"
            style="fill: #5d87a1;" />
        <path d="m14.8,7.9h-.2c0,.1.1.1.2.2,0,.1.1.1.1.2.1,0,.1-.1.1-.2q0-.1-.1-.1c0-.1-.1-.1-.1-.1Z"
            style="fill: #5d87a1;" />
    </symbol>
</svg>