<svg xmlns="http://www.w3.org/2000/svg">
    <symbol id="icon-arrow-down">
        <path fill="none" stroke="currentColor" stroke-width="1.5" d="M19.3,15.6l-7.3,6l-7.3-6 M12,21.7V2.3" />
    </symbol>
    <symbol id="icon-arrow-left">
        <path fill="none" stroke="currentColor" stroke-width="1.5" d="M8.4,19.2l-6-7.2l6-7.2 M2.4,12h19.2" />
    </symbol>
    <symbol id="icon-arrow-right">
        <path fill="none" stroke="currentColor" stroke-width="1.5" d="M15.6,4.8l6,7.2l-6,7.2 M21.6,12H2.4" />
    </symbol>
    <symbol id="icon-arrow-up">
        <path fill="none" stroke="currentColor" stroke-width="1.5" d="M4.7,8.4L12,2.3l7.3,6.1 M12,2.3v19.4" />
    </symbol>
    <symbol id="icon-sort">
        <path fill="none" stroke="currentColor" stroke-width="2.5" d="M19 9l-7 6-7-6" />
    </symbol>
    <symbol id="icon-check">
        <path fill="none" stroke="currentColor" stroke-width="2.5" d="M4 12l6 6.5L21 6" />
    </symbol>
    <symbol id="icon-cross">
        <path stroke="currentColor" stroke-width="2.5" d="M4 20L20 4M4 4l16 16" />
    </symbol>
    <symbol id="icon-pen">
        <path fill="none" stroke="currentColor" stroke-width="1.5"
            d="M19.425 4.075a3 3 0 0 0-4.243 0l-9.9 9.9L4 19.5l5.525-1.282 9.9-9.9a3 3 0 0 0 0-4.243zm-4.95.707l4.243 4.243m-2.122-2.121l-7.778 7.778" />
        <path fill="none" stroke="currentColor" stroke-width="1.5" d="M10 18l-1.182-3.318L5.5 13.5" />
    </symbol>
    <symbol id="icon-edit">
        <path fill="currentColor" fill-rule="evenodd" clip-rule="evenodd" d="M21.1,2.7c-1.2-1.2-3.1-1.2-4.2,0l-1.7,1.7l-6.5,6.5c-0.1,0.1-0.2,0.3-0.3,0.5l-1,4c-0.1,0.3,0,0.7,0.3,0.9
		c0.2,0.3,0.6,0.4,0.9,0.3l4-1c0.2,0,0.3-0.1,0.5-0.3l6.4-6.4l1.7-1.7C22.4,6,22.3,3.8,21.1,2.7L21.1,2.7z M18.3,4.1
		c0.4-0.4,1-0.4,1.4,0l0.2,0.2c0.4,0.4,0.4,1,0,1.4l-1,1l-1.6-1.6L18.3,4.1z M15.9,6.5l1.6,1.6l-5.6,5.6l-2.1,0.5l0.5-2.1L15.9,6.5z
		 M4,8c0-0.6,0.4-1,1-1h5c0.6,0,1-0.4,1-1s-0.4-1-1-1H5C3.3,5,2,6.3,2,8v11c0,1.7,1.3,3,3,3h11c1.7,0,3-1.3,3-3v-5c0-0.6-0.4-1-1-1
		s-1,0.4-1,1v5c0,0.6-0.4,1-1,1H5c-0.6,0-1-0.4-1-1V8z" />
    </symbol>
    <symbol id="icon-redirect">
        <path fill="currentColor" fill-rule="evenodd" clip-rule="evenodd"
            d="M14 5C13.4477 5 13 4.55228 13 4C13 3.44772 13.4477 3 14 3H20C20.5523 3 21 3.44772 21 4V10C21 10.5523 20.5523 11 20 11C19.4477 11 19 10.5523 19 10V6.41421L11.7071 13.7071C11.3166 14.0976 10.6834 14.0976 10.2929 13.7071C9.90237 13.3166 9.90237 12.6834 10.2929 12.2929L17.5858 5H14ZM5 7C4.44772 7 4 7.44772 4 8V19C4 19.5523 4.44772 20 5 20H16C16.5523 20 17 19.5523 17 19V14.4375C17 13.8852 17.4477 13.4375 18 13.4375C18.5523 13.4375 19 13.8852 19 14.4375V19C19 20.6569 17.6569 22 16 22H5C3.34315 22 2 20.6569 2 19V8C2 6.34315 3.34315 5 5 5H9.5625C10.1148 5 10.5625 5.44772 10.5625 6C10.5625 6.55228 10.1148 7 9.5625 7H5Z" />
    </symbol>
    <symbol id="icon-filePdf">
        <path fill="none" stroke="currentColor" stroke-width="1.5"
            d="M21 8h-5a1 1 0 0 1-1-1V2M3 21V3c0-.552.403-1 .9-1H16l5 5v14c0 .552-.403 1-.9 1H3.9c-.497 0-.9-.448-.9-1z" />
        <path fill="none" stroke="currentColor"
            d="M17.967 14.416c.83-3.353-14.113 1.112-11.704 3.353 2.41 2.24 7.229-12.573 3.787-11.735-3.443.838 7.087 11.735 7.917 8.382z" />
    </symbol>

    <!-- Globe -->
    <symbol id="icon-globe">
        <path fill="currentColor"
            d="M21.25 12A9.25 9.25 0 0 1 12 21.25v1.5c5.937 0 10.75-4.813 10.75-10.75h-1.5zM12 21.25A9.25 9.25 0 0 1 2.75 12h-1.5c0 5.937 4.813 10.75 10.75 10.75v-1.5zM2.75 12A9.25 9.25 0 0 1 12 2.75v-1.5C6.063 1.25 1.25 6.063 1.25 12h1.5zM12 2.75A9.25 9.25 0 0 1 21.25 12h1.5c0-5.937-4.813-10.75-10.75-10.75v1.5zm-2.58-.83C8.487 3.057 6.685 6.29 6.685 12h1.5c0-5.395 1.701-8.283 2.395-9.131l-1.162-.95zM6.685 12c0 5.721 1.84 8.917 2.719 10.062l1.19-.912c-.683-.891-2.41-3.767-2.41-9.15h-1.5zm6.719-9.15c.693.904 2.513 3.782 2.513 9.15h1.5c0-5.736-1.954-8.93-2.823-10.062l-1.19.912zM15.918 12c0 5.368-1.82 8.246-2.513 9.15l1.19.912c.869-1.133 2.823-4.326 2.823-10.062h-1.5zM2 12.75h20v-1.5H2v1.5zm1-5h18v-1.5H3v1.5zm0 10h18v-1.5H3v1.5z" />
    </symbol>
    <symbol id="icon-globe-filled">
        <path fill="currentColor" d="M16.2,7.4c-0.7-4.2-2.3-7.2-4.2-7.2s-3.5,3-4.2,7.2H16.2z M7.4,12c0,1.1,0.1,2.1,0.2,3h8.8c0.1-1,0.2-2,0.2-3
	s-0.1-2.1-0.2-3H7.6C7.5,9.9,7.4,10.9,7.4,12z M22.9,7.4c-1.4-3.2-4.1-5.7-7.5-6.7c1.2,1.6,2,4,2.4,6.7H22.9z M8.6,0.7
	c-3.4,1-6.2,3.5-7.5,6.7h5.1C6.7,4.7,7.5,2.3,8.6,0.7L8.6,0.7z M23.4,9h-5.5c0.1,1,0.2,2,0.2,3s-0.1,2-0.2,3h5.5c0.3-1,0.4-2,0.4-3
	S23.6,9.9,23.4,9L23.4,9z M5.9,12c0-1,0.1-2,0.2-3H0.6c-0.3,1-0.4,2-0.4,3s0.2,2.1,0.4,3h5.5C6,14,5.9,13,5.9,12z M7.8,16.6
	c0.7,4.2,2.3,7.2,4.2,7.2s3.5-3,4.2-7.2H7.8z M15.4,23.3c3.4-1,6.2-3.5,7.5-6.7h-5.1C17.3,19.3,16.5,21.7,15.4,23.3z M1.1,16.6
	c1.4,3.2,4.1,5.7,7.5,6.7c-1.2-1.6-2-4-2.4-6.7C6.3,16.6,1.1,16.6,1.1,16.6z" />
    </symbol>

    <symbol id="icon-earth">
        <path fill="currentColor" d="M22.7,8C22.5,7.5,22.3,7,22,6.5c-0.5-0.9-1.2-1.8-1.9-2.6c0,0,0,0-0.1-0.1h0c0,0,0,0-0.1-0.1l0,0c-0.1-0.1-0.1-0.1-0.2-0.2
		c-2-1.9-4.8-3-7.7-3c-1.7,0-3.4,0.4-4.9,1.1C7,1.7,6.9,1.8,6.8,1.8C5.8,2.4,4.8,3.1,3.9,3.9C2.7,5.2,1.7,6.7,1.2,8.4
		c0,0.1-0.1,0.2-0.1,0.3l0,0c0,0.1,0,0.1-0.1,0.2C1,9,1,9.1,0.9,9.3c0,0.1,0,0.1,0,0.2c-0.2,0.8-0.3,1.7-0.3,2.6
		c0,3.1,1.3,6,3.3,8.1c1.2,1.2,2.6,2.1,4.1,2.6c0,0,0.1,0,0.1,0.1C8.5,22.9,8.8,23,9.2,23c0.1,0,0.1,0,0.2,0
		c0.9,0.2,1.8,0.3,2.7,0.3c3.1,0,6-1.3,8.1-3.3c0.4-0.4,0.7-0.8,1-1.2c1.4-1.9,2.3-4.3,2.3-6.9C23.4,10.6,23.2,9.3,22.7,8z
		 M4.8,19.2c-1.8-1.8-3-4.4-3-7.2c0-0.5,0-1,0.1-1.5c0.3,0.2,1,0.6,1,0.6c0,0,0.1,0,0.1,0c0.1,0,0.1,0,0.2,0c0.1,0,0.1,0,0.2,0
		c0,0,0,0,0,0c0,0,0.1,0.1,0.1,0.1c0,0.1,0.1,0.2,0.2,0.2c0.1,0,0.3,0.1,0.5,0.1c0.1,0,0.2,0,0.2,0c0,0,0,0.1,0.1,0.2
		c0,0.1,0.1,0.3,0.2,0.4c0.1,0.1,0.4,0.4,0.6,0.5c0,0,0.1,0,0.1,0c0,0,0,0,0.1,0c0,0,0.3-0.2,0.4-0.2c0,0,0.1,0,0.1,0.1
		c0,0.2,0,0.7,0,0.8c0,0.1-0.2,0.3-0.5,0.5c0,0,0,0.1,0,0.1c0,0,0,0.7,0,1c0,0.3,0.5,0.9,0.6,1c0.1,0.1,0.2,0.5,0.3,0.6
		c0.1,0.1,0.6,0.5,1,0.8V19c0,0.2,0.1,0.3,0.1,0.4c0,0.1,0.1,0.1,0.1,0.2v1.2c0,0.2,0,0.3,0.1,0.4C6.6,20.7,5.6,20,4.8,19.2z
		 M20.8,7.8c-0.2-0.1-0.5-0.2-0.5-0.2l-0.2,0C19.9,7.3,20,6.8,19.6,7c-0.4,0.1-1.7,0.3-2,0.4c-0.3,0.1-0.6,0.5-0.9,0.9
		c-0.2,0.3-0.9,1.4-1,1.6c-0.1,0.2-0.2,1.2-0.2,1.5c0,0.3,1.2,1.5,1.6,1.5c0.4,0.1,1.5-0.2,1.8-0.3c0.3-0.1,0.5,0.3,0.7,0.3
		c0.2,0,0.5,0.1,0.3,0.5c-0.2,0.3-0.2,0.5,0,0.7c0.2,0.2,0.7,1.1,0.4,1.8c-0.3,0.7-0.1,1,0.1,1.3c0,0.1,0.1,0.1,0.1,0.2
		c-0.4,0.7-0.9,1.3-1.4,1.8c-1.8,1.8-4.4,3-7.2,3c-0.9,0-1.8-0.1-2.7-0.4c0,0,0,0,0,0c0-0.1,0-0.2-0.1-0.2c0.1,0,0.1-0.1,0.2-0.1
		c0.1-0.1,0.1-0.2,0.1-0.3l0.1,0c0.1,0,0.3,0,0.4-0.1c0.2-0.1,0.2-0.4,0.2-0.7c0,0,0,0,0,0c0,0,0,0,0.1,0c0.2,0,0.4-0.3,0.4-0.5
		c0-0.1,0.1-0.3,0.2-0.4c0.2-0.4,0.3-0.7,0.3-0.8c0-0.1,0.3-0.3,0.6-0.4c0.3-0.1,0.4-0.2,0.6-0.6c0.1-0.4,0.2-1,0.1-1.3
		c0-0.1,0.2-0.4,0.3-0.5c0.2-0.3,0.3-0.5,0.3-0.6c0-0.3-0.3-0.6-0.5-0.7c-0.2-0.1-0.6-0.2-0.8-0.2c-0.1,0-0.1,0-0.2,0
		c0,0-0.1-0.1-0.1-0.1c-0.1-0.1-0.2-0.2-0.4-0.2c0,0,0,0-0.1,0c-0.1,0-0.2,0-0.3,0.1c-0.1,0-0.2,0.1-0.2,0.1c0,0,0,0-0.1,0
		c0,0-0.1,0-0.1,0c0,0,0-0.1,0.1-0.1c0.1-0.1,0.2-0.2,0.1-0.5c-0.1-0.2-0.2-0.4-0.2-0.5c-0.2-0.3-0.5-0.3-0.6-0.3
		c-0.1,0-0.2,0-0.3,0l0,0c-0.1,0-0.2-0.1-0.3-0.3C9,12.2,8.9,12.1,8.8,12c-0.2-0.3-0.5-0.3-0.8-0.3c0,0-0.1,0-0.1,0c0,0-0.1,0-0.1,0
		c0,0-0.1,0-0.1,0c-0.1,0-0.2-0.1-0.4-0.2c-0.1-0.1-0.3-0.1-0.4-0.2l0,0c-0.2,0-0.3,0.2-0.6,0.5c-0.1,0.1-0.1,0.2-0.2,0.2
		c0,0,0,0,0,0c0-0.1-0.1-0.1-0.2-0.2c0,0,0,0-0.1,0c-0.1,0-0.2,0.1-0.2,0.1C5.6,12,5.5,12,5.5,12c0,0-0.1,0-0.1,0
		c-0.2-0.1-0.1-0.4-0.1-0.7c0-0.1,0-0.2,0-0.3c0-0.2-0.1-0.2-0.2-0.2c-0.1,0-0.1,0-0.2,0c-0.1,0-0.1,0.1-0.2,0.1c0,0-0.1,0-0.1,0
		c-0.1,0-0.1,0-0.1-0.1c0,0,0.1-0.2,0.1-0.3c0,0,0.1-0.1,0.1-0.1C4.9,10.2,5,10,4.9,9.9c0-0.1-0.1-0.1-0.2-0.1c0,0-0.1,0-0.1,0
		c0,0-0.1,0-0.1,0c0,0-0.1,0-0.1,0c0,0-0.1,0-0.1,0C4.1,9.8,4.1,10,4.1,10c0,0.2-0.2,0.4-0.4,0.4c0,0,0,0-0.1,0
		c-0.3,0-0.4-0.2-0.4-0.6c0-0.2,0-0.2,0.1-0.4c0-0.1,0.1-0.2,0.2-0.3c0.1-0.3,0.3-0.3,0.4-0.4c0,0,0.1,0,0.1-0.1c0,0,0.1,0,0.1,0
		c0,0,0,0,0.1,0c0,0,0.1,0,0.2,0c0,0,0,0,0.1,0c0.2,0,0.3-0.2,0.3-0.3c0,0,0,0,0,0c0,0,0,0,0,0c0.1,0,0.2,0.1,0.5,0.1
		c0.1,0,0.1,0,0.2,0c0,0.2,0,0.5,0.3,0.8c0.1,0.1,0.2,0.2,0.3,0.2c0.3,0,0.3-0.5,0.3-1c0-0.3,0.1-0.4,0.5-0.7l0,0
		C7,7.5,7.1,7.4,7.2,7.2C7.3,7,7.4,6.8,7.7,6.7c0.2-0.1,0.5-0.3,0.8-0.4C8.9,6.1,9.2,6,9.4,5.9c0.2-0.1,0.1-0.4,0.1-0.6
		C9.5,5,9.5,5,9.6,5c0.2,0,0.3-0.1,0.5-0.1c0.3,0,0.5-0.1,0.8-0.2c0.3-0.1,0.4-0.3,0.4-0.4c0-0.2-0.1-0.3-0.3-0.4
		c-0.1,0-0.1-0.2-0.1-0.3c0-0.2,0-0.3-0.1-0.5C10.7,3.1,10.6,3,10.5,3c-0.1,0-0.2,0.1-0.4,0.1c-0.1,0-0.2,0.1-0.3,0.1c0,0,0,0,0,0
		c0,0-0.1-0.1-0.1-0.2C9.6,2.9,9.5,2.6,9.2,2.6c0,0-0.1,0-0.1,0C8.7,2.7,8.6,3.1,8.5,3.4c0,0.1-0.1,0.3-0.1,0.3C8.2,3.7,8.1,3.9,8,4
		c0,0.1-0.1,0.2-0.2,0.3C7.7,4.4,7.7,4.4,7.7,4.4c0,0,0-0.2,0.1-0.4c0.1-0.1,0.1-0.3,0-0.4C7.7,3.5,7.5,3.5,7.3,3.5
		c-0.1,0-0.2,0-0.3,0c-0.2,0-0.2-0.1-0.2-0.1c0,0,0,0,0.1-0.1c1.5-0.9,3.3-1.4,5.2-1.4c2.3,0,4.4,0.8,6.1,2c0,0.1-0.1,0.3-0.2,0.4
		c-0.1,0.2-0.1,0.3-0.1,0.3s0.5-0.1,0.7-0.1c0,0,0.1-0.1,0.1-0.1c0.1,0,0.1,0.1,0.2,0.1c-0.1,0.1-0.3,0.3-0.3,0.3
		c-0.1,0.1-0.4,0.1-0.5,0.2c-0.1,0.1,0.3,0.3,0.3,0.3c0,0.1,0,0.5-0.2,0.5c-0.2,0-1,0-1,0s-0.3,0.9-0.2,1c0.1,0.1,0.4,0.3,0.7,0.3
		c0.2,0,0.7-0.3,0.7-0.3l0.2-0.5l0.5-0.5c0,0,0.3,0.1,0.5,0c0.1-0.1,0.3-0.2,0.3-0.2s0.2,0.4,0.4,0.5l0,0l0,0
		c0.2,0.2,0.3,0.5,0.5,0.7l0,0v0l0,0c0,0,0,0,0,0c0.2,0.4,0.4,0.8,0.6,1.2C21.2,8,21,7.9,20.8,7.8z" />
    </symbol>

    <!-- Appearance -->
    <symbol id="icon-appearance">
        <!--
        ViewBox is 1024-->
        <path fill="currentColor" d="M20.6,4.1c-2.3-2.3-5.4-3.6-8.7-3.5C5.7,0.6,0.6,5.7,0.6,12s5.1,11.4,11.3,11.4c1.3,0,2.5-0.9,2.9-2.1
		c0.2-0.9,0-1.9-0.6-2.6c-0.2-0.2-0.2-0.6,0.1-0.8c0.1-0.1,0.2-0.1,0.4-0.1h1.9c3.7,0,6.7-2.8,7-6.4C23.5,8.6,22.5,6,20.6,4.1z
		 M16.5,15.4h-1.9c-1.6,0-2.8,1.3-2.8,2.8c0,0.7,0.3,1.4,0.7,1.9c0.1,0.1,0.2,0.4,0.1,0.6c-0.1,0.2-0.3,0.4-0.7,0.4
		c-5-0.1-9-4.2-9-9.2c0-0.4,0-0.8,0.1-1.1C3.7,6.3,7.5,3,12,2.9h0.1c2.6,0,5.1,1,6.9,2.8c1.4,1.4,2.2,3.4,2.2,5.4
		C20.9,13.6,18.9,15.4,16.5,15.4z" />
        <path fill="currentColor" d="M10.4,5.7c0,0.9,0.8,1.7,1.7,1.7s1.7-0.8,1.7-1.7S13,4,12.1,4S10.4,4.8,10.4,5.7z" />
        <path fill="currentColor" d="M15.8,6.5C15,7,14.7,8.1,15.1,8.9c0.5,0.8,1.5,1.1,2.3,0.6C18.3,9,18.6,8,18.1,7.2C17.6,6.3,16.6,6.1,15.8,6.5
		C15.8,6.5,15.8,6.5,15.8,6.5z M8.4,6.5C7.6,6.1,6.5,6.4,6,7.2C5.6,8,5.9,9,6.7,9.5C7.5,10,8.5,9.7,9,8.9C9.5,8.1,9.2,7,8.4,6.5
		C8.4,6.5,8.4,6.5,8.4,6.5z M5.4,11.2c-0.8,0.5-1,1.6-0.5,2.4c0.5,0.8,1.6,1,2.4,0.5c0.8-0.5,1-1.6,0.5-2.4c0,0,0,0,0,0
		C7.3,10.8,6.2,10.6,5.4,11.2C5.4,11.2,5.4,11.2,5.4,11.2L5.4,11.2z" />
    </symbol>
    <symbol id="icon-cog">
        <path fill="currentColor"
            d="M12,15.5A3.5,3.5 0 0,1 8.5,12A3.5,3.5 0 0,1 12,8.5A3.5,3.5 0 0,1 15.5,12A3.5,3.5 0 0,1 12,15.5M19.43,12.97C19.47,12.65 19.5,12.33 19.5,12C19.5,11.67 19.47,11.34 19.43,11L21.54,9.37C21.73,9.22 21.78,8.95 21.66,8.73L19.66,5.27C19.54,5.05 19.27,4.96 19.05,5.05L16.56,6.05C16.04,5.66 15.5,5.32 14.87,5.07L14.5,2.42C14.46,2.18 14.25,2 14,2H10C9.75,2 9.54,2.18 9.5,2.42L9.13,5.07C8.5,5.32 7.96,5.66 7.44,6.05L4.95,5.05C4.73,4.96 4.46,5.05 4.34,5.27L2.34,8.73C2.21,8.95 2.27,9.22 2.46,9.37L4.57,11C4.53,11.34 4.5,11.67 4.5,12C4.5,12.33 4.53,12.65 4.57,12.97L2.46,14.63C2.27,14.78 2.21,15.05 2.34,15.27L4.34,18.73C4.46,18.95 4.73,19.03 4.95,18.95L7.44,17.94C7.96,18.34 8.5,18.68 9.13,18.93L9.5,21.58C9.54,21.82 9.75,22 10,22H14C14.25,22 14.46,21.82 14.5,21.58L14.87,18.93C15.5,18.67 16.04,18.34 16.56,17.94L19.05,18.95C19.27,19.03 19.54,18.95 19.66,18.73L21.66,15.27C21.78,15.05 21.73,14.78 21.54,14.63L19.43,12.97Z" />
    </symbol>
    <symbol id="icon-moon">
        <path fill="none" stroke="currentColor" stroke-linecap="round" stroke-width="1.5"
            d="M3 12a9 9 0 0 0 17.878 1.483.01.01 0 0 0-.013-.011A8 8 0 0 1 10.528 3.135a.01.01 0 0 0-.01-.013A9 9 0 0 0 3 12z" />
    </symbol>
    <symbol id="icon-moon-filled">
        <path fill="currentColor" stroke="currentColor" stroke-linecap="round" stroke-width="1.5"
            d="M3 12a9 9 0 0 0 17.878 1.483.01.01 0 0 0-.013-.011A8 8 0 0 1 10.528 3.135a.01.01 0 0 0-.01-.013A9 9 0 0 0 3 12z" />
    </symbol>
    <symbol id="icon-sun">
        <path fill="none" stroke="currentColor" stroke-width="1.5"
            d="M23 12h-3.5m-15 0H1m18.778-7.778l-2.475 2.475M6.697 17.303l-2.475 2.475M12 1v3.5m0 15V23M4.222 4.222l2.475 2.475m10.606 10.606l2.475 2.475M17 12a5 5 0 1 1-10 0 5 5 0 0 1 10 0z" />
    </symbol>
    <symbol id="icon-sun-filled">
        <path stroke="currentColor" stroke-width="1.5"
            d="M23 12h-3.5m-15 0H1m18.778-7.778l-2.475 2.475M6.697 17.303l-2.475 2.475M12 1v3.5m0 15V23M4.222 4.222l2.475 2.475m10.606 10.606l2.475 2.475" />
        <circle cx="12" cy="12" r="5" fill="currentColor" stroke="currentColor" stroke-width="1.5" />
    </symbol>

    <!-- Splash symbols -->
    <symbol id="icon-splash-black">
        <path fill="#000" stroke="#fff" stroke-width="0.25" stroke-miterlimit="10"
            d="M20,10.1c0,0.3,0.3,0.5,0.6,0.6c0.4,0,0.5-0.2,0.6-0.6c0.1-0.4,0-0.6-0.6-0.6C20.3,9.5,20,9.7,20,10.1z" />
        <path fill="#000" stroke="#fff" stroke-width="0.25" stroke-miterlimit="10" d="M18.1,17.3c-0.3,0-0.5,0.3-0.4,0.6c0.1,0.3,0.1,0.5,0.5,0.3c0.2-0.1,0.6,0,0.5-0.2c0,0-0.3-0.2-0.3-0.4
		C18.4,17.5,18.3,17.2,18.1,17.3z" />
        <path fill="#000" stroke="#fff" stroke-width="0.25" stroke-miterlimit="10" d="M17.9,19.4c-0.1,0-0.4-0.4-0.4-0.4c-0.4-0.3-0.8,0-0.7,0.5c0.1,0.2-0.1,0.4-0.1,0.5c0,0-0.6,0.5-0.3,0.6
		c0.2,0.1,0.4-0.1,0.4,0.2c0,0.2,0.7,0.3,0.8,0c0.1-0.3,0.2-0.4,0.6-0.3c0.1,0,0.1-0.3,0.1-0.4c0-0.1,0.3-0.2,0.2-0.3
		C18.4,19.5,18.4,19.3,17.9,19.4z" />
        <path fill="#000" stroke="#fff" stroke-width="0.25" stroke-miterlimit="10"
            d="M6.7,18.7c0.7-0.2,0.9,0.4,0.7,0.7c-0.2,0.5-0.4,0.8-0.7,0.7C5.8,19.9,6,20,6,19.5C6,19.4,6.1,18.9,6.7,18.7z" />
        <path fill="#000" stroke="#fff" stroke-width="0.25" stroke-miterlimit="10"
            d="M3.3,7.5C3.5,7.4,3.9,7.3,3.8,7C3.7,6.8,3.4,6.6,3.3,6.5C3,6.4,2.8,6.7,2.8,7C2.8,7.3,3.1,7.6,3.3,7.5z" />
        <path fill="#000" stroke="#fff" stroke-width="0.25" stroke-miterlimit="10"
            d="M8.1,5.2c0.3-0.1,0.6-0.3,0.7-0.7c0-0.3-0.3-0.6-0.7-0.7C7.6,3.8,7.5,4.2,7.4,4.5C7.3,4.9,7.5,5.4,8.1,5.2z" />
        <path fill="#000" stroke="#fff" stroke-width="0.25" stroke-miterlimit="10"
            d="M5.1,16.9c0.2,0.3,0.2,0.6-0.6,0.6c-0.4,0-0.6-0.2-0.6-0.6c0-0.4,0.2-0.6,0.6-0.6C4.8,16.4,5,16.6,5.1,16.9z" />
        <path fill="#000" stroke="#fff" stroke-width="0.25" stroke-miterlimit="10" d="M20.4,14c-2.1-0.7-2.5-0.5-3.5-1.4c-0.2-0.2-0.2-1,1.1-0.8c0.7,0.1,1.3-0.3,1.5-0.8c0.2-0.5-0.4-1-1.2-1
		c-0.3,0-0.6,0-0.9-0.2c-0.9-0.4-0.7-0.8-0.3-1.1c0,0,0.4-0.3,0.5-0.5c0.5-0.4,1.1-0.7,1.2-0.8c0,0,0,0,0,0c2.9-1.4,1.2-4.1-1.1-1.6
		c-1,1.1-1.5,1.5-2.1,1.9c-0.6,0.3-1.3,0-0.8-0.7c0.2-0.3,0.6-0.5,0.7-0.8c0.1-0.5-0.3-1-0.6-1S14.2,5.5,14,6c-0.2,1-0.8,0.9-1,0.6
		c-0.5-0.5,1.4-2.2,1.5-3.1c0.3-1.6-1.3-2.8-2.8-2.7c-1,0.1-2.4,1.4-2.3,3.4c0.1,2.5,0.9,3,0.3,3.2C8.9,7.8,8.5,7.7,6.9,6.6
		C6,6,5,6.5,4.8,7.2C4.7,7.8,5,8.4,5.1,8.5c0,0,0,0,0,0C5.2,8.6,5.5,8.7,6,9c0.5,0.3,0.6,1,0.1,1.6c-0.5,0.6-1,0.7-1.8,0.6
		c0,0,0,0,0,0c-3.3-0.2-2.7,3.4,0.3,2.5c0.2-0.1,0.4-0.1,0.5-0.1c0.5,0,1-0.1,1.3,0c0.4,0.1,0.7,0.4,0.8,0.8c0.1,0.5-0.1,1-0.6,1.3
		c-0.1,0.1-0.2,0.2-0.3,0.3c-0.7,1.1,1.1,2.8,2.1,0.7c0.5-1,1.9-0.7,1.5,0.2c-0.6,1.5-0.3,1.9,0.1,2.6c0.8,1.4-0.2,3.8,1.1,3.8
		c1.2,0,1.4-1.8,1.2-3.9c-0.1-0.8,0.4-1.6,0.9-1.9c0.5-0.2,1.1-0.2,1.3,0.2c0,0,0,0,0,0c0.3,0.7,1.1,0.8,1.6,0.6
		c0.3-0.1,0.5-0.3,0.6-0.6c0.2-0.4,0.3-1.1-0.4-1.8c-0.1-0.1-0.3-0.2-0.4-0.3c-1.1-0.6,0.1-1,1.1-0.8c1.1,0.2,1.4,0.9,2,1.4
		C21.1,17.7,23.5,15.1,20.4,14z" />
    </symbol>
    <symbol id="icon-splash-white">
        <path fill="#fff" stroke="#fff" stroke-width="0.25" stroke-miterlimit="10"
            d="M20,10.1c0,0.3,0.3,0.5,0.6,0.6c0.4,0,0.5-0.2,0.6-0.6c0.1-0.4,0-0.6-0.6-0.6C20.3,9.5,20,9.7,20,10.1z" />
        <path fill="#fff" stroke="#fff" stroke-width="0.25" stroke-miterlimit="10" d="M18.1,17.3c-0.3,0-0.5,0.3-0.4,0.6c0.1,0.3,0.1,0.5,0.5,0.3c0.2-0.1,0.6,0,0.5-0.2c0,0-0.3-0.2-0.3-0.4
		C18.4,17.5,18.3,17.2,18.1,17.3z" />
        <path fill="#fff" stroke="#fff" stroke-width="0.25" stroke-miterlimit="10" d="M17.9,19.4c-0.1,0-0.4-0.4-0.4-0.4c-0.4-0.3-0.8,0-0.7,0.5c0.1,0.2-0.1,0.4-0.1,0.5c0,0-0.6,0.5-0.3,0.6
		c0.2,0.1,0.4-0.1,0.4,0.2c0,0.2,0.7,0.3,0.8,0c0.1-0.3,0.2-0.4,0.6-0.3c0.1,0,0.1-0.3,0.1-0.4c0-0.1,0.3-0.2,0.2-0.3
		C18.4,19.5,18.4,19.3,17.9,19.4z" />
        <path fill="#fff" stroke="#fff" stroke-width="0.25" stroke-miterlimit="10"
            d="M6.7,18.7c0.7-0.2,0.9,0.4,0.7,0.7c-0.2,0.5-0.4,0.8-0.7,0.7C5.8,19.9,6,20,6,19.5C6,19.4,6.1,18.9,6.7,18.7z" />
        <path fill="#fff" stroke="#fff" stroke-width="0.25" stroke-miterlimit="10"
            d="M3.3,7.5C3.5,7.4,3.9,7.3,3.8,7C3.7,6.8,3.4,6.6,3.3,6.5C3,6.4,2.8,6.7,2.8,7C2.8,7.3,3.1,7.6,3.3,7.5z" />
        <path fill="#fff" stroke="#fff" stroke-width="0.25" stroke-miterlimit="10"
            d="M8.1,5.2c0.3-0.1,0.6-0.3,0.7-0.7c0-0.3-0.3-0.6-0.7-0.7C7.6,3.8,7.5,4.2,7.4,4.5C7.3,4.9,7.5,5.4,8.1,5.2z" />
        <path fill="#fff" stroke="#fff" stroke-width="0.25" stroke-miterlimit="10"
            d="M5.1,16.9c0.2,0.3,0.2,0.6-0.6,0.6c-0.4,0-0.6-0.2-0.6-0.6c0-0.4,0.2-0.6,0.6-0.6C4.8,16.4,5,16.6,5.1,16.9z" />
        <path fill="#fff" stroke="#fff" stroke-width="0.25" stroke-miterlimit="10" d="M20.4,14c-2.1-0.7-2.5-0.5-3.5-1.4c-0.2-0.2-0.2-1,1.1-0.8c0.7,0.1,1.3-0.3,1.5-0.8c0.2-0.5-0.4-1-1.2-1
		c-0.3,0-0.6,0-0.9-0.2c-0.9-0.4-0.7-0.8-0.3-1.1c0,0,0.4-0.3,0.5-0.5c0.5-0.4,1.1-0.7,1.2-0.8c0,0,0,0,0,0c2.9-1.4,1.2-4.1-1.1-1.6
		c-1,1.1-1.5,1.5-2.1,1.9c-0.6,0.3-1.3,0-0.8-0.7c0.2-0.3,0.6-0.5,0.7-0.8c0.1-0.5-0.3-1-0.6-1S14.2,5.5,14,6c-0.2,1-0.8,0.9-1,0.6
		c-0.5-0.5,1.4-2.2,1.5-3.1c0.3-1.6-1.3-2.8-2.8-2.7c-1,0.1-2.4,1.4-2.3,3.4c0.1,2.5,0.9,3,0.3,3.2C8.9,7.8,8.5,7.7,6.9,6.6
		C6,6,5,6.5,4.8,7.2C4.7,7.8,5,8.4,5.1,8.5c0,0,0,0,0,0C5.2,8.6,5.5,8.7,6,9c0.5,0.3,0.6,1,0.1,1.6c-0.5,0.6-1,0.7-1.8,0.6
		c0,0,0,0,0,0c-3.3-0.2-2.7,3.4,0.3,2.5c0.2-0.1,0.4-0.1,0.5-0.1c0.5,0,1-0.1,1.3,0c0.4,0.1,0.7,0.4,0.8,0.8c0.1,0.5-0.1,1-0.6,1.3
		c-0.1,0.1-0.2,0.2-0.3,0.3c-0.7,1.1,1.1,2.8,2.1,0.7c0.5-1,1.9-0.7,1.5,0.2c-0.6,1.5-0.3,1.9,0.1,2.6c0.8,1.4-0.2,3.8,1.1,3.8
		c1.2,0,1.4-1.8,1.2-3.9c-0.1-0.8,0.4-1.6,0.9-1.9c0.5-0.2,1.1-0.2,1.3,0.2c0,0,0,0,0,0c0.3,0.7,1.1,0.8,1.6,0.6
		c0.3-0.1,0.5-0.3,0.6-0.6c0.2-0.4,0.3-1.1-0.4-1.8c-0.1-0.1-0.3-0.2-0.4-0.3c-1.1-0.6,0.1-1,1.1-0.8c1.1,0.2,1.4,0.9,2,1.4
		C21.1,17.7,23.5,15.1,20.4,14z" />
    </symbol>
    <symbol id="icon-splash-purple">
        <path fill="purple" stroke="#fff" stroke-width="0.25" stroke-miterlimit="10"
            d="M20,10.1c0,0.3,0.3,0.5,0.6,0.6c0.4,0,0.5-0.2,0.6-0.6c0.1-0.4,0-0.6-0.6-0.6C20.3,9.5,20,9.7,20,10.1z" />
        <path fill="purple" stroke="#fff" stroke-width="0.25" stroke-miterlimit="10" d="M18.1,17.3c-0.3,0-0.5,0.3-0.4,0.6c0.1,0.3,0.1,0.5,0.5,0.3c0.2-0.1,0.6,0,0.5-0.2c0,0-0.3-0.2-0.3-0.4
		C18.4,17.5,18.3,17.2,18.1,17.3z" />
        <path fill="purple" stroke="#fff" stroke-width="0.25" stroke-miterlimit="10" d="M17.9,19.4c-0.1,0-0.4-0.4-0.4-0.4c-0.4-0.3-0.8,0-0.7,0.5c0.1,0.2-0.1,0.4-0.1,0.5c0,0-0.6,0.5-0.3,0.6
		c0.2,0.1,0.4-0.1,0.4,0.2c0,0.2,0.7,0.3,0.8,0c0.1-0.3,0.2-0.4,0.6-0.3c0.1,0,0.1-0.3,0.1-0.4c0-0.1,0.3-0.2,0.2-0.3
		C18.4,19.5,18.4,19.3,17.9,19.4z" />
        <path fill="purple" stroke="#fff" stroke-width="0.25" stroke-miterlimit="10"
            d="M6.7,18.7c0.7-0.2,0.9,0.4,0.7,0.7c-0.2,0.5-0.4,0.8-0.7,0.7C5.8,19.9,6,20,6,19.5C6,19.4,6.1,18.9,6.7,18.7z" />
        <path fill="purple" stroke="#fff" stroke-width="0.25" stroke-miterlimit="10"
            d="M3.3,7.5C3.5,7.4,3.9,7.3,3.8,7C3.7,6.8,3.4,6.6,3.3,6.5C3,6.4,2.8,6.7,2.8,7C2.8,7.3,3.1,7.6,3.3,7.5z" />
        <path fill="purple" stroke="#fff" stroke-width="0.25" stroke-miterlimit="10"
            d="M8.1,5.2c0.3-0.1,0.6-0.3,0.7-0.7c0-0.3-0.3-0.6-0.7-0.7C7.6,3.8,7.5,4.2,7.4,4.5C7.3,4.9,7.5,5.4,8.1,5.2z" />
        <path fill="purple" stroke="#fff" stroke-width="0.25" stroke-miterlimit="10"
            d="M5.1,16.9c0.2,0.3,0.2,0.6-0.6,0.6c-0.4,0-0.6-0.2-0.6-0.6c0-0.4,0.2-0.6,0.6-0.6C4.8,16.4,5,16.6,5.1,16.9z" />
        <path fill="purple" stroke="#fff" stroke-width="0.25" stroke-miterlimit="10" d="M20.4,14c-2.1-0.7-2.5-0.5-3.5-1.4c-0.2-0.2-0.2-1,1.1-0.8c0.7,0.1,1.3-0.3,1.5-0.8c0.2-0.5-0.4-1-1.2-1
		c-0.3,0-0.6,0-0.9-0.2c-0.9-0.4-0.7-0.8-0.3-1.1c0,0,0.4-0.3,0.5-0.5c0.5-0.4,1.1-0.7,1.2-0.8c0,0,0,0,0,0c2.9-1.4,1.2-4.1-1.1-1.6
		c-1,1.1-1.5,1.5-2.1,1.9c-0.6,0.3-1.3,0-0.8-0.7c0.2-0.3,0.6-0.5,0.7-0.8c0.1-0.5-0.3-1-0.6-1S14.2,5.5,14,6c-0.2,1-0.8,0.9-1,0.6
		c-0.5-0.5,1.4-2.2,1.5-3.1c0.3-1.6-1.3-2.8-2.8-2.7c-1,0.1-2.4,1.4-2.3,3.4c0.1,2.5,0.9,3,0.3,3.2C8.9,7.8,8.5,7.7,6.9,6.6
		C6,6,5,6.5,4.8,7.2C4.7,7.8,5,8.4,5.1,8.5c0,0,0,0,0,0C5.2,8.6,5.5,8.7,6,9c0.5,0.3,0.6,1,0.1,1.6c-0.5,0.6-1,0.7-1.8,0.6
		c0,0,0,0,0,0c-3.3-0.2-2.7,3.4,0.3,2.5c0.2-0.1,0.4-0.1,0.5-0.1c0.5,0,1-0.1,1.3,0c0.4,0.1,0.7,0.4,0.8,0.8c0.1,0.5-0.1,1-0.6,1.3
		c-0.1,0.1-0.2,0.2-0.3,0.3c-0.7,1.1,1.1,2.8,2.1,0.7c0.5-1,1.9-0.7,1.5,0.2c-0.6,1.5-0.3,1.9,0.1,2.6c0.8,1.4-0.2,3.8,1.1,3.8
		c1.2,0,1.4-1.8,1.2-3.9c-0.1-0.8,0.4-1.6,0.9-1.9c0.5-0.2,1.1-0.2,1.3,0.2c0,0,0,0,0,0c0.3,0.7,1.1,0.8,1.6,0.6
		c0.3-0.1,0.5-0.3,0.6-0.6c0.2-0.4,0.3-1.1-0.4-1.8c-0.1-0.1-0.3-0.2-0.4-0.3c-1.1-0.6,0.1-1,1.1-0.8c1.1,0.2,1.4,0.9,2,1.4
		C21.1,17.7,23.5,15.1,20.4,14z" />
    </symbol>
    <symbol id="icon-splash-orange">
        <path fill="orange" stroke="#fff" stroke-width="0.25" stroke-miterlimit="10"
            d="M20,10.1c0,0.3,0.3,0.5,0.6,0.6c0.4,0,0.5-0.2,0.6-0.6c0.1-0.4,0-0.6-0.6-0.6C20.3,9.5,20,9.7,20,10.1z" />
        <path fill="orange" stroke="#fff" stroke-width="0.25" stroke-miterlimit="10" d="M18.1,17.3c-0.3,0-0.5,0.3-0.4,0.6c0.1,0.3,0.1,0.5,0.5,0.3c0.2-0.1,0.6,0,0.5-0.2c0,0-0.3-0.2-0.3-0.4
		C18.4,17.5,18.3,17.2,18.1,17.3z" />
        <path fill="orange" stroke="#fff" stroke-width="0.25" stroke-miterlimit="10" d="M17.9,19.4c-0.1,0-0.4-0.4-0.4-0.4c-0.4-0.3-0.8,0-0.7,0.5c0.1,0.2-0.1,0.4-0.1,0.5c0,0-0.6,0.5-0.3,0.6
		c0.2,0.1,0.4-0.1,0.4,0.2c0,0.2,0.7,0.3,0.8,0c0.1-0.3,0.2-0.4,0.6-0.3c0.1,0,0.1-0.3,0.1-0.4c0-0.1,0.3-0.2,0.2-0.3
		C18.4,19.5,18.4,19.3,17.9,19.4z" />
        <path fill="orange" stroke="#fff" stroke-width="0.25" stroke-miterlimit="10"
            d="M6.7,18.7c0.7-0.2,0.9,0.4,0.7,0.7c-0.2,0.5-0.4,0.8-0.7,0.7C5.8,19.9,6,20,6,19.5C6,19.4,6.1,18.9,6.7,18.7z" />
        <path fill="orange" stroke="#fff" stroke-width="0.25" stroke-miterlimit="10"
            d="M3.3,7.5C3.5,7.4,3.9,7.3,3.8,7C3.7,6.8,3.4,6.6,3.3,6.5C3,6.4,2.8,6.7,2.8,7C2.8,7.3,3.1,7.6,3.3,7.5z" />
        <path fill="orange" stroke="#fff" stroke-width="0.25" stroke-miterlimit="10"
            d="M8.1,5.2c0.3-0.1,0.6-0.3,0.7-0.7c0-0.3-0.3-0.6-0.7-0.7C7.6,3.8,7.5,4.2,7.4,4.5C7.3,4.9,7.5,5.4,8.1,5.2z" />
        <path fill="orange" stroke="#fff" stroke-width="0.25" stroke-miterlimit="10"
            d="M5.1,16.9c0.2,0.3,0.2,0.6-0.6,0.6c-0.4,0-0.6-0.2-0.6-0.6c0-0.4,0.2-0.6,0.6-0.6C4.8,16.4,5,16.6,5.1,16.9z" />
        <path fill="orange" stroke="#fff" stroke-width="0.25" stroke-miterlimit="10" d="M20.4,14c-2.1-0.7-2.5-0.5-3.5-1.4c-0.2-0.2-0.2-1,1.1-0.8c0.7,0.1,1.3-0.3,1.5-0.8c0.2-0.5-0.4-1-1.2-1
		c-0.3,0-0.6,0-0.9-0.2c-0.9-0.4-0.7-0.8-0.3-1.1c0,0,0.4-0.3,0.5-0.5c0.5-0.4,1.1-0.7,1.2-0.8c0,0,0,0,0,0c2.9-1.4,1.2-4.1-1.1-1.6
		c-1,1.1-1.5,1.5-2.1,1.9c-0.6,0.3-1.3,0-0.8-0.7c0.2-0.3,0.6-0.5,0.7-0.8c0.1-0.5-0.3-1-0.6-1S14.2,5.5,14,6c-0.2,1-0.8,0.9-1,0.6
		c-0.5-0.5,1.4-2.2,1.5-3.1c0.3-1.6-1.3-2.8-2.8-2.7c-1,0.1-2.4,1.4-2.3,3.4c0.1,2.5,0.9,3,0.3,3.2C8.9,7.8,8.5,7.7,6.9,6.6
		C6,6,5,6.5,4.8,7.2C4.7,7.8,5,8.4,5.1,8.5c0,0,0,0,0,0C5.2,8.6,5.5,8.7,6,9c0.5,0.3,0.6,1,0.1,1.6c-0.5,0.6-1,0.7-1.8,0.6
		c0,0,0,0,0,0c-3.3-0.2-2.7,3.4,0.3,2.5c0.2-0.1,0.4-0.1,0.5-0.1c0.5,0,1-0.1,1.3,0c0.4,0.1,0.7,0.4,0.8,0.8c0.1,0.5-0.1,1-0.6,1.3
		c-0.1,0.1-0.2,0.2-0.3,0.3c-0.7,1.1,1.1,2.8,2.1,0.7c0.5-1,1.9-0.7,1.5,0.2c-0.6,1.5-0.3,1.9,0.1,2.6c0.8,1.4-0.2,3.8,1.1,3.8
		c1.2,0,1.4-1.8,1.2-3.9c-0.1-0.8,0.4-1.6,0.9-1.9c0.5-0.2,1.1-0.2,1.3,0.2c0,0,0,0,0,0c0.3,0.7,1.1,0.8,1.6,0.6
		c0.3-0.1,0.5-0.3,0.6-0.6c0.2-0.4,0.3-1.1-0.4-1.8c-0.1-0.1-0.3-0.2-0.4-0.3c-1.1-0.6,0.1-1,1.1-0.8c1.1,0.2,1.4,0.9,2,1.4
		C21.1,17.7,23.5,15.1,20.4,14z" />
    </symbol>

    <!-- Color circles -->
    <symbol id="icon-circle-black">
        <circle fill="black" cx="12" cy="12" r="12" />
    </symbol>
    <symbol id="icon-circle-white">
        <circle fill="white" cx="12" cy="12" r="12" />
    </symbol>
    <symbol id="icon-circle-purple">
        <circle fill="purple" cx="12" cy="12" r="12" />
    </symbol>
    <symbol id="icon-circle-orange">
        <circle fill="orange" cx="12" cy="12" r="12" />
    </symbol>

    <!-- Location -->
    <symbol id="icon-location">
        <path fill="none" stroke="currentColor" stroke-linecap="round" stroke-width="1.5"
            d="M20.163 10.314C20.163 16.965 12 21.5 12 21.5s-8.163-4.535-8.163-11.186C3.837 5.722 7.492 2 12 2c4.508 0 8.163 3.722 8.163 8.314z" />
        <circle fill="none" cx="12" cy="10" r="3" stroke="currentColor" stroke-linecap="round" stroke-width="1.5" />
    </symbol>
    <symbol id="icon-location-filled">
        <path fill="currentColor" fill-rule="evenodd"
            d="M11.635 22.155L12 21.5l.364.656-.364.202-.365-.203zm0 0L12 21.5c.364.656.365.655.365.655l.002-.001.006-.003.021-.012.075-.043a21.297 21.297 0 0 0 1.233-.791 23.49 23.49 0 0 0 2.9-2.364c2.09-2.012 4.31-4.994 4.31-8.627 0-4.993-3.977-9.064-8.912-9.064-4.935 0-8.913 4.071-8.913 9.064 0 3.633 2.221 6.615 4.311 8.627a23.49 23.49 0 0 0 3.859 2.99 14.935 14.935 0 0 0 .349.208l.02.012.007.003.002.001zM10.03 10.163a1.97 1.97 0 1 1 3.942 0 1.97 1.97 0 0 1-3.942 0zM12 6.692a3.47 3.47 0 1 0 0 6.942 3.47 3.47 0 0 0 0-6.942z"
            clip-rule="evenodd" />
    </symbol>

    <!-- Settings -->
    <symbol id="icon-sliders">
        <path stroke="currentColor" stroke-width="1.5"
            d="M3 12h2.724M21 12H10.078M3 18h10.849M21 18h-2.826M3 6h7.632M21 6h-6.014" />
        <rect fill="none" width="4" height="4" x="15" y="4" stroke="currentColor" stroke-linecap="round"
            stroke-width="1.5" rx="2" transform="rotate(90 15 4)" />
        <rect fill="none" width="4" height="4" x="18" y="16" stroke="currentColor" stroke-linecap="round"
            stroke-width="1.5" rx="2" transform="rotate(90 18 16)" />
        <rect fill="none" width="4" height="4" x="10" y="10" stroke="currentColor" stroke-linecap="round"
            stroke-width="1.5" rx="2" transform="rotate(90 10 10)" />
    </symbol>
    <symbol id="icon-settings">
        <path fill="none" stroke="currentColor" stroke-linecap="round" stroke-width="1.5"
            d="M19.542 8.876a2.085 2.085 0 0 1 .122-1.797c.293-.527.487-1.229.092-1.684a10.252 10.252 0 0 0-1.243-1.214c-.438-.358-1.07-.174-1.544.133a2.152 2.152 0 0 1-1.876.22 2.06 2.06 0 0 1-1.183-1.359c-.16-.591-.51-1.246-1.121-1.292-.53-.04-1.06-.046-1.58-.018-.609.032-.97.669-1.131 1.257a2.017 2.017 0 0 1-1.202 1.336 2.085 2.085 0 0 1-1.797-.122c-.527-.293-1.229-.487-1.684-.092-.447.388-.855.804-1.214 1.243-.358.438-.17 1.068.13 1.547.33.526.402 1.186.09 1.818a1.828 1.828 0 0 1-1.35 1.223c-.55.126-1.13.439-1.185 1.001a10.254 10.254 0 0 0-.02 1.738c.042.601.673.95 1.256 1.103.582.152 1.09.566 1.356 1.207a2.016 2.016 0 0 1-.105 1.813c-.305.52-.504 1.213-.109 1.668.388.447.804.855 1.243 1.215.438.357 1.07.173 1.544-.134a2.152 2.152 0 0 1 1.876-.22c.582.241 1.02.756 1.183 1.359.16.591.51 1.246 1.121 1.292.53.04 1.06.046 1.58.018.609-.032.97-.669 1.131-1.257a2.016 2.016 0 0 1 1.202-1.336 2.085 2.085 0 0 1 1.798.122c.526.293 1.228.487 1.683.092.447-.388.855-.804 1.215-1.243.357-.438.173-1.07-.134-1.544a2.152 2.152 0 0 1-.22-1.876 2.058 2.058 0 0 1 1.359-1.183c.591-.16 1.246-.51 1.292-1.121.04-.53.046-1.06.018-1.58-.032-.609-.671-.981-1.256-1.154a2.084 2.084 0 0 1-1.337-1.179z" />
        <circle fill="none" cx="12" cy="12" r="4" stroke="currentColor" stroke-width="1.5" />
    </symbol>
    <symbol id="icon-settings-filled">
        <path fill="currentColor" fill-rule="evenodd"
            d="M7.679 4.07a3.163 3.163 0 0 0-1.11-.375c-.42-.05-.932.012-1.356.382-.443.385-.85.8-1.212 1.24-.34.414-.394.9-.336 1.304.057.394.224.76.4 1.046.182.299.219.655.042 1.011l-.021.044-.016.046a1.012 1.012 0 0 1-.746.685 2.827 2.827 0 0 0-1.021.457c-.328.245-.632.626-.684 1.16a10.424 10.424 0 0 0-.021 1.733c.039.563.358.967.695 1.227.33.255.722.412 1.06.505.329.09.626.327.79.72.162.393.119.77-.05 1.068-.173.303-.34.692-.393 1.105-.054.422.006.934.377 1.36.385.442.8.848 1.24 1.211.413.34.898.396 1.304.337a2.754 2.754 0 0 0 1.052-.408 1.319 1.319 0 0 1 1.124-.133c.322.141.577.437.676.788.095.336.253.733.508 1.068.258.34.664.673 1.236.715.521.04 1.04.044 1.55.018.57-.029.983-.347 1.25-.683.26-.33.424-.725.521-1.065.093-.325.328-.617.717-.778a1.256 1.256 0 0 1 1.066.072c.306.166.696.326 1.11.375.42.05.932-.012 1.356-.382.443-.385.85-.8 1.212-1.24.34-.413.395-.898.337-1.304a2.753 2.753 0 0 0-.408-1.052 1.319 1.319 0 0 1-.133-1.124c.141-.322.437-.577.788-.676a3.253 3.253 0 0 0 1.068-.508c.34-.258.673-.664.715-1.236.04-.521.044-1.04.018-1.55-.029-.57-.346-.983-.678-1.251a3.185 3.185 0 0 0-1.055-.538 1.255 1.255 0 0 1-.793-.699 1.256 1.256 0 0 1 .072-1.066c.166-.306.326-.696.375-1.11.05-.42-.012-.932-.382-1.356-.385-.443-.8-.85-1.24-1.212-.413-.34-.898-.395-1.304-.337a2.754 2.754 0 0 0-1.052.408 1.32 1.32 0 0 1-1.124.133 1.234 1.234 0 0 1-.676-.788 3.253 3.253 0 0 0-.508-1.068c-.258-.34-.664-.673-1.236-.715-.521-.04-1.04-.044-1.55-.018-.57.029-.983.347-1.25.683a3.13 3.13 0 0 0-.521 1.065 1.193 1.193 0 0 1-.717.778A1.257 1.257 0 0 1 7.68 4.07zm1.318 9.174a3.25 3.25 0 1 1 6.006-2.488 3.25 3.25 0 0 1-6.006 2.488zm1.185-5.632a4.75 4.75 0 1 0 3.636 8.776 4.75 4.75 0 0 0-3.636-8.776z"
            clip-rule="evenodd" />
    </symbol>

    <!-- Logo's -->
    <symbol id="icon-twitter">
        <path fill="currentColor"
            d="M8.216 20c7.458 0 11.537-6.156 11.537-11.495 0-.175 0-.349-.011-.522a8.233 8.233 0 0 0 2.023-2.091c-.74.327-1.526.54-2.33.635a4.057 4.057 0 0 0 1.783-2.234 8.145 8.145 0 0 1-2.575.98 4.07 4.07 0 0 0-4.872-.794 4.038 4.038 0 0 0-2.038 4.48 11.527 11.527 0 0 1-8.357-4.222A4.034 4.034 0 0 0 4.63 10.13a4.036 4.036 0 0 1-1.84-.506v.052a4.045 4.045 0 0 0 3.253 3.96 4.063 4.063 0 0 1-1.831.07A4.058 4.058 0 0 0 8 16.51a8.156 8.156 0 0 1-6 1.675 11.51 11.51 0 0 0 6.216 1.812" />
    </symbol>
    <symbol id="icon-github">
        <path fill="currentColor"
            d="M12,2A10,10 0 0,0 2,12C2,16.42 4.87,20.17 8.84,21.5C9.34,21.58 9.5,21.27 9.5,21C9.5,20.77 9.5,20.14 9.5,19.31C6.73,19.91 6.14,17.97 6.14,17.97C5.68,16.81 5.03,16.5 5.03,16.5C4.12,15.88 5.1,15.9 5.1,15.9C6.1,15.97 6.63,16.93 6.63,16.93C7.5,18.45 8.97,18 9.54,17.76C9.63,17.11 9.89,16.67 10.17,16.42C7.95,16.17 5.62,15.31 5.62,11.5C5.62,10.39 6,9.5 6.65,8.79C6.55,8.54 6.2,7.5 6.75,6.15C6.75,6.15 7.59,5.88 9.5,7.17C10.29,6.95 11.15,6.84 12,6.84C12.85,6.84 13.71,6.95 14.5,7.17C16.41,5.88 17.25,6.15 17.25,6.15C17.8,7.5 17.45,8.54 17.35,8.79C18,9.5 18.38,10.39 18.38,11.5C18.38,15.32 16.04,16.16 13.81,16.41C14.17,16.72 14.5,17.33 14.5,18.26C14.5,19.6 14.5,20.68 14.5,21C14.5,21.27 14.66,21.59 15.17,21.5C19.14,20.16 22,16.42 22,12A10,10 0 0,0 12,2Z" />
    </symbol>
    <symbol id="icon-steam">
        <path fill="currentColor"
            d="M12,2A10,10 0 0,1 22,12A10,10 0 0,1 12,22C7.4,22 3.55,18.92 2.36,14.73L6.19,16.31C6.45,17.6 7.6,18.58 8.97,18.58C10.53,18.58 11.8,17.31 11.8,15.75V15.62L15.2,13.19H15.28C17.36,13.19 19.05,11.5 19.05,9.42C19.05,7.34 17.36,5.65 15.28,5.65C13.2,5.65 11.5,7.34 11.5,9.42V9.47L9.13,12.93L8.97,12.92C8.38,12.92 7.83,13.1 7.38,13.41L2,11.2C2.43,6.05 6.73,2 12,2M8.28,17.17C9.08,17.5 10,17.13 10.33,16.33C10.66,15.53 10.28,14.62 9.5,14.29L8.22,13.76C8.71,13.58 9.26,13.57 9.78,13.79C10.31,14 10.72,14.41 10.93,14.94C11.15,15.46 11.15,16.04 10.93,16.56C10.5,17.64 9.23,18.16 8.15,17.71C7.65,17.5 7.27,17.12 7.06,16.67L8.28,17.17M17.8,9.42C17.8,10.81 16.67,11.94 15.28,11.94C13.9,11.94 12.77,10.81 12.77,9.42A2.5,2.5 0 0,1 15.28,6.91C16.67,6.91 17.8,8.04 17.8,9.42M13.4,9.42C13.4,10.46 14.24,11.31 15.29,11.31C16.33,11.31 17.17,10.46 17.17,9.42C17.17,8.38 16.33,7.53 15.29,7.53C14.24,7.53 13.4,8.38 13.4,9.42Z" />
    </symbol>
    <symbol id="icon-youtube">
        <path fill="currentColor"
            d="M10,15L15.19,12L10,9V15M21.56,7.17C21.69,7.64 21.78,8.27 21.84,9.07C21.91,9.87 21.94,10.56 21.94,11.16L22,12C22,14.19 21.84,15.8 21.56,16.83C21.31,17.73 20.73,18.31 19.83,18.56C19.36,18.69 18.5,18.78 17.18,18.84C15.88,18.91 14.69,18.94 13.59,18.94L12,19C7.81,19 5.2,18.84 4.17,18.56C3.27,18.31 2.69,17.73 2.44,16.83C2.31,16.36 2.22,15.73 2.16,14.93C2.09,14.13 2.06,13.44 2.06,12.84L2,12C2,9.81 2.16,8.2 2.44,7.17C2.69,6.27 3.27,5.69 4.17,5.44C4.64,5.31 5.5,5.22 6.82,5.16C8.12,5.09 9.31,5.06 10.41,5.06L12,5C16.19,5 18.8,5.16 19.83,5.44C20.73,5.69 21.31,6.27 21.56,7.17Z" />
    </symbol>
    <symbol id="icon-phone">
        <path fill="currentColor"
            d="M20.9995 19.1864V16.4767C21.0105 16.0337 20.858 15.6021 20.5709 15.264C19.7615 14.3106 16.9855 13.7008 15.8851 13.935C15.0274 14.1176 14.4272 14.9788 13.8405 15.5644C11.5747 14.2785 9.69864 12.4062 8.41026 10.1448C8.99696 9.55929 9.85994 8.96036 10.0429 8.10428C10.2772 7.00777 9.66819 4.24949 8.72138 3.43684C8.38835 3.151 7.96253 2.99577 7.52331 3.00009H4.80817C3.77364 3.00106 2.91294 3.92895 3.00713 4.96919C3.00006 13.935 10.0001 21 19.0265 20.9929C20.0723 21.0873 21.0037 20.2223 20.9995 19.1864Z" />
    </symbol>
    <symbol id="icon-discord">
        <path fill="currentColor"
            d="M18.59 5.88997C17.36 5.31997 16.05 4.89997 14.67 4.65997C14.5 4.95997 14.3 5.36997 14.17 5.69997C12.71 5.47997 11.26 5.47997 9.83001 5.69997C9.69001 5.36997 9.49001 4.95997 9.32001 4.65997C7.94001 4.89997 6.63001 5.31997 5.40001 5.88997C2.92001 9.62997 2.25001 13.28 2.58001 16.87C4.23001 18.1 5.82001 18.84 7.39001 19.33C7.78001 18.8 8.12001 18.23 8.42001 17.64C7.85001 17.43 7.31001 17.16 6.80001 16.85C6.94001 16.75 7.07001 16.64 7.20001 16.54C10.33 18 13.72 18 16.81 16.54C16.94 16.65 17.07 16.75 17.21 16.85C16.7 17.16 16.15 17.42 15.59 17.64C15.89 18.23 16.23 18.8 16.62 19.33C18.19 18.84 19.79 18.1 21.43 16.87C21.82 12.7 20.76 9.08997 18.61 5.88997H18.59ZM8.84001 14.67C7.90001 14.67 7.13001 13.8 7.13001 12.73C7.13001 11.66 7.88001 10.79 8.84001 10.79C9.80001 10.79 10.56 11.66 10.55 12.73C10.55 13.79 9.80001 14.67 8.84001 14.67ZM15.15 14.67C14.21 14.67 13.44 13.8 13.44 12.73C13.44 11.66 14.19 10.79 15.15 10.79C16.11 10.79 16.87 11.66 16.86 12.73C16.86 13.79 16.11 14.67 15.15 14.67Z" />
    </symbol>
    <symbol id="icon-mail">
        <path fill="currentColor"
            d="M20,8L12,13L4,8V6L12,11L20,6M20,4H4C2.89,4 2,4.89 2,6V18A2,2 0 0,0 4,20H20A2,2 0 0,0 22,18V6C22,4.89 21.1,4 20,4Z" />
    </symbol>
    <symbol id="icon-copyright">
        <path fill="currentColor"
            d="M10.08 10.86C10.13 10.53 10.24 10.24 10.38 10C10.68 9.44 11.19 9.15 11.88 9.14C12.33 9.14 12.74 9.34 13.03 9.63C13.31 9.94 13.5 10.37 13.5 10.8H15.3C15.28 10.33 15.19 9.9 15 9.5C14.85 9.12 14.62 8.78 14.32 8.5C12.87 7.16 10.18 7.35 8.95 8.87C7.66 10.54 7.63 13.46 8.94 15.13C10.15 16.62 12.8 16.83 14.24 15.5C14.55 15.25 14.8 14.94 15 14.58C15.16 14.22 15.27 13.84 15.28 13.43H13.5C13.5 13.64 13.43 13.83 13.34 14C13.25 14.19 13.13 14.34 13 14.47C12.67 14.73 12.28 14.87 11.86 14.87C11.5 14.86 11.2 14.79 10.97 14.64C10.72 14.5 10.5 14.27 10.38 14C9.88 13.1 9.96 11.85 10.08 10.86M12 2C6.5 2 2 6.5 2 12C2.53 25.27 21.5 25.26 22 12C22 6.5 17.5 2 12 2M12 20C7.59 20 4 16.41 4 12C4.44 1.39 19.56 1.39 20 12C20 16.41 16.41 20 12 20Z" />
    </symbol>

    <!-- Flags -->
    <symbol id="icon-flag-no">
        <path fill="#EF2B2D" d="M7.1,4.1H3.5C2.1,4.1,1,5.2,1,6.5v3.7h6.1V4.1z M20.5,4.1h-9.7v6.1H23V6.5C23,5.2,21.9,4.1,20.5,4.1z
		 M7.1,19.9H3.5c-1.3,0-2.4-1.1-2.4-2.4v-3.7h6.1V19.9z M20.5,19.9h-9.7v-6.1H23v3.7C23,18.8,21.9,19.9,20.5,19.9z" />
        <path fill="#002868" d="M9.9,4.1H8.1l0,7H1v1.8h7l0,7h1.8v-7H23v-1.8H9.9V4.1z" />
        <path fill="#EEE" d="M9.9,19.9h0.9v-6.1H23v-0.9H9.9V19.9z M10.8,4.1H9.9v7H23v-0.9H10.8V4.1z M8,4.1H7.1v6.1H1v0.9h7V4.1z M1,12.9
		v0.9h6.1v6.1H8v-7H1z" />
    </symbol>
    <symbol id="icon-flag-en">
        <path fill="#00247D" d="M1,6.6V9h3.4L1,6.6z M3.9,19.9H9v-3.6L3.9,19.9z M15,16.4v3.6h5.1L15,16.4z M1,15v2.4L4.5,15H1z M20.1,4.1H15
		v3.6L20.1,4.1z M23,17.4V15h-3.4L23,17.4z M23,9V6.6L19.5,9H23z M9,4.1H3.9L9,7.6V4.1z" />
        <path fill="#CF1B2B" d="M16.3,15l5.9,4.1c0.3-0.3,0.5-0.7,0.6-1.1L18.5,15H16.3z M9,15H7.7l-5.9,4.1c0.3,0.3,0.7,0.6,1.2,0.7l6-4.2V15
		z M15,9h1.3l5.9-4.1c-0.3-0.3-0.7-0.6-1.2-0.7l-6,4.2V9z M7.7,9L1.7,4.8C1.5,5.1,1.3,5.5,1.1,5.9L5.5,9H7.7z" />
        <path fill="#EEE"
            d="M23,13.8h-9.1v6.1H15v-3.6l5.1,3.6h0.4c0.7,0,1.3-0.3,1.7-0.7L16.3,15h2.1l4.4,3.1c0.1-0.2,0.1-0.4,0.1-0.6v0
		L19.5,15H23V13.8z M1,13.8V15h3.4L1,17.4v0c0,0.7,0.3,1.3,0.7,1.7L7.7,15H9v0.6l-6,4.2c0.2,0,0.4,0.1,0.6,0.1h0.4L9,16.4v3.6h1.2
		v-6.1H1z M23,6.5c0-0.6-0.3-1.2-0.7-1.7L16.3,9H15V8.4l6-4.2c-0.2,0-0.4-0.1-0.6-0.1h-0.4L15,7.6V4.1h-1.2v6.1H23V9h-3.4L23,6.5
		L23,6.5z M9,4.1v3.6L3.9,4.1H3.5c-0.7,0-1.3,0.3-1.7,0.7L7.7,9H5.5L1.1,5.9C1.1,6.1,1.1,6.3,1,6.5v0L4.5,9H1v1.2h9.1V4.1H9z" />
        <path fill="#CF1B2B" d="M13.8,10.2V4.1h-3.7v6.1H1v3.7h9.1v6.1h3.7v-6.1H23v-3.7H13.8z" />
    </symbol>
    <symbol id="icon-flag-de">
        <path id="path18-3"
            d="M1,17.5538c0,1.351,1.0952,2.4462,2.4462,2.4462H20.5692c1.351,0,2.4462-1.0952,2.4462-2.4462v-2.4462H1v2.4462Z"
            style="fill: #ffcd05;" />
        <path id="path20" d="M1,9.6038H23.0154v5.5038H1v-5.5038Z" style="fill: #ed1f24;" />
        <path id="path22"
            d="M20.5692,4.1H3.4462c-1.351,0-2.4462,1.0952-2.4462,2.4462v3.0577H23.0154v-3.0577c0-1.351-1.0952-2.4462-2.4462-2.4462Z"
            style="fill: #141414;" />
    </symbol>

    <!-- Dices -->
    <symbol id="icon-dice-1">
        <path fill="#9c040c" d="M20.8,23.3H3.2c-1.3,0-2.5-1.1-2.5-2.5V3.2c0-1.3,1.1-2.5,2.5-2.5h17.5c1.4,0,2.6,1.1,2.6,2.5v17.5
		C23.3,22.1,22.1,23.3,20.8,23.3z" />
        <circle fill="#fbf2da" cx="12" cy="12" r="2.3" />
    </symbol>
    <symbol id="icon-dice-2">
        <path fill="#9c040c" d="M20.8,23.3H3.2c-1.3,0-2.5-1.1-2.5-2.5V3.2c0-1.3,1.1-2.5,2.5-2.5h17.5c1.4,0,2.6,1.1,2.6,2.5v17.5
		C23.3,22.1,22.1,23.3,20.8,23.3z" />
        <circle fill="#fbf2da" cx="6.2" cy="6.2" r="2.3" />
        <circle fill="#fbf2da" cx="17.8" cy="17.8" r="2.3" />
    </symbol>
    <symbol id="icon-dice-3">
        <path fill="#9c040c" d="M20.8,23.3H3.2c-1.3,0-2.5-1.1-2.5-2.5V3.2c0-1.3,1.1-2.5,2.5-2.5h17.5c1.4,0,2.6,1.1,2.6,2.5v17.5
		C23.3,22.1,22.1,23.3,20.8,23.3z" />
        <circle fill="#fbf2da" cx="6.2" cy="6.2" r="2.3" />
        <circle fill="#fbf2da" cx="12" cy="12" r="2.3" />
        <circle fill="#fbf2da" cx="17.8" cy="17.8" r="2.3" />
    </symbol>
    <symbol id="icon-dice-4">
        <path fill="#9c040c" d="M20.8,23.3H3.2c-1.3,0-2.5-1.1-2.5-2.5V3.2c0-1.3,1.1-2.5,2.5-2.5h17.5c1.4,0,2.6,1.1,2.6,2.5v17.5
		C23.3,22.1,22.1,23.3,20.8,23.3z" />
        <circle fill="#fbf2da" cx="6.2" cy="6.2" r="2.3" />
        <circle fill="#fbf2da" cx="17.8" cy="6.2" r="2.3" />
        <circle fill="#fbf2da" cx="6.2" cy="17.8" r="2.3" />
        <circle fill="#fbf2da" cx="17.8" cy="17.8" r="2.3" />
    </symbol>
    <symbol id="icon-dice-5">
        <path fill="#9c040c" d="M20.8,23.3H3.2c-1.3,0-2.5-1.1-2.5-2.5V3.2c0-1.3,1.1-2.5,2.5-2.5h17.5c1.4,0,2.6,1.1,2.6,2.5v17.5
		C23.3,22.1,22.1,23.3,20.8,23.3z" />
        <circle fill="#fbf2da" cx="6.2" cy="6.2" r="2.3" />
        <circle fill="#fbf2da" cx="17.8" cy="6.2" r="2.3" />
        <circle fill="#fbf2da" cx="12" cy="12" r="2.3" />
        <circle fill="#fbf2da" cx="6.2" cy="17.8" r="2.3" />
        <circle fill="#fbf2da" cx="17.8" cy="17.8" r="2.3" />
    </symbol>
    <symbol id="icon-dice-6">
        <path fill="#9c040c" d="M20.8,23.3H3.2c-1.3,0-2.5-1.1-2.5-2.5V3.2c0-1.3,1.1-2.5,2.5-2.5h17.5c1.4,0,2.6,1.1,2.6,2.5v17.5
		C23.3,22.1,22.1,23.3,20.8,23.3z" />
        <circle fill="#fbf2da" cx="6.2" cy="6.2" r="2.3" />
        <circle fill="#fbf2da" cx="17.8" cy="17.8" r="2.3" />
        <circle fill="#fbf2da" cx="17.8" cy="12" r="2.3" />
        <circle fill="#fbf2da" cx="17.8" cy="6.2" r="2.3" />
        <circle fill="#fbf2da" cx="6.2" cy="12" r="2.3" />
        <circle fill="#fbf2da" cx="6.2" cy="17.8" r="2.3" />
    </symbol>


    <!-- Coding languages -->
    <symbol id="icon-html">
        <path d="M3.6,21.2L2,.3H22l-1.7,20.9-8.3,2.5s-8.4-2.5-8.4-2.5Z" style="fill: #e44d26;" />
        <path d="M20.4,2H12V22.4l6.7-2s1.7-18.4,1.7-18.4Z" style="fill: #f16529;" />
        <path
            d="M6.6,12.4l-.9-8h12.9l-.4,2.6H8.2l.4,2.9h9.1l-.9,8-4.8,1.6-5.1-1.7-.3-4.1h2.5l.4,2,2.5,.9,2.5-.9,.4-3.3s-8.3,0-8.3,0Z"
            style="fill: #fff;" />
    </symbol>
    <symbol id="icon-css">
        <path d="M3.6,21.2L2,.3H22l-1.7,20.9-8.3,2.5s-8.4-2.5-8.4-2.5Z" style="fill: #1172b8;" />
        <path d="M20.4,2H12V22.4l6.7-2s1.7-18.4,1.7-18.4Z" style="fill: #3ad;" />
        <path
            d="M14.9,12.4H6.6l-.4-2.9,6.7-2H6.2l-.4-2.6h12.9l-.4,2.9-5.4,2h5.1l-.9,8-5.1,1.7-5.1-1.6-.3-4.2h2.5l.4,2,2.5,.9,2.5-.9s.4-3.3,.4-3.3Z"
            style="fill: #fff;" />
    </symbol>
    <symbol id="icon-js">
        <path
            d="M3.6016,2H20.4984c.8293,0,1.5016,.6723,1.5016,1.5016V20.4984c0,.8845-.7171,1.6016-1.6016,1.6016H2.9c-.6-.1-.9-.5-.9-.9V3.6016c0-.8845,.7171-1.6016,1.6016-1.6016Z"
            style="fill: #f7df1e;" />
        <path fill="#000"
            d="M14.2,16.9c.3-.2,.8-.1,1,.2,.4,.4,.8,.6,1.5,.6,.8,0,1.3-.4,1.3-.9,0-.6-.5-.9-1.4-1.3l-.6-.3c-1.4-.6-2.3-1.3-2.3-2.8,0-1.4,1.1-2.5,2.7-2.5,.9,0,1.6,.2,2.3,.8,.3,.3,.2,.9-.2,1.1l-.1,.1c-.3,.2-.8,.2-1-.1-.2-.2-.5-.3-.9-.3-.5,0-.9,.4-.9,.8,0,.5,.4,.8,1.2,1.1l.5,.2c1.6,.8,2.5,1.4,2.5,3,0,1.7-1.3,2.6-3.1,2.6-1.3,0-2.3-.4-2.9-1.1-.3-.4-.3-1,.2-1.2,0,0,.2,0,.2,0Zm-6.8,.2c.3-.2,.8-.1,1,.2,.2,.3,.4,.4,.9,.4,.6,0,1-.2,1-1.2v-5.7c0-.4,.3-.8,.8-.8h.3c.4,0,.8,.3,.8,.8v5.5c0,2-1.1,2.8-2.8,2.8-1.1,0-1.8-.4-2.3-.9-.4-.4-.3-.9,.3-1.1h0Z" />
    </symbol>
    <symbol id="icon-cs">
        <path
            d="M22,7.1v9.8c0,.27-.07,.53-.2,.7599-.13,.22-.32,.41-.55,.54l-8.49,4.91c-.47,.27-1.05,.27-1.52,0L2.75,18.2c-.23-.13-.42-.32-.55-.54-.13-.23-.2-.49-.2-.7599V7.1c0-.54,.29-1.04,.76-1.31L11.24,.89c.47-.27,1.05-.27,1.52,0l8.48,4.9c.24,.13,.42,.33,.56,.55,.13,.23,.2,.49,.2,.7599Z"
            style="fill: #9a5196;" />
        <path
            d="M22,7.1v9.8c0,.27-.07,.53-.2,.7599-.13,.22-.32,.41-.55,.54l-8.49,4.91c-.47,.27-1.05,.27-1.52,0L2.75,18.2c-.23-.13-.42-.32-.55-.54L21.8,6.34c.13,.23,.2,.49,.2,.7599Z"
            style="fill: #7f3a86;" />
        <path
            d="M21.8,17.66c-.13,.22-.32,.41-.55,.54l-8.49,4.91c-.47,.27-1.05,.27-1.52,0L2.75,18.2c-.23-.13-.42-.32-.55-.54l9.8-5.66,9.8,5.66Z"
            style="fill: #662579;" />
        <path
            d="M19.9383,11.3869v-.6131h-.5565v-.6131h-.6246v.6131h-1.2031v-.6131h-.6246v.6131h-.6697v.6131h.6697v1.2261h-.6697v.6131h.6697v.6131h.6246v-.6131h1.2031v.6131h.6246v-.6131h.5565v-.6131h-.5565v-1.2261h.5565Zm-1.1811,1.2261h-1.2031v-1.2261h1.2031v1.2261Z"
            style="fill: #fff; fill-rule: evenodd;" />
        <path
            d="M15.6509,14.1055c-.7274,1.2622-2.0903,2.1104-3.6515,2.1104-2.3289,0-4.2151-1.889-4.2151-4.2179,0-2.3261,1.8861-4.2151,4.2151-4.2151,1.5612,0,2.9212,.8482,3.6486,2.1075l2.6941-1.5555c-1.2651-2.1909-3.6314-3.663-6.3427-3.663-4.0483,0-7.326,3.2806-7.326,7.3261,0,4.0483,3.2777,7.3289,7.326,7.3289,2.7113,0,5.0805-1.475,6.3456-3.6659,0,0-2.6941-1.5555-2.6941-1.5555Z"
            style="fill: #fff; fill-rule: evenodd;" />
    </symbol>
    <symbol id="icon-cpp">
        <path
            d="M22,7.1v9.8c0,.27-.07,.53-.2,.7599-.13,.22-.32,.41-.55,.54l-8.49,4.91c-.47,.27-1.05,.27-1.52,0L2.75,18.2c-.23-.13-.42-.32-.55-.54-.13-.23-.2-.49-.2-.7599V7.1c0-.54,.29-1.04,.76-1.31L11.24,.89c.47-.27,1.05-.27,1.52,0l8.48,4.9c.24,.13,.42,.33,.56,.55,.13,.23,.2,.49,.2,.7599Z"
            style="fill: #659ad2;" />
        <path
            d="M22,7.1v9.8c0,.27-.07,.53-.2,.7599-.13,.22-.32,.41-.55,.54l-8.49,4.91c-.47,.27-1.05,.27-1.52,0L2.75,18.2c-.23-.13-.42-.32-.55-.54L21.8,6.34c.13,.23,.2,.49,.2,.7599Z"
            style="fill: #00599c;" />
        <path
            d="M21.8,17.66c-.13,.22-.32,.41-.55,.54l-8.49,4.91c-.47,.27-1.05,.27-1.52,0L2.75,18.2c-.23-.13-.42-.32-.55-.54l9.8-5.66,9.8,5.66Z"
            style="fill: #004482;" />
        <path
            d="M15.6509,14.1055c-.7198,1.2489-2.0616,2.0925-3.6022,2.1101-2.2373,.0256-4.1492-1.7701-4.2592-4.0049-.1192-2.4225,1.8103-4.4279,4.2098-4.4279,1.5612,0,2.9212,.8482,3.6486,2.1075l2.6941-1.5555c-1.2651-2.1909-3.6314-3.663-6.3427-3.663-4.2048,0-7.5782,3.5391-7.3112,7.7983,.2225,3.5493,3.0387,6.4766,6.5783,6.8209,3.013,.2931,5.7006-1.2439,7.0785-3.6302l-2.6941-1.5555v.0002Z"
            style="fill: #fff; fill-rule: evenodd;" />
        <polygon
            points="17.242 10.7208 16.4745 10.7208 16.4745 11.6163 15.579 11.6163 15.579 12.3837 16.4745 12.3837 16.4745 13.2792 17.242 13.2792 17.242 12.3837 18.1374 12.3837 18.1374 11.6163 17.242 11.6163 17.242 10.7208"
            style="fill: #fff;" />
        <polygon
            points="20.4327 11.6163 20.4327 10.7208 19.6652 10.7208 19.6652 11.6163 18.7698 11.6163 18.7698 12.3837 19.6652 12.3837 19.6652 13.2792 20.4327 13.2792 20.4327 12.3837 21.3281 12.3837 21.3281 11.6163 20.4327 11.6163"
            style="fill: #fff;" />
    </symbol>
    <symbol id="icon-c">
        <path
            d="M22,7.1v9.8c0,.27-.07,.53-.2,.7599-.13,.22-.32,.41-.55,.54l-8.49,4.91c-.47,.27-1.05,.27-1.52,0L2.75,18.2c-.23-.13-.42-.32-.55-.54-.13-.23-.2-.49-.2-.7599V7.1c0-.54,.29-1.04,.76-1.31L11.24,.89c.47-.27,1.05-.27,1.52,0l8.48,4.9c.24,.13,.42,.33,.56,.55,.13,.23,.2,.49,.2,.7599Z"
            style="fill: #5c6bbf;" />
        <path
            d="M22,7.1v9.8c0,.27-.07,.53-.2,.7599-.13,.22-.32,.41-.55,.54l-8.49,4.91c-.47,.27-1.05,.27-1.52,0L2.75,18.2c-.23-.13-.42-.32-.55-.54L21.8,6.34c.13,.23,.2,.49,.2,.7599Z"
            style="fill: #3848aa;" />
        <path
            d="M21.8,17.66c-.13,.22-.32,.41-.55,.54l-8.49,4.91c-.47,.27-1.05,.27-1.52,0L2.75,18.2c-.23-.13-.42-.32-.55-.54l9.8-5.66,9.8,5.66Z"
            style="fill: #283593;" />
        <path
            d="M15.6509,14.1055c-.7198,1.2489-2.0616,2.0925-3.6022,2.1101-2.2373,.0256-4.1492-1.7701-4.2592-4.0049-.1192-2.4225,1.8103-4.4279,4.2098-4.4279,1.5612,0,2.9212,.8482,3.6486,2.1075l2.6941-1.5555c-1.2651-2.1909-3.6314-3.663-6.3427-3.663-4.2048,0-7.5782,3.5391-7.3112,7.7983,.2225,3.5493,3.0387,6.4766,6.5783,6.8209,3.013,.2931,5.7006-1.2439,7.0785-3.6302l-2.6941-1.5555v.0002Z"
            style="fill: #fff; fill-rule: evenodd;" />
    </symbol>
    <symbol id="icon-py">
        <path
            d="M9.9294,1.8995c-1.6161,0-2.9291,1.3131-2.9291,2.8281v1.9191h4.9492v.505H4.7781c-1.5151,0-2.8281,1.2121-2.8281,2.8281v4.1412c0,1.5151,1.3131,2.8281,2.8281,2.8281h1.6161v-2.3231c0-1.5151,1.3131-2.8281,2.8281-2.8281h5.2522c1.3131,0,2.4241-1.01,2.4241-2.3231V4.7277c.202-1.5151-1.1111-2.8281-2.7271-2.8281,0,0-4.2422,0-4.2422,0Zm-.707,3.4342c.505,0,1.01-.404,1.01-1.01,0-.505-.404-1.01-1.01-1.01-.505,0-1.01,.404-1.01,1.01s.505,1.01,1.01,1.01Z"
            style="fill: #1565a7; fill-rule: evenodd;" />
        <path
            d="M19.2218,7.1518h-1.6161v2.3231c0,1.5151-1.313,2.8281-2.8281,2.8281h-5.3532c-1.3131,0-2.4241,1.01-2.4241,2.3231v4.7472c0,1.5151,1.313,2.7271,2.9292,2.7271h4.2422c1.6161,0,2.8282-1.2121,2.8282-2.8281v-1.9191h-4.9493v-.505h7.1713c1.6161,0,2.8282-1.2121,2.8282-2.8281v-4.0402c0-1.5151-1.3131-2.8281-2.8282-2.8281Zm-4.3432,11.5145c.505,0,1.01,.505,1.01,1.01,0,.6061-.505,1.01-1.01,1.01-.606,0-1.01-.505-1.01-1.01,0-.606,.505-1.01,1.01-1.01Z"
            style="fill: #f9c600;" />
    </symbol>
</svg>